<?xml version="1.0" encoding="utf-8"?>
<!-- Generator: Adobe Illustrator 24.0.2, SVG Export Plug-In . SVG Version: 6.00 Build 0)  -->
<svg version="1.1" id="Layer_1" xmlns="http://www.w3.org/2000/svg" xmlns:xlink="http://www.w3.org/1999/xlink" x="0px" y="0px"
	 viewBox="0 0 550 128.3" style="enable-background:new 0 0 550 128.3;" xml:space="preserve">
<style type="text/css">
	.st0{display:none;fill-rule:evenodd;clip-rule:evenodd;fill:#E25252;}
	.st1{fill-rule:evenodd;clip-rule:evenodd;fill:#FFFFFF;}
</style>
<rect class="st0" width="550" height="128.3"/>
<g>
	<g>
		<g>
			<g>
				<path class="st1" d="M65,42.9h31.3v-9.2H65V42.9z M85.3,63.6c0-1.3-0.5-2.3-1.4-3.3c-0.9-0.9-2-1.4-3.3-1.4
					c-1.3,0-2.3,0.5-3.3,1.4c-0.9,0.9-1.4,2-1.4,3.3v31h9.3V63.6z"/>
				<path class="st1" d="M80.6,55.6c-1.3,0-2.3-0.5-3.3-1.4c-0.9-0.9-1.4-2-1.4-3.3c0-1.3,0.5-2.3,1.4-3.3c0.9-0.9,2-1.4,3.3-1.4
					c1.3,0,2.4,0.5,3.3,1.4c0.9,0.9,1.4,2,1.4,3.3c0,1.3-0.5,2.4-1.4,3.3C83,55.2,81.9,55.6,80.6,55.6z"/>
			</g>
			<g>
				<path class="st1" d="M124.6,42.9c1.3,0,2.3-0.5,3.3-1.4c0.9-0.9,1.4-2,1.4-3.3c0-1.3-0.5-2.4-1.4-3.3c-0.9-0.9-2-1.3-3.3-1.3
					h-18c-1.3,0-2.4,0.4-3.3,1.3c-0.9,0.9-1.3,2-1.3,3.3c0,1.3,0.4,2.3,1.3,3.3s2,1.4,3.3,1.4H124.6z M102,94.6l22.6,0
					c1.3,0,2.3-0.5,3.3-1.4c0.9-0.9,1.4-2,1.4-3.3c0-1.3-0.5-2.4-1.4-3.3s-2-1.3-3.3-1.3h-13.4V68.8h9.5c1.3,0,2.3-0.4,3.3-1.3
					c0.9-0.9,1.4-2,1.4-3.3c0-1.3-0.5-2.3-1.4-3.3c-0.9-0.9-2-1.4-3.3-1.4h-14.1c-1.3,0-2.4,0.5-3.3,1.4c-0.9,0.9-1.3,2-1.3,3.3
					L102,94.6z"/>
				<path class="st1" d="M106.6,55.9c-1.3,0-2.4-0.5-3.3-1.4c-0.9-0.9-1.3-2-1.3-3.3c0-1.3,0.4-2.3,1.3-3.3c0.9-0.9,2-1.4,3.3-1.4
					c1.3,0,2.3,0.5,3.3,1.4c0.9,0.9,1.4,2,1.4,3.3c0,1.3-0.5,2.4-1.4,3.3C109,55.4,107.9,55.9,106.6,55.9z"/>
			</g>
			<g>
				<path class="st1" d="M157.5,93.5c0.9,0.7,1.9,1.1,3,1.1c1.6,0,2.8-0.6,3.6-1.8c0.6-0.9,1-1.9,1-3.1c0-0.4-3.2-19.1-9.7-56.1
					h-13.3c-6.4,37.1-9.7,55.9-9.7,56.2c0,1.1,0.3,2.1,1,3c0.8,1.2,2,1.8,3.6,1.8c1.1,0,2.1-0.4,3-1.1c0.9-0.7,1.4-1.7,1.6-2.8
					l7.2-41.3l7.2,41.3C156.1,91.9,156.7,92.8,157.5,93.5L157.5,93.5z"/>
				<path class="st1" d="M148.7,94.6c-1.3,0-2.4-0.5-3.3-1.4s-1.3-2-1.3-3.2c0-1.3,0.4-2.4,1.3-3.3s2-1.4,3.3-1.4
					c1.3,0.1,2.4,0.5,3.3,1.4s1.3,2,1.3,3.3c0,1.3-0.4,2.3-1.3,3.2S150.1,94.6,148.7,94.6z"/>
			</g>
			<g>
				<path class="st1" d="M180.2,67.6l7.5,27h9.6l7.4-27V82h9.3V39.1c0-1.5-0.5-2.8-1.6-3.8c-1.1-1-2.3-1.6-3.8-1.6
					c-1.2,0-2.3,0.4-3.3,1.1s-1.6,1.7-1.9,3l-10.9,39.5l-10.9-39.5c-0.3-1.2-0.9-2.2-1.9-3s-2.1-1.2-3.3-1.2c-1.5,0-2.8,0.5-3.8,1.6
					c-1,1-1.6,2.3-1.6,3.8V82h9.2L180.2,67.6z M206,93.3c0.9,0.9,2,1.4,3.3,1.4c1.3,0,2.3-0.5,3.3-1.4c0.9-0.9,1.4-2,1.4-3.3
					c0-1.3-0.5-2.4-1.4-3.3c-0.9-0.9-2-1.3-3.3-1.3c-1.3,0-2.4,0.4-3.3,1.3c-0.9,0.9-1.4,2-1.4,3.3C204.6,91.3,205.1,92.4,206,93.3z
					"/>
				<path class="st1" d="M175.5,94.6c-1.3,0-2.3-0.5-3.3-1.4s-1.4-2-1.4-3.3c0-1.3,0.5-2.4,1.4-3.3s2-1.3,3.3-1.3
					c1.3,0,2.4,0.4,3.3,1.3s1.3,2,1.3,3.3c0,1.3-0.4,2.3-1.3,3.3S176.8,94.6,175.5,94.6z"/>
			</g>
			<g>
				<path class="st1" d="M230.5,92.4c2.5,1.5,5.3,2.2,8.3,2.2c3.1,0,5.8-0.7,8.3-2.2c2.5-1.5,4.5-3.5,6-6c1.5-2.5,2.2-5.3,2.2-8.3
					c0-5-2.1-9.2-6.2-12.6c-1.8-1.5-3.7-2.8-5.7-4c-3.2-1.8-5.6-3.3-7-4.2c-1.5-1-2.7-2-3.5-3.1c-0.9-1.1-1.3-2.4-1.3-3.9
					c0-2,0.7-3.7,2.1-5.2c1.4-1.4,3.1-2.1,5.1-2.1c2.7,0,4.8,1.2,6.3,3.7c0.1,0.2,0.2,0.4,0.3,0.6c0.1,0.2,0.2,0.4,0.3,0.6
					c1,1.6,2.4,2.4,4.1,2.4c1,0,1.9-0.3,2.8-0.8c1.3-0.8,2-1.8,2-3.2c0-0.8-0.3-1.9-1-3.2c-1.4-2.8-3.4-5-6-6.7
					c-2.6-1.7-5.6-2.6-8.8-2.6c-3,0-5.8,0.7-8.3,2.2c-2.5,1.5-4.5,3.5-6,6c-1.5,2.5-2.2,5.3-2.2,8.3c0,5,2.1,9.2,6.2,12.6
					c2,1.7,4.7,3.4,8.1,5.4c1.7,1,3.3,1.9,4.7,2.9c1.4,1,2.6,2,3.5,3.1c0.9,1.1,1.3,2.4,1.3,3.9c0,2-0.7,3.7-2.1,5.1
					c-1.4,1.4-3.1,2.1-5.2,2.1c-2,0-3.7-0.7-5.1-2.1c-1.4-1.4-2.1-3.1-2.1-5.1h-9.2c0,3,0.7,5.8,2.2,8.3
					C226,88.9,228,90.9,230.5,92.4L230.5,92.4z"/>
				<path class="st1" d="M238.9,82.8c-1.3,0-2.4-0.5-3.3-1.4c-0.9-0.9-1.4-2-1.4-3.3c0-1.3,0.5-2.3,1.4-3.3s2-1.4,3.3-1.4
					c1.3,0,2.3,0.5,3.3,1.4c0.9,0.9,1.4,2,1.4,3.3c0,1.3-0.5,2.4-1.4,3.3C241.2,82.3,240.1,82.8,238.9,82.8z"/>
			</g>
			<g>
				<path class="st1" d="M273,38.3c0-1.3-0.5-2.4-1.4-3.3c-0.9-0.9-2-1.3-3.3-1.3c-1.3,0-2.4,0.4-3.3,1.3s-1.4,2-1.4,3.3v56.3h12.7
					v-9.3H273V38.3z"/>
				<path class="st1" d="M284.5,94.6c-1.3,0-2.4-0.5-3.3-1.4c-0.9-0.9-1.4-2-1.4-3.3c0-1.3,0.5-2.4,1.4-3.3c0.9-0.9,2-1.3,3.3-1.3
					c1.3,0,2.3,0.4,3.3,1.3c0.9,0.9,1.4,2,1.4,3.3c0,1.3-0.5,2.3-1.4,3.3C286.8,94.2,285.7,94.6,284.5,94.6z"/>
			</g>
			<g>
				<path class="st1" d="M301.8,92.4c2.5,1.5,5.3,2.2,8.4,2.2c3,0,5.8-0.7,8.3-2.2c2.5-1.5,4.5-3.5,6-6c1.5-2.5,2.2-5.3,2.2-8.3
					V50.2c0-3.1-0.7-5.8-2.2-8.3c-1.5-2.5-3.5-4.5-6-6c-2.5-1.5-5.3-2.2-8.3-2.2s-5.8,0.7-8.3,2.2c-2.5,1.5-4.5,3.5-6,6
					c-1.5,2.5-2.2,5.3-2.2,8.3v27.9c0,3.1,0.7,5.8,2.2,8.3C297.3,89,299.3,91,301.8,92.4L301.8,92.4z M315.3,83.3
					c-1.4,1.4-3.1,2.1-5.1,2.1c-2,0-3.7-0.7-5.1-2.1c-1.4-1.4-2.1-3.1-2.1-5.1V50.2c0-2,0.7-3.7,2.1-5.2c1.4-1.4,3.1-2.1,5.1-2.1
					c2,0,3.7,0.7,5.1,2.1c1.4,1.4,2.1,3.1,2.1,5.2v27.9C317.5,80.1,316.8,81.8,315.3,83.3L315.3,83.3z"/>
				<path class="st1" d="M310.2,68.8c-1.3,0-2.4-0.5-3.3-1.4s-1.3-2-1.3-3.3c0-1.3,0.4-2.4,1.3-3.3s2-1.4,3.3-1.4
					c1.3,0,2.3,0.5,3.3,1.4c0.9,0.9,1.4,2,1.4,3.3c0,1.3-0.5,2.3-1.4,3.3C312.6,68.4,311.5,68.8,310.2,68.8z"/>
			</g>
			<g>
				<path class="st1" d="M343.3,92.4c2.5,1.5,5.3,2.2,8.3,2.2s5.8-0.7,8.3-2.2c2.5-1.5,4.5-3.5,6-6s2.2-5.3,2.2-8.3V33.7h-9.2v44.4
					c0,2-0.7,3.7-2.1,5.1c-1.4,1.4-3.2,2.1-5.2,2.1c-2,0-3.7-0.7-5.1-2.1c-1.4-1.4-2.1-3.1-2.1-5.1V51c0-1.3-0.5-2.3-1.4-3.3
					c-0.9-0.9-2-1.4-3.3-1.4c-1.3,0-2.4,0.5-3.3,1.4c-0.9,0.9-1.3,2-1.3,3.3v27.2c0,3,0.7,5.8,2.2,8.3
					C338.8,88.9,340.8,90.9,343.3,92.4L343.3,92.4z"/>
				<path class="st1" d="M339.7,42.9c-1.3,0-2.4-0.4-3.3-1.3c-0.9-0.9-1.3-2-1.3-3.3c0-1.3,0.4-2.3,1.3-3.3s2-1.4,3.3-1.4
					c1.3,0,2.3,0.5,3.3,1.4c0.9,0.9,1.4,2,1.4,3.3c0,1.3-0.5,2.4-1.4,3.3C342.1,42.5,341,42.9,339.7,42.9z"/>
			</g>
			<g>
				<path class="st1" d="M398.7,70.1L390,38.9c-0.4-1.5-1.2-2.8-2.4-3.7c-1.2-1-2.6-1.4-4.2-1.4c-1.9,0-3.5,0.7-4.8,2s-2,2.9-2,4.8
					v36.9c0,1.3,0.5,2.3,1.4,3.3c0.9,0.9,2,1.4,3.3,1.4c1.3,0,2.4-0.5,3.3-1.4s1.4-2,1.4-3.3V58.5l10,36.2h12.1V33.7h-9.3
					L398.7,70.1z"/>
				<path class="st1" d="M381.2,94.6c-1.3,0-2.3-0.4-3.3-1.3c-0.9-0.9-1.4-2-1.4-3.3c0-1.3,0.5-2.3,1.4-3.3c0.9-0.9,2-1.4,3.3-1.4
					c1.3,0,2.4,0.5,3.3,1.4s1.4,2,1.4,3.3c0,1.3-0.5,2.4-1.4,3.3S382.5,94.6,381.2,94.6z"/>
			</g>
			<g>
				<path class="st1" d="M417.7,58.7c0.9,0.9,2,1.4,3.3,1.4c1.3,0,2.3-0.5,3.3-1.4s1.4-2,1.4-3.3v-5.2c0-2,0.7-3.7,2.1-5.1
					c1.4-1.4,3.1-2.1,5.1-2.1c2.2,0,3.9,0.8,5.3,2.3c1.3,1.5,2,3.3,2,5.5c0,1.3,0.5,2.3,1.4,3.3s2,1.4,3.3,1.4
					c1.3,0,2.4-0.5,3.3-1.4c0.9-0.9,1.4-2,1.4-3.3c0-3.1-0.7-5.9-2.2-8.5c-1.4-2.6-3.4-4.6-5.9-6.2c-2.5-1.5-5.3-2.3-8.5-2.3
					c-3,0-5.8,0.7-8.3,2.2c-2.5,1.5-4.5,3.5-6,6c-1.5,2.5-2.2,5.3-2.2,8.3v5.2C416.3,56.7,416.7,57.8,417.7,58.7L417.7,58.7z
					 M422.6,91c3,2.4,6.4,3.6,10.3,3.6c3,0,5.8-0.7,8.3-2.2c2.5-1.5,4.5-3.5,6-6c1.5-2.5,2.2-5.3,2.2-8.3V63.3h-16.5v9.2h7.3v5.5
					c0,2-0.7,3.7-2.1,5.1c-1.4,1.4-3.1,2.1-5.1,2.1c-1.8,0-3.4-0.5-4.6-1.6c-1.2-1.1-2.1-2.5-2.5-4.2c-0.3-1.1-0.8-2-1.6-2.7
					c-0.8-0.7-1.8-1-2.9-1c-1.3,0-2.4,0.5-3.4,1.5c-0.9,0.9-1.3,1.9-1.3,3.1v0.3C417.4,85,419.4,88.4,422.6,91L422.6,91z"/>
				<path class="st1" d="M421,72.6c-1.3,0-2.4-0.5-3.3-1.4c-0.9-0.9-1.4-2-1.4-3.3c0-1.3,0.5-2.3,1.4-3.3c0.9-0.9,2-1.4,3.3-1.4
					c1.3,0,2.3,0.5,3.3,1.4c0.9,0.9,1.4,2,1.4,3.3c0,1.3-0.5,2.3-1.4,3.3S422.2,72.6,421,72.6z"/>
			</g>
			<g>
				<path class="st1" d="M480.4,42.9c1.3,0,2.3-0.5,3.3-1.4s1.4-2,1.4-3.3c0-1.3-0.5-2.4-1.4-3.3c-0.9-0.9-2-1.3-3.3-1.3h-18
					c-1.3,0-2.4,0.4-3.3,1.3s-1.3,2-1.3,3.3c0,1.3,0.4,2.3,1.3,3.3s2,1.4,3.3,1.4H480.4z M457.8,94.6l22.6,0c1.3,0,2.3-0.5,3.3-1.4
					s1.4-2,1.4-3.3c0-1.3-0.5-2.4-1.4-3.3s-2-1.3-3.3-1.3H467V68.8h9.5c1.3,0,2.3-0.4,3.3-1.3c0.9-0.9,1.4-2,1.4-3.3
					c0-1.3-0.5-2.3-1.4-3.3c-0.9-0.9-2-1.4-3.3-1.4h-14.1c-1.3,0-2.4,0.5-3.3,1.4s-1.3,2-1.3,3.3V94.6z"/>
				<path class="st1" d="M462.4,55.9c-1.3,0-2.4-0.5-3.3-1.4s-1.3-2-1.3-3.3c0-1.3,0.4-2.3,1.3-3.3c0.9-0.9,2-1.4,3.3-1.4
					c1.3,0,2.3,0.5,3.3,1.4c0.9,0.9,1.4,2,1.4,3.3c0,1.3-0.5,2.4-1.4,3.3S463.7,55.9,462.4,55.9z"/>
			</g>
		</g>
	</g>
</g>
</svg>
