<?xml version="1.0" encoding="utf-8"?>
<!-- Generator: Adobe Illustrator 23.0.5, SVG Export Plug-In . SVG Version: 6.00 Build 0)  -->
<svg version="1.1" id="Capa_1" xmlns="http://www.w3.org/2000/svg" xmlns:xlink="http://www.w3.org/1999/xlink" x="0px" y="0px"
	 viewBox="0 0 512 512" style="enable-background:new 0 0 512 512;" xml:space="preserve">
<style type="text/css">
	.st0{fill:#FFFFFF;}
</style>
<path class="st0" d="M185.2,465.8c12,27.2,39.2,46.2,70.8,46.2s58.8-19,70.8-46.2H185.2z"/>
<path class="st0" d="M256,48.9c20.8,0,40.8,3.7,59.4,10.4V57c0-31.4-25.6-57-57-57h-4.7c-31.4,0-57,25.6-57,57v2.3
	C215.2,52.6,235.2,48.9,256,48.9z"/>
<path class="st0" d="M443.5,435.8h-375c-7.1,0-13.6-4.8-15.1-11.7c-1.5-6.9,1.7-13.7,8-16.6c1.5-1,12.9-8.9,24.2-32.9
	c20.9-44.1,25.2-106.2,25.2-150.5C110.9,144,176,79,256,79c79.8,0,144.8,64.8,145.1,144.5c0,0.2,0,0.4,0,0.6
	c0,44.3,4.4,106.4,25.2,150.5c11.4,24,22.7,31.9,24.2,32.9c6.4,2.9,9.5,9.7,8,16.6C457.1,431,450.6,435.8,443.5,435.8z M450.7,407.6
	L450.7,407.6L450.7,407.6z"/>
</svg>
