<?xml version="1.0" encoding="utf-8"?>
<!-- Generator: Adobe Illustrator 24.0.2, SVG Export Plug-In . SVG Version: 6.00 Build 0)  -->
<svg version="1.1" id="Layer_1" xmlns="http://www.w3.org/2000/svg" xmlns:xlink="http://www.w3.org/1999/xlink" x="0px" y="0px"
	 viewBox="0 0 512 512" style="enable-background:new 0 0 512 512;" xml:space="preserve">
<style type="text/css">
	.st0{fill:#66BAED;}
	.st1{fill:#3D4159;}
	.st2{fill:#DDE8ED;}
	.st3{fill:#F74F4F;}
	.st4{fill:#BFD5DE;}
	.st5{fill:#EAB599;}
	.st6{fill:#F6CAAE;}
	.st7{fill:#FFFFFF;}
	.st8{fill:#E8C934;}
	.st9{fill:#FFE152;}
	.st10{fill:#2A2F4F;}
	.st11{fill:#D8D5D0;}
	.st12{fill:#F2F0EC;}
</style>
<path class="st0" d="M512,256c0,34.1-6.7,66.7-18.8,96.5c-26.9,66-80.5,118.2-147.3,143.3c-11,4.1-22.5,7.5-34.2,10.1
	c-17.9,4-36.6,6.1-55.7,6.1c-12.4,0-24.7-0.9-36.7-2.6c-3.2-0.4-6.3-1-9.4-1.5c-4.6-0.8-9.2-1.8-13.7-2.9c-3.5-0.8-7-1.7-10.4-2.7
	c-0.2,0-0.3-0.1-0.5-0.1c-4-1.1-7.9-2.4-11.8-3.7c-9.9-3.4-19.6-7.3-28.9-11.9c-6.2-3-12.3-6.3-18.2-9.8c-25.4-15-48-34.2-66.8-56.7
	C22.3,375.6,0,318.4,0,256C0,114.6,114.6,0,256,0S512,114.6,512,256z"/>
<path class="st1" d="M311.7,403.2v102.7c-17.9,4-36.6,6.1-55.7,6.1c-79,0-149.6-35.8-196.5-92v-16.9c0-44,29.9-81,70.5-91.9
	c1.5-0.4,3-0.8,4.5-1.1c4-0.9,8.2-1.5,12.4-1.8c2.6-0.2,5.2-0.3,7.8-0.3h61.9c6.9,0,13.7,0.7,20.2,2.1c0.4,0.1,0.8,0.2,1.1,0.2
	c1.1,0.2,2.2,0.5,3.3,0.8c0,0,0.1,0,0.1,0c10.7,2.9,20.7,7.6,29.5,13.7C295.5,342.2,311.7,370.8,311.7,403.2z"/>
<path class="st2" d="M241.4,310.2l-0.2,1.1l-33,153.3c-7.5,0.7-15,1-22.7,1c-7.6,0-15.2-0.3-22.7-1l-33-153.3l-0.2-1.1H241.4z"/>
<path class="st3" d="M211.1,342.4l-25.5,41l-25.5-41"/>
<path class="st3" d="M209.1,464.5c-4.3,0.4-8.6,21.6-12.9,40.5c-3.5-0.8-7-1.7-10.4-2.7c-0.2,0-0.3-0.1-0.5-0.1
	c-4-1.1-7.9-2.4-11.8-3.7c-3.8-16.9-7.7-33.5-11.4-33.9l23.6-91.8L209.1,464.5z"/>
<path class="st4" d="M185.6,347l-42.8,23.8l-13-60.6l26.6-15.7"/>
<path class="st4" d="M185.6,347l42.8,23.8l13-60.6l-26.6-15.7"/>
<path class="st5" d="M219.5,271.4v41.7c0,15.2-10.1,28.1-23.9,32.4c-3.2,1-6.6,1.5-10,1.5c-18.7,0-33.9-15.2-33.9-33.9v-41.7H219.5z
	"/>
<path class="st6" d="M219.5,310.4v2.6c0,15.2-10.1,28.1-23.9,32.4c-12.5-3.8-21.9-14.7-23.6-28c2.3,0.1,4.5,0.2,6.8,0.2
	c6.4,0,12.7-0.5,18.8-1.5C205.2,315,212.5,313,219.5,310.4z"/>
<path class="st6" d="M92.5,203.1c0,15.7-11.5,28.7-26.5,31.2c-1.6,0.3-3.3,0.4-5.1,0.4c-17.4,0-31.6-14.1-31.6-31.6
	s14.1-31.6,31.6-31.6c1.7,0,3.4,0.1,5.1,0.4C81,174.4,92.5,187.4,92.5,203.1z"/>
<path class="st5" d="M92.5,203.1c0,15.7-11.5,28.7-26.5,31.2c-2.7-9.9-4.2-20.4-4.2-31.2c0-10.8,1.5-21.2,4.2-31.2
	C81,174.4,92.5,187.4,92.5,203.1z"/>
<path class="st5" d="M72.2,203.1c0,6.2-5.1,11.3-11.3,11.3s-11.3-5.1-11.3-11.3s5.1-11.3,11.3-11.3S72.2,196.9,72.2,203.1z"/>
<path class="st6" d="M278.7,203.1c0,15.7,11.5,28.7,26.5,31.2c1.6,0.3,3.3,0.4,5.1,0.4c17.4,0,31.6-14.1,31.6-31.6
	s-14.1-31.6-31.6-31.6c-1.7,0-3.4,0.1-5.1,0.4C290.2,174.4,278.7,187.4,278.7,203.1z"/>
<path class="st5" d="M278.7,203.1c0,15.7,11.5,28.7,26.5,31.2c2.7-9.9,4.2-20.4,4.2-31.2c0-10.8-1.5-21.2-4.2-31.2
	C290.2,174.4,278.7,187.4,278.7,203.1z"/>
<path class="st5" d="M303,141.6v44.7c0,58.4-42.7,106.9-98.6,115.9c-0.2,0-0.4,0.1-0.6,0.1c-5.9,0.9-12,1.4-18.3,1.4
	c-64.9,0-117.4-52.6-117.4-117.4v-44.7c0-13.7,2.3-26.8,6.6-39C90.8,57,134.4,24.2,185.6,24.2h0c6.2,0,12.3,0.5,18.3,1.4
	C260,34.4,303,83,303,141.6z"/>
<path class="st5" d="M321.5,203.1c0,6.2-5.1,11.3-11.3,11.3s-11.3-5.1-11.3-11.3s5.1-11.3,11.3-11.3S321.5,196.9,321.5,203.1z"/>
<path class="st6" d="M303,141.6v44.7c0,58.4-42.7,106.9-98.6,115.9c-0.2,0-0.4,0.1-0.6,0.1c-56.2-8.8-99.1-57.4-99.1-116v-44.7
	c0-58.6,43-107.2,99.2-116C260,34.4,303,83,303,141.6z"/>
<path class="st1" d="M160.6,179.5c0,7.4-6,13.3-13.3,13.3s-13.3-6-13.3-13.3s6-13.3,13.3-13.3S160.6,172.2,160.6,179.5z"/>
<path class="st1" d="M237.2,179.5c0,7.4-6,13.3-13.3,13.3c-7.4,0-13.3-6-13.3-13.3s6-13.3,13.3-13.3
	C231.3,166.2,237.2,172.2,237.2,179.5z"/>
<path class="st7" d="M157.8,177.2c0,3.2-2.6,5.7-5.7,5.7s-5.7-2.6-5.7-5.7s2.6-5.7,5.7-5.7S157.8,174,157.8,177.2z"/>
<path class="st7" d="M235.2,177.2c0,3.2-2.6,5.7-5.7,5.7s-5.7-2.6-5.7-5.7s2.6-5.7,5.7-5.7S235.2,174,235.2,177.2z"/>
<path class="st5" d="M198.9,207.8h-26.6c-3.2,0-5.7-2.6-5.7-5.8c0-3.2,2.6-5.7,5.7-5.7h26.6c3.2,0,5.7,2.6,5.7,5.7
	C204.6,205.3,202.1,207.8,198.9,207.8z"/>
<path class="st5" d="M185.6,244.2c-9.8,0-19.7-2.5-28.6-7.4c-2.5-1.4-3.5-4.6-2.1-7.1s4.6-3.4,7.1-2.1c14.8,8.1,32.4,8.1,47.2,0
	c2.5-1.4,5.7-0.5,7.1,2.1s0.5,5.7-2.1,7.1C205.2,241.7,195.4,244.2,185.6,244.2z"/>
<path class="st8" d="M303,101.1v45.8h-21.9V111L123.4,81.7L90,75.5v71.4H68.1v-45.8c0-52.2,42.3-94.6,94.5-94.6h45.8
	c1.2,0,2.5,0,3.7,0.1C262.7,8.5,303,50.1,303,101.1z"/>
<path class="st9" d="M303,101.1v45.8h-21.9V111L123.4,81.7c8.7-41.8,44.9-73.4,88.8-75.1C262.7,8.5,303,50.1,303,101.1z"/>
<path class="st10" d="M129.7,305l55.6,197.1c-14.1-4-27.8-9.3-40.8-15.6l-30-94.5h13.6l-27.7-72.2L129.7,305z"/>
<path class="st10" d="M243,392h13.6l-37.3,117.4c-11.4-1.6-22.6-4-33.5-7.1L241.4,305l29.3,14.8L243,392z"/>
<path class="st11" d="M493.2,299.1v53.4c-26.9,66-80.5,118.2-147.3,143.3c-11,4.1-22.5,7.5-34.2,10.1c-17.9,4-36.6,6.1-55.7,6.1
	l-46.1-5.2V299.1c0-14.1,11.4-25.5,25.5-25.5h232.2C481.8,273.6,493.2,285,493.2,299.1z"/>
<path class="st11" d="M345.9,476.8v19c-11,4.1-22.5,7.5-34.2,10.1c-17.9,4-36.6,6.1-55.7,6.1c-12.4,0-24.7-0.9-36.7-2.6
	c-7.8-1.1-15.5-2.6-23.1-4.4c-3.5-0.8-7-1.7-10.4-2.7c-0.2,0-0.3-0.1-0.5-0.1c-4-1.1-7.9-2.4-11.8-3.7c-9.9-3.4-19.6-7.3-28.9-11.9
	c-6.2-3-12.3-6.3-18.2-9.8H345.9z"/>
<path class="st12" d="M493.2,299.1v53.4c-26.9,66-80.5,118.2-147.3,143.3c-11,4.1-22.5,7.5-34.2,10.1c-17.9,4-36.6,6.1-55.7,6.1
	h-31.4V299.1c0-14.1,11.4-25.5,25.5-25.5h217.6C481.8,273.6,493.2,285,493.2,299.1z"/>
<path class="st9" d="M385,392.1c0,14.4-11.7,26.1-26.1,26.1s-26.1-11.7-26.1-26.1c0-14.4,11.7-26.1,26.1-26.1S385,377.7,385,392.1z"
	/>
</svg>
