<?xml version="1.0" encoding="utf-8"?>
<!-- Generator: Adobe Illustrator 23.0.5, SVG Export Plug-In . SVG Version: 6.00 Build 0)  -->
<svg version="1.1" xmlns="http://www.w3.org/2000/svg" xmlns:xlink="http://www.w3.org/1999/xlink" x="0px" y="0px"
	 viewBox="0 0 435.01 435.01" style="enable-background:new 0 0 435.01 435.01;" xml:space="preserve">
<style type="text/css">
	.st0{display:none;}
	.st1{display:inline;fill:#00C8B7;}
	.st2{opacity:0.75;fill:#E25252;}
	.st3{opacity:0.73;fill:#E25252;}
	.st4{fill:#FFB031;}
	.st5{fill:#FF9433;}
	.st6{fill:#FF7733;}
	.st7{fill:#E25252;}
	.st8{fill:#7A4C08;}
	.st9{fill:#FFFFFF;}
	.st10{fill:#E6E8E8;}
	.st11{fill:#D9DBDB;}
	.st12{fill:#BF4747;}
	.st13{opacity:0.6;fill:#E25252;}
</style>
<g id="BACKGROUND" class="st0">
	<rect x="-32.49" y="-32.49" class="st1" width="500" height="500"/>
</g>
<g id="OBJECTS">
	<g>
		<g>
			<g>
				<g>
					<g>
						
							<ellipse transform="matrix(0.7071 -0.7071 0.7071 0.7071 -97.8596 219.1877)" class="st2" cx="215.65" cy="227.72" rx="136.83" ry="136.83"/>
						<path class="st3" d="M327.41,260.61v46c-5.04,7.13-10.71,13.71-16.98,19.75v-65.75h-0.03v-0.16
							c-0.08-0.34-8.33-7.18-14.68-12.38v-2.87l7.68-1.99c3.16-0.81,6.48-0.55,9.43,0.73c1.33,0.57,2.72,1.12,4.1,1.57v6.01
							c6.35,5.2,10.37,8.59,10.45,8.93v0.16H327.41z"/>
					</g>
					<g>
						<g>
							<polygon class="st4" points="20.91,52.16 61.06,146.38 90.41,126.3 107.42,151.01 110.49,109.33 146,87.68 							"/>
							<polygon class="st5" points="96.92,121.84 61.06,146.38 90.41,126.3 107.42,151.01 110.49,109.33 53.89,75.62 							"/>
							<polygon class="st6" points="109.73,119.54 53.89,75.62 110.49,109.33 							"/>
						</g>
						<g>
							<path class="st7" d="M108.14,162.76c-0.32-1.84-0.72-3.67-1.19-5.44l2.75-0.74c0.5,1.86,0.92,3.78,1.25,5.7L108.14,162.76z"
								/>
							<path class="st7" d="M74.89,226.76c-4.14-0.28-8.1-1.6-11.45-3.82l1.58-2.37c2.94,1.95,6.42,3.11,10.06,3.35L74.89,226.76z
								 M86.73,224.43l-1.26-2.56c2.96-1.46,5.83-3.72,8.53-6.71l2.12,1.9C93.18,220.33,90.02,222.82,86.73,224.43z M55.51,213.84
								c-1.61-3.26-2.46-6.84-2.46-10.36c0-0.29,0.01-0.58,0.02-0.87L53.1,202l2.84,0.21l-0.03,0.52c-0.01,0.26-0.02,0.51-0.02,0.76
								c0,3.08,0.75,6.23,2.16,9.09L55.51,213.84z M165.79,213.18l-0.01-2.85c3.71-0.02,7.53-0.17,11.35-0.45l0.21,2.84
								C173.45,213.01,169.57,213.17,165.79,213.18z M154.23,212.81l-1.82-0.14c-3.5-0.29-6.68-0.69-9.71-1.21l0.48-2.81
								c2.95,0.51,6.04,0.89,9.46,1.18l1.78,0.13L154.23,212.81z M188.82,211.51l-0.38-2.83c3.67-0.5,7.44-1.12,11.23-1.85l0.54,2.8
								C196.37,210.37,192.54,211.01,188.82,211.51z M131.37,208.63c-3.35-1.14-6.49-2.53-9.33-4.14c-0.45-0.25-0.89-0.51-1.33-0.78
								l1.47-2.44c0.42,0.25,0.83,0.5,1.26,0.73c2.69,1.52,5.67,2.84,8.86,3.92L131.37,208.63z M102.93,207.5l-2.47-1.42
								c1.85-3.21,3.43-6.63,4.7-10.16l2.68,0.97C106.51,200.57,104.86,204.14,102.93,207.5z M211.47,207.18l-0.67-2.77
								c3.56-0.86,7.27-1.85,11.02-2.92l0.79,2.74C218.82,205.32,215.08,206.31,211.47,207.18z M233.62,200.87l-0.88-2.71
								c3.62-1.17,7.23-2.4,10.81-3.68l0.95,2.69C240.9,198.45,237.27,199.69,233.62,200.87z M111.19,197.11
								c-2.62-1.91-5.44-3.92-8.49-5.58l-0.95-0.51l1.31-2.53c0.34,0.17,0.68,0.35,1.01,0.54c3.2,1.75,6.22,3.9,8.8,5.78
								L111.19,197.11z M59.94,192.83l-1.99-2.04c2.51-2.46,5.94-4.3,10.49-5.63l0.96,2.69C65.21,189.08,62.08,190.73,59.94,192.83z
								 M91.34,187.26c-3.24-0.73-6.56-1.09-9.88-1.09l-1.16,0.02l-0.07-2.85c3.92-0.1,7.88,0.29,11.73,1.15L91.34,187.26z
								 M110.85,185.58l-2.81-0.5c0.65-3.68,0.99-7.44,1.01-11.16l2.85,0.01C111.89,177.82,111.53,181.74,110.85,185.58z"/>
							<path class="st7" d="M255.42,193.15l-1.01-2.66c1.77-0.68,3.55-1.36,5.31-2.05l1.04,2.66
								C258.98,191.78,257.2,192.47,255.42,193.15z"/>
						</g>
						<path class="st7" d="M345.15,262.62c-1.45,0-2.69-1.1-2.83-2.58c-0.15-1.57,0.99-2.96,2.56-3.11
							c17.23-1.67,33.07-9.89,44.62-23.15c1.04-1.19,2.84-1.31,4.02-0.28c1.19,1.03,1.31,2.83,0.28,4.02
							c-12.51,14.37-29.69,23.28-48.37,25.08C345.33,262.61,345.24,262.62,345.15,262.62z"/>
						<g>
							<g>
								<path class="st8" d="M310.41,260.61l-99.3,58.56l-99.3-58.56c0-0.05,0-0.11,0.02-0.16c0.08-0.37,5.56-4.95,13.92-11.74
									c0.08-0.06,0.15-0.13,0.23-0.19c27.42-22.26,85.14-67.85,85.14-67.85s57.72,45.59,85.14,67.85
									c8.49,6.89,14.07,11.54,14.15,11.93C310.41,260.5,310.41,260.57,310.41,260.61z"/>
								<g>
									<path class="st9" d="M251.95,132.17H144.81c-9.19,0-16.64,7.45-16.64,16.64V310.8c0,9.19,7.45,16.64,16.64,16.64h134.25
										c9.19,0,16.64-7.45,16.64-16.64V175.92L251.95,132.17z"/>
									<path class="st10" d="M251.95,159.28c0,9.19,7.45,16.64,16.64,16.64h27.11l-43.75-43.75V159.28z"/>
									<path class="st2" d="M199.64,159.55h-43.42c-1.49,0-2.7,1.21-2.7,2.7v43.42c0,1.49,1.21,2.7,2.7,2.7h43.42
										c1.49,0,2.7-1.21,2.7-2.7v-43.42C202.33,160.76,201.13,159.55,199.64,159.55z"/>
									<path class="st11" d="M247.04,221.94h-88.69c-2.64,0-4.78,2.14-4.78,4.78l0,0c0,2.64,2.14,4.78,4.78,4.78h88.69
										c2.64,0,4.78-2.14,4.78-4.78l0,0C251.82,224.07,249.68,221.94,247.04,221.94z"/>
									<path class="st11" d="M247.04,245.73h-88.69c-2.64,0-4.78,2.14-4.78,4.78l0,0c0,2.64,2.14,4.78,4.78,4.78h88.69
										c2.64,0,4.78-2.14,4.78-4.78l0,0C251.82,247.86,249.68,245.73,247.04,245.73z"/>
									<path class="st11" d="M206.76,268.81h-48.41c-2.64,0-4.78,2.14-4.78,4.78l0,0c0,2.64,2.14,4.78,4.78,4.78h48.41
										c2.64,0,4.78-2.14,4.78-4.78l0,0C211.54,270.94,209.4,268.81,206.76,268.81z"/>
								</g>
								<g>
									<path class="st4" d="M310.42,260.61v95.27c0,6.66-5.44,12.1-12.1,12.1H123.89c-6.66,0-12.07-5.44-12.07-12.1v-95.27
										l99.3,58.55L310.42,260.61z"/>
									<path class="st5" d="M307.07,364.18l-63.91-63.91l-32.03,18.89l-32.04-18.89l-63.92,63.92c2.2,2.32,5.29,3.79,8.73,3.79
										h174.43C301.76,367.98,304.86,366.51,307.07,364.18z"/>
								</g>
							</g>
						</g>
						<g>
							<g>
								<path class="st7" d="M330.48,129.84c-28.59,2.81-51.42,26.37-53.47,55.02c-1.02,14.26,3.02,27.5,10.46,38.22
									c2.8,4.04,3.26,9.25,1.38,13.79l-4.71,11.35l19.27-5c3.14-0.81,6.46-0.56,9.43,0.73c8.93,3.87,18.99,5.64,29.56,4.62
									c28.06-2.72,50.76-25.37,53.47-53.43C399.51,157.49,368.13,126.14,330.48,129.84z"/>
								<g>
									<path class="st9" d="M337.99,219.34l3.28-3.28c0,0-2.6-6.14,8.31-16.49c6.5-6.16,7.95-12.12,7.42-17
										c-0.84-7.76-7.18-14.1-14.94-14.94c-4.88-0.53-10.84,0.93-17,7.42c-10.35,10.92-16.49,8.31-16.49,8.31l-3.28,3.28
										L337.99,219.34z"/>
									<path class="st9" d="M312.69,199.31c-2.59,3.54-2.3,8.53,0.9,11.73c3.2,3.2,8.19,3.49,11.73,0.9L312.69,199.31z"/>
									<path class="st9" d="M359.29,171.61l-2.04,2.04c-1.59-2.53-3.75-4.69-6.29-6.26l2.06-2.06c1.74-1.74,4.55-1.74,6.29,0
										C361.03,167.06,361.03,169.87,359.29,171.61z"/>
								</g>
							</g>
							<path class="st12" d="M334.9,129.58c21.25,6.36,36.74,26.04,36.74,49.36c0,28.47-23.08,51.54-51.54,51.54
								c-15,0-28.45-6.44-37.87-16.67c1.48,3.25,3.23,6.35,5.24,9.25c2.8,4.04,3.26,9.25,1.38,13.79l-4.71,11.35l19.27-5
								c3.14-0.81,6.46-0.56,9.43,0.73c8.93,3.87,18.99,5.64,29.56,4.62c28.06-2.72,50.76-25.37,53.47-53.43
								C399.37,158.97,370.55,128.65,334.9,129.58z"/>
						</g>
						<path class="st4" d="M24.31,80.1l13.02,29.89c0.66,1.52-0.04,3.3-1.56,3.95l-0.46,0.2c-1.53,0.66-3.31-0.05-3.96-1.59
							L18.79,82.46c-0.66-1.58,0.12-3.39,1.73-3.98l0,0C22.01,77.93,23.68,78.64,24.31,80.1z"/>
					</g>
				</g>
				<g>
					<path class="st13" d="M75.34,290.43c-5.29,0-9.58,4.29-9.58,9.58c0,5.29,4.29,9.58,9.58,9.58s9.58-4.29,9.58-9.58
						C84.91,294.72,80.62,290.43,75.34,290.43z M75.34,303.88c-2.14,0-3.88-1.74-3.88-3.88c0-2.14,1.74-3.88,3.88-3.88
						c2.14,0,3.88,1.74,3.88,3.88C79.21,302.15,77.48,303.88,75.34,303.88z"/>
					<path class="st13" d="M331.93,329.18c-5.29,0-9.58,4.29-9.58,9.58c0,5.29,4.29,9.58,9.58,9.58c5.29,0,9.58-4.29,9.58-9.58
						C341.51,333.47,337.22,329.18,331.93,329.18z M331.93,342.63c-2.14,0-3.88-1.74-3.88-3.88c0-2.14,1.74-3.88,3.88-3.88
						c2.14,0,3.88,1.74,3.88,3.88C335.81,340.9,334.07,342.63,331.93,342.63z"/>
					<path class="st13" d="M410.27,180.46c-4.05,0-7.33,3.28-7.33,7.33c0,4.05,3.28,7.33,7.33,7.33c4.05,0,7.33-3.28,7.33-7.33
						C417.6,183.74,414.32,180.46,410.27,180.46z M410.27,190.75c-1.64,0-2.97-1.33-2.97-2.97c0-1.64,1.33-2.97,2.97-2.97
						c1.64,0,2.97,1.33,2.97,2.97C413.24,189.43,411.91,190.75,410.27,190.75z"/>
					<path class="st13" d="M281.17,63.17c-4.28,0-7.75,3.47-7.75,7.75c0,4.28,3.47,7.75,7.75,7.75c4.28,0,7.75-3.47,7.75-7.75
						C288.92,66.64,285.45,63.17,281.17,63.17z M281.17,74.06c-1.73,0-3.14-1.4-3.14-3.14c0-1.73,1.4-3.14,3.14-3.14
						c1.73,0,3.14,1.4,3.14,3.14C284.31,72.66,282.91,74.06,281.17,74.06z"/>
					<path class="st13" d="M33.21,243.79c-4.5,0-8.15,3.65-8.15,8.15c0,4.5,3.65,8.15,8.15,8.15c4.5,0,8.15-3.65,8.15-8.15
						C41.36,247.44,37.71,243.79,33.21,243.79z"/>
					<path class="st13" d="M360.2,270.77c-3.27,0-5.93,2.65-5.93,5.93s2.65,5.93,5.93,5.93c3.27,0,5.93-2.65,5.93-5.93
						S363.48,270.77,360.2,270.77z"/>
					<path class="st13" d="M163.9,65.61c-4.78,0-8.66,3.88-8.66,8.66s3.88,8.66,8.66,8.66s8.66-3.88,8.66-8.66
						S168.68,65.61,163.9,65.61z"/>
					<path class="st13" d="M210.28,379.44c-3.49,0-6.31,2.83-6.31,6.31c0,3.49,2.83,6.31,6.31,6.31c3.49,0,6.31-2.83,6.31-6.31
						C216.59,382.27,213.77,379.44,210.28,379.44z"/>
					<path class="st13" d="M332.48,99.03c-4.09,0-7.41,3.32-7.41,7.41c0,4.09,3.32,7.41,7.41,7.41c4.09,0,7.41-3.32,7.41-7.41
						C339.89,102.34,336.58,99.03,332.48,99.03z"/>
					<circle class="st13" cx="70.02" cy="160.85" r="4.22"/>
					<path class="st13" d="M412.83,143.5c-3.97,0-7.2,3.22-7.2,7.2c0,3.97,3.22,7.2,7.2,7.2c3.97,0,7.2-3.22,7.2-7.2
						C420.03,146.72,416.81,143.5,412.83,143.5z"/>
					<circle class="st13" cx="29.17" cy="186.17" r="4.59"/>
					<path class="st13" d="M222.19,50.21l2.88-2.88c1-1,1-2.64,0-3.64c-1-1-2.64-1-3.64,0l-2.88,2.88l-2.88-2.88c-1-1-2.64-1-3.64,0
						c-1,1-1,2.64,0,3.64l2.88,2.88l-2.88,2.88c-1,1-1,2.64,0,3.64c1,1,2.64,1,3.64,0l2.88-2.88l2.88,2.88c1,1,2.64,1,3.64,0
						c1-1,1-2.64,0-3.64L222.19,50.21z"/>
					<path class="st13" d="M25.89,137.36l2.88-2.88c1-1,1-2.64,0-3.64c-1-1-2.64-1-3.64,0l-2.88,2.88l-2.88-2.88c-1-1-2.64-1-3.64,0
						c-1,1-1,2.64,0,3.64l2.88,2.88l-2.88,2.88c-1,1-1,2.64,0,3.64c1,1,2.64,1,3.64,0l2.88-2.88l2.88,2.88c1,1,2.64,1,3.64,0
						c1-1,1-2.64,0-3.64L25.89,137.36z"/>
					<path class="st13" d="M366,313.45l2.44-2.44c0.85-0.85,0.85-2.23,0-3.08c-0.85-0.85-2.23-0.85-3.08,0l-2.44,2.44l-2.44-2.44
						c-0.85-0.85-2.23-0.85-3.08,0c-0.85,0.85-0.85,2.23,0,3.08l2.44,2.44l-2.44,2.44c-0.85,0.85-0.85,2.23,0,3.08
						c0.85,0.85,2.23,0.85,3.08,0l2.44-2.44l2.44,2.44c0.85,0.85,2.23,0.85,3.08,0c0.85-0.85,0.85-2.23,0-3.08L366,313.45z"/>
				</g>
			</g>
		</g>
	</g>
</g>
<g id="DESIGNED_BY_FREEPIK">
</g>
</svg>
