<?xml version="1.0" encoding="utf-8"?>
<!-- Generator: Adobe Illustrator 24.0.2, SVG Export Plug-In . SVG Version: 6.00 Build 0)  -->
<svg version="1.1" id="Layer_1" xmlns="http://www.w3.org/2000/svg" xmlns:xlink="http://www.w3.org/1999/xlink" x="0px" y="0px"
	 viewBox="0 0 876.9 178" style="enable-background:new 0 0 876.9 178;" xml:space="preserve">
<style type="text/css">
	.st0{fill:#E25152;}
</style>
<g>
	<path class="st0" d="M58.9,81.5H41.6v35.3h-5.2V36.3h22.4c18.5,0,26.4,9.4,26.4,22.7C85.2,73,76.6,81.5,58.9,81.5z M58.9,76.9
		c15.4,0,21.2-7,21.2-17.9c0-11.4-5.9-18.1-21.2-18.1H41.6v36H58.9z"/>
	<path class="st0" d="M104.3,116.9h-5.2V54.6h5.2v12.9c3.1-9.1,10.8-14.1,23.1-14.1v5.4h-1.7c-10.7,0-21.3,5.3-21.3,22.3V116.9z"/>
	<path class="st0" d="M166.7,117.8c-17.4,0-30.6-12.2-30.6-32.1c0-19.9,13.4-31.9,30.9-31.9s30.6,12,30.6,31.9
		C197.6,105.6,184.2,117.8,166.7,117.8z M166.7,113.2c13.1,0,25.7-8.6,25.7-27.5c0-18.8-12.5-27.4-25.6-27.4s-25.5,8.6-25.5,27.4
		C141.4,104.6,153.6,113.2,166.7,113.2z"/>
	<path class="st0" d="M219.4,54.6v78.4c0,8.6-4,13.3-13.7,13.3h-4.8v-4.6h4.2c6.2,0,9.1-2.2,9.1-9.2V54.6H219.4z M212.4,36.2
		c0-2.6,2-4.5,4.4-4.5s4.5,1.8,4.5,4.5c0,2.8-2.1,4.5-4.5,4.5S212.4,38.9,212.4,36.2z"/>
	<path class="st0" d="M265.3,117.8c-17.4,0-30.3-12.2-30.3-32.1c0-19.9,12.6-31.9,30.3-31.9c18.7,0,29,13.3,29,27.8
		c0,2.8,0,4.1-0.2,6.2h-53.8c0.5,17.3,12.2,25.6,25,25.6c12.3,0,21.1-6.5,23.2-16.9h5.4C291.4,108.7,281.2,117.8,265.3,117.8z
		 M240.3,83.5h48.9c0.8-17.3-11.4-25.4-24-25.4C252.4,58.1,240.8,66.3,240.3,83.5z"/>
	<path class="st0" d="M336.9,53.7c15.8,0,26.2,8.6,28.6,21.6h-5.4c-2.1-10.7-11-17.2-23.2-17.2c-13.3,0-24.9,8.8-24.9,27.5
		c0,18.8,11.6,27.7,24.9,27.7c12.2,0,21.1-6.4,23.2-17.2h5.4c-2.4,12.7-12.7,21.7-28.6,21.7c-17.6,0-30.2-12.2-30.2-32.1
		C306.7,65.8,319.3,53.7,336.9,53.7z"/>
	<path class="st0" d="M383.7,59h-9.4v-4.5h9.4V38.7h5.2v15.8h18.5V59h-18.5v41.2c0,9.4,3.1,12,11.5,12h7v4.6h-7.8
		c-10.7,0-15.8-4.4-15.8-16.6V59z"/>
	<path class="st0" d="M480.2,35.4c19.2,0,33.6,10.8,38.2,28.2h-21.6c-3.3-6.9-9.4-10.3-16.9-10.3c-12,0-20.3,9-20.3,23.2
		s8.3,23.2,20.3,23.2c7.5,0,13.5-3.4,16.9-10.3h21.6c-4.6,17.4-19,28.1-38.2,28.1c-23.8,0-40.5-16.9-40.5-41S456.5,35.4,480.2,35.4z
		"/>
	<path class="st0" d="M559.6,117.8c-18.8,0-33-12.6-33-32.9c0-20.3,14.6-32.9,33.3-32.9c18.8,0,33.3,12.6,33.3,32.9
		C593.1,105.2,578.4,117.8,559.6,117.8z M559.6,100.8c7,0,13.5-5.2,13.5-16c0-10.9-6.4-15.9-13.3-15.9c-7.1,0-13.3,5-13.3,15.9
		C546.5,95.6,552.5,100.8,559.6,100.8z"/>
	<path class="st0" d="M623.2,116.9h-19.6v-64h19.6v10.7c4.5-6.8,11.5-11.4,20.1-11.4v20.8h-5.4c-9.3,0-14.7,3.2-14.7,14.2V116.9z"/>
	<path class="st0" d="M696.9,82.1c0-8.7-4.8-13.5-12.3-13.5s-12.3,4.8-12.3,13.5v34.8h-19.6v-64h19.6v8.5c3.9-5.4,10.8-9.2,19.4-9.2
		c14.8,0,24.7,10.1,24.7,27.3v37.4h-19.5V82.1z"/>
	<path class="st0" d="M758.5,117.8c-18.8,0-32.4-12.6-32.4-32.9c0-20.3,13.3-32.9,32.4-32.9c18.7,0,31.9,12.4,31.9,31.9
		c0,1.8-0.1,3.8-0.3,5.7h-44.4c0.7,8.4,5.9,12.3,12.2,12.3c5.5,0,8.6-2.8,10.2-6.2h20.9C785.8,108.1,774.4,117.8,758.5,117.8z
		 M745.7,78.7h24.6c0-7-5.5-11-12-11C751.8,67.6,746.9,71.5,745.7,78.7z"/>
	<path class="st0" d="M820.3,116.9h-19.6v-64h19.6v10.7c4.5-6.8,11.5-11.4,20.1-11.4v20.8H835c-9.3,0-14.7,3.2-14.7,14.2V116.9z"/>
</g>
</svg>
