<?xml version="1.0" encoding="utf-8"?>
<!-- Generator: Adobe Illustrator 24.0.2, SVG Export Plug-In . SVG Version: 6.00 Build 0)  -->
<svg version="1.1" xmlns="http://www.w3.org/2000/svg" xmlns:xlink="http://www.w3.org/1999/xlink" x="0px" y="0px"
	 viewBox="0 0 490.1 717.7" style="enable-background:new 0 0 490.1 717.7;" xml:space="preserve">
<style type="text/css">
	.st0{display:none;fill:#E25252;}
	.st1{fill:#E25252;}
	.st2{opacity:0.87;fill:#333333;}
	.st3{fill:#C95050;}
	.st4{fill:#FFFFFF;}
	.st5{font-family:'OpenSans-ExtraBold';}
	.st6{font-size:12px;}
</style>
<g id="Layer_2">
	<rect class="st0" width="490.1" height="717.7"/>
</g>
<g id="bf4e4837-25b8-4dca-836a-dd4921ba630c">
	<g>
		
			<image style="overflow:visible;opacity:0.34;" width="390" height="738" xlink:href="B71973BD29D8C562.png"  transform="matrix(1 0 0 1 51.9646 -5.3152)">
		</image>
		<g>
			<g>
				<path class="st1" d="M295.8,306.3c-1.5-19.2-3.4-38.4-5.4-57.6c-0.7-6.3-10.7-6.4-10,0c2.1,19.2,3.9,38.4,5.4,57.6
					C286.3,312.6,296.3,312.7,295.8,306.3z"/>
				<path class="st1" d="M218.7,266.5c-1.5,10.7-2.4,21.3-2.7,32c0,0-0.1,0-0.1,0l-5.9-0.5c-0.1-0.8-0.1-1.7-0.2-2.5
					c0-0.7,0-1.4,0-2.1c0.5-0.3,1.1-0.6,1.6-0.9c4.1-2.3,2.7-7.1-0.7-8.6c0.5-2.8,1.3-5.5,2.3-8.2c1-2.7,3.3-8.9,6.3-12.5
					c0.2-0.2,0.4-0.4,0.6-0.6c1.2-1.3,2.6-2.1,4-2.1c6.4,0,6.4-10,0-10c-4.2,0-7.6,1.9-10.3,4.7c-25.6,9.4-51.2,18.8-76.8,28.2
					c-4.9,1.8-4.7,10.5,1.3,9.8c7.8-0.9,15.6-1.7,23.4-2.6c-5.6,2-2.7,10.4,3.3,9.5c6-0.9,12-1.8,18-2.7c-3.8,2.8-1.5,8.6,3,9
					c0,0,0,0,0,0c-3.4,1.1-6.9,2.3-10.3,3.5c-4.2,1.5-5.3,8.7,0,9.6c10.7,1.8,21.4,3.2,32.2,4.2c2.9,5.1,6.5,9.9,10.7,14.1
					c2.9,2.8,8.9,0.9,8.5-3.5c-0.3-3.7-0.6-7.5-0.8-11.3c1.9-2,1.4-4.7-0.3-6.4c-0.5-15.8,0.3-31.6,2.4-47.3
					C229.2,262.9,219.5,260.2,218.7,266.5z M215.8,308.7c0,1.9,0,3.7,0.1,5.6c-0.6,0-1.2-0.1-1.8-0.1c-0.7-1.5-1.3-3.1-1.8-4.7
					C213.4,309.2,214.6,308.9,215.8,308.7z M178.1,278.7l26.9-9.9c-1,2.4-1.9,4.8-2.6,7.2L178.1,278.7z M199.2,312.7
					c1.1-0.3,2.3-0.6,3.4-0.9c0.1,0.4,0.3,0.9,0.4,1.3C201.7,313,200.5,312.9,199.2,312.7z"/>
				<path id="fe7ea4cb-bc3a-4b8d-a4ea-d66dad23bcdf_12_" class="st2" d="M420.4,176.3h-3.8V71.6c0-33.5-27.1-60.6-60.6-60.6H134.2
					c-33.5,0-60.6,27.1-60.6,60.6v574.3c0,33.5,27.1,60.6,60.6,60.6H356c33.5,0,60.6-27.1,60.6-60.6V250.8h3.8L420.4,176.3z"/>
				<path id="eacd08e9-88f4-437e-9f6d-ef6f76b30d28_12_" class="st3" d="M358.4,26.8h-29c4.5,11-0.8,23.5-11.8,28
					c-2.6,1.1-5.3,1.6-8.1,1.6H182.5c-11.9,0-21.5-9.6-21.5-21.5c0-2.8,0.5-5.5,1.6-8.1h-27c-25,0-45.3,20.3-45.3,45.3l0,0v573.5
					c0,25,20.3,45.3,45.3,45.3h222.9c25,0,45.3-20.3,45.3-45.3l0,0V72C403.7,47,383.4,26.8,358.4,26.8L358.4,26.8z"/>
				<g>
					<g id="title_10_">
						<path id="path211559_13_" class="st4" d="M123.1,305.5v20.7c0,0.4,0.3,0.8,0.8,0.8h0.2c0.4,0,0.8-0.3,0.8-0.8v-20.7
							c0-0.4,0.3-0.8,0.8-0.8h7c0.4,0,0.8-0.3,0.8-0.8v0c0-0.4-0.3-0.8-0.8-0.8h-17.3c-0.4,0-0.8,0.3-0.8,0.8v0
							c0,0.4,0.3,0.8,0.8,0.8h7C122.7,304.7,123.1,305.1,123.1,305.5z"/>
						<path id="path211561_13_" class="st4" d="M152.2,314.1h-13.8c-0.4,0-0.8,0.3-0.8,0.8v0c0,0.4,0.3,0.8,0.8,0.8h13.8
							c0.4,0,0.8-0.3,0.8-0.8v0C152.9,314.4,152.6,314.1,152.2,314.1z M152.2,303.2h-13.8c-0.4,0-0.8,0.3-0.8,0.8v0
							c0,0.4,0.3,0.8,0.8,0.8h13.8c0.4,0,0.8-0.3,0.8-0.8v0C152.9,303.5,152.6,303.2,152.2,303.2z M137.6,326.1L137.6,326.1
							c0,0.5,0.3,0.8,0.8,0.8h13.8c0.4,0,0.8-0.3,0.8-0.8v0c0-0.4-0.3-0.8-0.8-0.8h-13.8C137.9,325.4,137.6,325.7,137.6,326.1z"/>
						<path id="path211563_13_" class="st4" d="M168.5,303.2h-0.8c-0.3,0-0.6,0.2-0.7,0.4l-10.2,22.2c-0.2,0.5,0.1,1.1,0.7,1.1h0.2
							c0.3,0,0.6-0.2,0.7-0.4l9-19.9c0.3-0.6,1.1-0.6,1.4,0l9,19.9c0.1,0.3,0.4,0.4,0.7,0.4h0.2c0.6,0,0.9-0.6,0.7-1.1l-10.2-22.2
							C169.1,303.4,168.8,303.2,168.5,303.2z"/>
						<path id="path211565_13_" class="st4" d="M207.4,326.9h0.2c0.4,0,0.8-0.3,0.8-0.8l0-22.2c0-0.4-0.3-0.8-0.8-0.8h-0.2
							c-0.3,0-0.5,0.1-0.7,0.4l-9.7,16.8c-0.3,0.5-1,0.5-1.3,0l-9.7-16.8c-0.1-0.2-0.4-0.4-0.7-0.4H185c-0.4,0-0.8,0.3-0.8,0.8v22.2
							c0,0.4,0.3,0.8,0.8,0.8h0.2c0.4,0,0.8-0.3,0.8-0.8v-16.7c0-0.8,1-1,1.4-0.4l8.5,14.7h0.8l8.5-14.7c0.4-0.7,1.4-0.4,1.4,0.4
							l0,16.7C206.7,326.6,207,326.9,207.4,326.9z"/>
						<path id="path211567_13_" class="st4" d="M217.9,326.2c1.6,0.6,3.3,0.9,5,0.9c1.6,0.1,3.2-0.2,4.7-0.8
							c1.2-0.5,2.2-1.2,2.8-2.3c0.6-0.9,0.9-2,0.9-3.2c0-1.4-0.4-2.5-1.1-3.3c-0.7-0.8-1.6-1.5-2.6-1.9c-1.4-0.5-2.8-0.9-4.2-1.2
							c-1.3-0.3-2.5-0.6-3.7-1.1c-0.9-0.3-1.6-0.8-2.3-1.5c-0.6-0.7-1-1.6-0.9-2.5c0-1.3,0.6-2.6,1.7-3.4c1.1-0.9,2.8-1.3,5-1.3
							c1.1,0,2.3,0.2,3.4,0.5c0.8,0.2,1.7,0.6,2.4,1c0.4,0.2,0.9,0.1,1.1-0.3l0,0c0.2-0.3,0-0.8-0.3-1c-0.9-0.5-1.8-0.9-2.7-1.2
							c-1.3-0.4-2.6-0.6-3.9-0.6c-1.6,0-3.2,0.2-4.7,0.8c-1.1,0.5-2.1,1.3-2.8,2.3c-0.6,0.9-0.9,2-0.9,3.2c0,1.4,0.3,2.6,1.1,3.4
							c0.7,0.8,1.7,1.5,2.7,1.9c1.4,0.5,2.8,0.9,4.2,1.3c1.2,0.3,2.5,0.6,3.7,1.1c0.9,0.3,1.6,0.8,2.3,1.5c0.6,0.7,1,1.6,0.9,2.5
							c0,1.3-0.6,2.6-1.7,3.4c-1.2,0.9-2.9,1.3-5.1,1.3c-1.5,0-3-0.3-4.5-0.8c-1.3-0.5-2.4-1.2-3.4-2.2l-0.5,0.8
							c-0.2,0.3-0.1,0.7,0.1,0.9C215.6,325.1,216.7,325.8,217.9,326.2z"/>
						<path id="path211569_13_" class="st4" d="M237.3,303.9v22.2c0,0.4,0.3,0.8,0.8,0.8h13.9c0.4,0,0.8-0.3,0.8-0.8v0
							c0-0.4-0.3-0.8-0.8-0.8h-12.2c-0.4,0-0.8-0.3-0.8-0.8v-20.7c0-0.4-0.3-0.8-0.8-0.8H238C237.6,303.2,237.3,303.5,237.3,303.9z"
							/>
						<path id="path211571_13_" class="st4" d="M260.4,325.5c1.9,1.1,4.1,1.6,6.3,1.6c2.2,0,4.4-0.5,6.3-1.6c1.8-1,3.4-2.5,4.4-4.3
							c1.1-1.9,1.6-4,1.6-6.2c0-2.2-0.5-4.3-1.6-6.2c-1.1-1.8-2.6-3.3-4.4-4.3c-1.9-1-4.1-1.6-6.3-1.6c-2.2,0-4.4,0.5-6.3,1.6
							c-1.8,1-3.4,2.5-4.4,4.3c-1.1,1.9-1.6,4-1.6,6.1c0,2.2,0.5,4.3,1.6,6.1C257.1,323,258.6,324.5,260.4,325.5z M272.1,324.1
							c-3.4,1.8-7.4,1.8-10.8,0c-1.6-0.9-2.9-2.2-3.8-3.7c-0.9-1.6-1.4-3.5-1.4-5.3c0-1.9,0.4-3.7,1.4-5.3c0.9-1.6,2.2-2.9,3.8-3.8
							c3.4-1.8,7.4-1.8,10.8,0c3.3,1.9,5.2,5.3,5.2,9.1c0,1.9-0.5,3.7-1.4,5.4C275,322,273.7,323.3,272.1,324.1z"/>
						<path id="path211573_13_" class="st4" d="M287.4,324.5c1.7,1.8,4,2.6,7,2.6s5.3-0.8,7-2.6c1.7-1.8,2.5-4.3,2.5-7.6v-12.9
							c0-0.4-0.3-0.8-0.8-0.8h-0.2c-0.4,0-0.8,0.3-0.8,0.8v12.8c0,2.9-0.7,5.1-2,6.5c-1.3,1.4-3.3,2.2-5.8,2.2
							c-2.5,0-4.5-0.7-5.8-2.2c-1.3-1.5-2-3.6-2-6.5v-12.8c0-0.4-0.3-0.8-0.8-0.8h-0.2c-0.4,0-0.8,0.3-0.8,0.8v12.9
							C284.9,320.2,285.7,322.7,287.4,324.5z"/>
						<path id="path211575_13_" class="st4" d="M330.6,303.2h-0.2c-0.4,0-0.8,0.3-0.8,0.8v17.7c0,0.7-0.9,1-1.4,0.5l-14.6-18.6
							c-0.1-0.2-0.4-0.3-0.6-0.3h-0.3c-0.4,0-0.8,0.3-0.8,0.8v22.2c0,0.4,0.3,0.8,0.8,0.8h0.2c0.4,0,0.8-0.3,0.8-0.8v-17.7
							c0-0.7,0.9-1,1.4-0.5l14.6,18.6c0.1,0.2,0.4,0.3,0.6,0.3h0.3c0.4,0,0.8-0.3,0.8-0.8v-22.2C331.3,303.5,331,303.2,330.6,303.2z
							"/>
						<path id="path211577_13_" class="st4" d="M356.6,315.9v7c0,0.2-0.1,0.5-0.3,0.6c-1.7,1.3-3.9,1.9-6.4,1.9
							c-1.9,0-3.8-0.4-5.5-1.3c-1.6-0.9-2.9-2.2-3.9-3.8c-0.9-1.6-1.4-3.5-1.4-5.3c0-1.9,0.4-3.7,1.4-5.3c0.9-1.6,2.2-2.9,3.8-3.8
							c1.7-0.9,3.6-1.4,5.5-1.3c1.4,0,2.8,0.2,4.1,0.7c1,0.4,2,0.9,2.9,1.7c0.3,0.3,0.8,0.2,1-0.1l0.1-0.1c0.3-0.3,0.3-0.8-0.1-1.1
							c-0.9-0.8-2-1.4-3.2-1.9c-1.5-0.6-3.2-0.9-4.8-0.8c-2.2,0-4.4,0.5-6.4,1.5c-1.8,1-3.4,2.5-4.4,4.3c-1.1,1.9-1.6,4-1.6,6.2
							c0,2.2,0.5,4.3,1.6,6.2c1,1.8,2.6,3.3,4.4,4.3c2,1.1,4.2,1.6,6.4,1.6c1.6,0,3.2-0.2,4.7-0.8c1.3-0.4,2.5-1.1,3.5-2
							c0.2-0.1,0.3-0.4,0.3-0.6v-7.8c0-0.4-0.3-0.8-0.8-0.8h-0.2C356.9,315.2,356.6,315.5,356.6,315.9z"/>
						<path id="path211579_13_" class="st4" d="M380.4,314.1h-13.8c-0.4,0-0.8,0.3-0.8,0.8v0c0,0.4,0.3,0.8,0.8,0.8h13.8
							c0.4,0,0.8-0.3,0.8-0.8v0C381.2,314.4,380.9,314.1,380.4,314.1z M380.4,303.2h-13.8c-0.4,0-0.8,0.3-0.8,0.8v0
							c0,0.4,0.3,0.8,0.8,0.8h13.8c0.4,0,0.8-0.3,0.8-0.8v0C381.2,303.5,380.9,303.2,380.4,303.2z M365.8,326.1L365.8,326.1
							c0,0.5,0.3,0.8,0.8,0.8h13.8c0.4,0,0.8-0.3,0.8-0.8v0c0-0.4-0.3-0.8-0.8-0.8h-13.8C366.2,325.4,365.8,325.7,365.8,326.1z"/>
					</g>
				</g>
				<text transform="matrix(1 0 0 1 177.4941 634.9771)" class="st4 st5 st6">Coming Soon On Mobile</text>
			</g>
		</g>
	</g>
</g>
<g id="Layer_3">
</g>
</svg>
