<?xml version="1.0" encoding="utf-8"?>
<!-- Generator: Adobe Illustrator 24.0.2, SVG Export Plug-In . SVG Version: 6.00 Build 0)  -->
<svg version="1.1" id="Layer_1" xmlns="http://www.w3.org/2000/svg" xmlns:xlink="http://www.w3.org/1999/xlink" x="0px" y="0px"
	 viewBox="0 0 512 512" style="enable-background:new 0 0 512 512;" xml:space="preserve">
<style type="text/css">
	.st0{fill:#FFE152;}
	.st1{fill:#2BA1CF;}
	.st2{fill:#66BAED;}
	.st3{fill:#F2F0EC;}
	.st4{fill:#D8D5D0;}
	.st5{fill:#CC7A3B;}
	.st6{fill:#A35418;}
	.st7{fill:#EAB599;}
	.st8{fill:#F6CAAE;}
	.st9{fill:#3D4159;}
	.st10{fill:#FFFFFF;}
	.st11{fill:#BFD5DE;}
	.st12{fill:#DDE8ED;}
	.st13{fill:#D3A489;}
	.st14{fill:#F74F4F;}
	.st15{fill:#BF8E75;}
	.st16{fill:#2A2F4F;}
</style>
<path class="st0" d="M512,256c0,37.9-8.2,73.8-23,106.2c-25.2,55.3-69.5,100-124.5,125.8c-10,4.7-20.3,8.7-30.9,12.1
	c-11.9,3.8-24.3,6.8-36.9,8.8c-0.1,0-0.1,0-0.2,0c-6.2,1-12.5,1.8-18.8,2.3c-1.4,0.1-2.7,0.2-4.1,0.3c-1.9,0.1-3.8,0.2-5.8,0.3
	c-3.9,0.2-7.9,0.3-11.9,0.3c-4.1,0-8.2-0.1-12.2-0.3c-1.8-0.1-3.7-0.2-5.5-0.3c-1.4-0.1-2.7-0.2-4.1-0.3c-6.5-0.5-12.9-1.3-19.3-2.4
	c-3-0.5-6.1-1-9-1.6c-13-2.6-25.6-6.1-37.7-10.6c-7.1-2.6-14-5.4-20.7-8.6c-2.3-1.1-4.6-2.2-6.9-3.4c-5.8-2.9-11.5-6.1-17.1-9.5
	c-27.8-16.9-52.2-38.9-71.8-64.8C40,394.8,30,377.9,22,359.9C7.8,328.1,0,293,0,256C0,114.6,114.6,0,256,0S512,114.6,512,256z"/>
<path class="st1" d="M205.9,332.2v174.9c-13-2.6-25.6-6.1-37.7-10.6c-7.1-2.6-14-5.4-20.7-8.6c-2.3-1.1-4.6-2.2-6.9-3.4
	c-5.8-2.9-11.5-6.1-17.1-9.5c-27.8-16.9-52.2-38.9-71.8-64.8C40,394.8,30,377.9,22,359.9v-27.7c0-32.1,21.8-59.1,51.4-67
	c1.1-0.3,2.2-0.6,3.3-0.8c2.9-0.6,6-1.1,9-1.3c1.9-0.1,3.8-0.2,5.7-0.2h45.2c5,0,10,0.5,14.7,1.6c0.3,0.1,0.5,0.1,0.8,0.2
	c0.8,0.2,1.6,0.4,2.4,0.6c0,0,0,0,0.1,0c7.8,2.1,15.1,5.5,21.5,10C194.1,287.7,205.9,308.6,205.9,332.2z"/>
<path class="st2" d="M205.9,332.2v174.9c-13-2.6-25.6-6.1-37.7-10.6c-7.1-2.6-14-5.4-20.7-8.6c-2.3-1.1-4.6-2.2-6.9-3.4
	c-5.8-2.9-11.5-6.1-17.1-9.5c-27.8-16.9-52.2-38.9-71.8-64.8v-78.1c0-32.1,21.8-59.1,51.4-67c1.1-0.3,2.2-0.6,3.3-0.8
	c2.9-0.6,6-1.1,9-1.3c1.9-0.1,3.8-0.2,5.7-0.2h15.4c5,0,10,0.5,14.7,1.6c0.3,0.1,0.5,0.1,0.8,0.2c0.8,0.2,1.6,0.4,2.4,0.6
	c0,0,0,0,0.1,0c7.8,2.1,15.1,5.5,21.5,10C194.1,287.7,205.9,308.6,205.9,332.2z"/>
<path class="st3" d="M154.7,264.4l-0.2,0.8l-20.8,96.5c-2,9.3-10.2,16-19.6,16c-0.1,0-0.1,0-0.2,0c-0.1,0-0.1,0-0.2,0
	c-9.5,0-17.6-6.7-19.6-16l-20.8-96.5l-0.2-0.8H154.7z"/>
<path class="st4" d="M113.9,291.2l-31.2,17.4l-9.5-44.2L92.6,253"/>
<path class="st4" d="M113.9,291.2l31.2,17.4l9.5-44.2L135.3,253"/>
<path class="st5" d="M20.7,246.1V141.5c0-10.6,1.8-21.1,5.3-31c13.1-37.3,48.5-62.3,88-62.3c4.9,0,9.8,0.4,14.5,1.1
	c21.7,3.4,41.6,14.5,56.1,31.2c14.6,16.9,22.6,38.6,22.6,60.9v104.6"/>
<path class="st6" d="M59,145.6c0,37,21.7,79.8,33.6,100.6H20.7V141.5c0-10.6,1.8-21,5.3-31c13-37.1,48.1-62,87.3-62.3
	C84.6,48.9,59,94.9,59,145.6z"/>
<path class="st7" d="M138.7,236.1v30.4c0,11.1-7.3,20.5-17.4,23.6c-2.3,0.7-4.8,1.1-7.3,1.1c-13.7,0-24.8-11.1-24.8-24.8v-30.4
	H138.7z"/>
<path class="st8" d="M138.7,264.6v1.9c0,11.1-7.3,20.5-17.4,23.6c-9.1-2.8-16-10.7-17.2-20.4c1.7,0.1,3.3,0.2,5,0.2
	c4.7,0,9.3-0.4,13.7-1.1C128.3,267.9,133.6,266.5,138.7,264.6z"/>
<path class="st8" d="M46,186.3c0,11.5-8.4,21-19.3,22.7c-1.2,0.2-2.4,0.3-3.7,0.3c-12.7,0-23-10.3-23-23c0-12.7,10.3-23,23-23
	c1.3,0,2.5,0.1,3.7,0.3C37.7,165.4,46,174.9,46,186.3z"/>
<path class="st7" d="M46,186.3c0,11.5-8.4,21-19.3,22.7c-2-7.2-3.1-14.9-3.1-22.7c0-7.9,1.1-15.5,3.1-22.7
	C37.7,165.4,46,174.9,46,186.3z"/>
<path class="st7" d="M31.2,186.3c0,4.5-3.7,8.2-8.2,8.2c-4.5,0-8.2-3.7-8.2-8.2c0-4.5,3.7-8.2,8.2-8.2
	C27.6,178.1,31.2,181.8,31.2,186.3z"/>
<path class="st7" d="M173.1,156.9v79.1c-12.2,11.7-27.9,19.8-45.4,22.6c-0.1,0-0.3,0-0.4,0.1c-4.3,0.7-8.8,1-13.3,1
	c-47.3,0-85.6-38.3-85.6-85.6v-32.6c0-4.2,0.3-8.3,0.9-12.3c20.4,14.7,49.6,13.2,68.2-4.4c6.2-5.8,10.4-12.8,12.9-20.1
	c1.3,12.9,7.2,25.4,17.7,35.3C140.4,151.7,156.8,157.3,173.1,156.9z"/>
<path class="st8" d="M173.1,156.9v79.1c-12.2,11.7-27.9,19.8-45.4,22.6c-0.1,0-0.3,0-0.4,0.1c-41-6.4-72.3-41.9-72.3-84.6v-32.6
	c0-0.9,0-1.7,0-2.6c15.1,1.5,30.8-3.1,42.4-14.1c6.2-5.8,10.4-12.8,12.9-20.1c1.3,12.9,7.2,25.4,17.7,35.3
	C140.4,151.7,156.8,157.3,173.1,156.9z"/>
<path class="st7" d="M159.9,166.9c0-7.9-6.4-14.2-14.2-14.2s-14.2,6.4-14.2,14.2"/>
<path class="st7" d="M96.4,166.9c0-7.9-6.4-14.2-14.2-14.2S68,159,68,166.9"/>
<path class="st9" d="M91.9,172.9c0,5.4-4.4,9.7-9.7,9.7s-9.7-4.4-9.7-9.7s4.3-9.7,9.7-9.7S91.9,167.5,91.9,172.9z"/>
<path class="st9" d="M155.4,172.9c0,5.4-4.3,9.7-9.7,9.7s-9.7-4.4-9.7-9.7s4.3-9.7,9.7-9.7S155.4,167.5,155.4,172.9z"/>
<path class="st7" d="M123.7,197.4h-19.4c-2.3,0-4.2-1.9-4.2-4.2s1.9-4.2,4.2-4.2h19.4c2.3,0,4.2,1.9,4.2,4.2S126,197.4,123.7,197.4z
	"/>
<path class="st7" d="M114,223.9c-7.2,0-14.3-1.8-20.9-5.4c-1.8-1-2.5-3.3-1.5-5.2c1-1.8,3.3-2.5,5.2-1.5c10.8,5.9,23.6,5.9,34.4,0
	c1.8-1,4.2-0.3,5.2,1.5c1,1.8,0.3,4.2-1.5,5.2C128.3,222.1,121.1,223.9,114,223.9z"/>
<path class="st10" d="M89.9,171.2c0,2.3-1.9,4.2-4.2,4.2c-2.3,0-4.2-1.9-4.2-4.2s1.9-4.2,4.2-4.2C88.1,167,89.9,168.9,89.9,171.2z"
	/>
<path class="st10" d="M153.9,171.2c0,2.3-1.9,4.2-4.2,4.2c-2.3,0-4.2-1.9-4.2-4.2s1.9-4.2,4.2-4.2
	C152.1,167,153.9,168.9,153.9,171.2z"/>
<path class="st7" d="M172.2,196.6c0,5.9-4.8,10.7-10.7,10.7c-5.9,0-10.7-4.8-10.7-10.7c0-5.9,4.8-10.7,10.7-10.7
	C167.5,185.9,172.2,190.7,172.2,196.6z"/>
<path class="st7" d="M77,196.6c0,5.9-4.8,10.7-10.7,10.7c-5.9,0-10.7-4.8-10.7-10.7c0-5.9,4.8-10.7,10.7-10.7
	C72.2,185.9,77,190.7,77,196.6z"/>
<path class="st11" d="M489,330.1v32c-25.2,55.3-69.5,100-124.5,125.8c-10,4.7-20.3,8.7-30.9,12.1c-11.9,3.8-24.3,6.8-36.9,8.8
	c-0.1,0-0.1,0-0.2,0V330.1c0-38.1,29.3-69.3,66.7-72.3c2-0.2,3.9-0.2,5.9-0.2h47.3c5.6,0,11,0.6,16.3,1.8
	C464.9,266.7,489,295.6,489,330.1z"/>
<path class="st12" d="M489,330.1v32c-25.2,55.3-69.5,100-124.5,125.8c-10,4.7-20.3,8.7-30.9,12.1V330.1c0-40.1,32.5-72.6,72.6-72.6
	h10.2C456.5,257.5,489,290,489,330.1z"/>
<path class="st13" d="M321.7,177.5c0,12-8.8,21.9-20.2,23.8c-1.3,0.2-2.5,0.3-3.9,0.3c-13.3,0-24.1-10.8-24.1-24.1
	s10.8-24.1,24.1-24.1c1.3,0,2.6,0.1,3.9,0.3C313,155.5,321.7,165.5,321.7,177.5z"/>
<path class="st14" d="M412.3,283.7L392.8,315l-19.5-31.3"/>
<path class="st14" d="M419,403.3l-26.2,33.1l-26.2-33.1l26.2-96.4L419,403.3z"/>
<path class="st15" d="M321.7,177.5c0,12-8.8,21.9-20.2,23.8c-2.1-7.6-3.2-15.5-3.2-23.8c0-8.2,1.1-16.2,3.2-23.8
	C313,155.5,321.7,165.5,321.7,177.5z"/>
<path class="st15" d="M306.3,177.5c0,4.8-3.9,8.6-8.6,8.6s-8.6-3.9-8.6-8.6s3.9-8.6,8.6-8.6S306.3,172.7,306.3,177.5z"/>
<path class="st11" d="M392.8,287.2l-32.7,18.2l-9.9-46.2l20.3-12"/>
<path class="st11" d="M392.8,287.2l32.7,18.2l9.9-46.2l-20.3-12"/>
<path class="st13" d="M463.8,177.5c0,12,8.8,21.9,20.2,23.8c1.3,0.2,2.5,0.3,3.9,0.3c13.3,0,24.1-10.8,24.1-24.1
	s-10.8-24.1-24.1-24.1c-1.3,0-2.6,0.1-3.9,0.3C472.6,155.5,463.8,165.5,463.8,177.5z"/>
<g>
	<path class="st15" d="M463.8,177.5c0,12,8.8,21.9,20.2,23.8c2.1-7.6,3.2-15.5,3.2-23.8c0-8.2-1.1-16.2-3.2-23.8
		C472.6,155.5,463.8,165.5,463.8,177.5z"/>
	<path class="st15" d="M496.5,177.5c0,4.8-3.9,8.6-8.6,8.6s-8.6-3.9-8.6-8.6s3.9-8.6,8.6-8.6S496.5,172.7,496.5,177.5z"/>
	<path class="st15" d="M482.4,164.7c0,44.6-32.6,81.6-75.2,88.5c-4.7,0.8-9.5,1.2-14.4,1.2c-49.5,0-89.6-40.1-89.6-89.6
		c0-23.4,8.1-58.6,22.8-74.5C342.4,72.3,366.7,75,392.8,75c4.9,0,9.7,0.4,14.4,1.2C449.8,83.1,482.4,120.1,482.4,164.7z"/>
	<path class="st15" d="M418.7,229.6v31.8c0,11.6-7.7,21.5-18.2,24.7c-2.4,0.8-5,1.2-7.7,1.2c-14.3,0-25.9-11.6-25.9-25.9v-31.8
		H418.7z"/>
</g>
<path class="st13" d="M418.7,259.3v2c0,11.6-7.7,21.5-18.2,24.7c-9.5-2.9-16.7-11.2-18-21.4c1.7,0.1,3.5,0.2,5.2,0.2
	c4.9,0,9.7-0.4,14.4-1.2C407.8,262.8,413.4,261.3,418.7,259.3z"/>
<path class="st13" d="M482.4,164.7c0,44.6-32.6,81.6-75.2,88.5c-42.7-6.9-75.2-43.9-75.2-88.5c0-27.5,12.4-52,31.8-68.5
	c12.1-10.3,27-17.3,43.4-20c39.8,6.4,70.8,39,74.8,79.5C482.2,158.7,482.4,161.7,482.4,164.7z"/>
<path class="st15" d="M392.8,208.8c-7.5,0-15-1.9-21.8-5.6c-1.9-1.1-2.6-3.5-1.6-5.4c1.1-1.9,3.5-2.6,5.4-1.6
	c11.3,6.2,24.7,6.2,36,0c1.9-1.1,4.4-0.4,5.4,1.6c1.1,1.9,0.4,4.4-1.6,5.4C407.8,206.9,400.3,208.8,392.8,208.8z"/>
<path class="st9" d="M373.7,159.4c0,5.6-4.6,10.2-10.2,10.2c-5.6,0-10.2-4.6-10.2-10.2c0-5.6,4.6-10.2,10.2-10.2
	C369.1,149.3,373.7,153.8,373.7,159.4z"/>
<path class="st9" d="M432.2,159.4c0,5.6-4.6,10.2-10.2,10.2c-5.6,0-10.2-4.6-10.2-10.2c0-5.6,4.6-10.2,10.2-10.2
	C427.6,149.3,432.2,153.8,432.2,159.4z"/>
<path class="st10" d="M371.6,157.7c0,2.4-1.9,4.4-4.4,4.4s-4.4-2-4.4-4.4c0-2.4,1.9-4.4,4.4-4.4S371.6,155.2,371.6,157.7z"/>
<path class="st10" d="M430.6,157.7c0,2.4-1.9,4.4-4.4,4.4s-4.4-2-4.4-4.4c0-2.4,1.9-4.4,4.4-4.4S430.6,155.2,430.6,157.7z"/>
<path class="st15" d="M402.9,185h-20.3c-2.4,0-4.4-2-4.4-4.4s2-4.4,4.4-4.4h20.3c2.4,0,4.4,2,4.4,4.4
	C407.3,183.1,405.4,185,402.9,185z"/>
<path class="st11" d="M422.3,327.7h39.1v12h-39.1V327.7z"/>
<path class="st16" d="M387.5,49.4c27.1,1.9,48.9,23.9,50.3,51.5l0.3,5.2h15.6l8.4,55.9l20.4-6.3l-2.7-54.8
	c-1.4-29-25.4-51.7-54.5-51.6L387.5,49.4z"/>
<path class="st9" d="M478.1,27.8c21.6,21.6,21.6,56.7,0,78.3s-56.7,21.6-78.3,0L478.1,27.8z"/>
<path class="st9" d="M399.8,106.1h-67.9l-8.4,55.9l-20.4-6.3l2.7-54.8c1.4-29,25.4-51.7,54.5-51.6l98.1,0.4l13,23.3"/>
<path class="st16" d="M398,49.4c-27.1,1.9-48.9,23.9-50.3,51.5l-0.3,5.2h-15.6l-8.4,55.9l-20.4-6.3l2.7-54.8
	c1.4-29,25.4-51.7,54.5-51.6L398,49.4z"/>
<path class="st9" d="M364.5,468.7v19.2C331.6,503.4,294.8,512,256,512s-75.6-8.6-108.5-24.1v-19.2c0-37.9,25.7-69.7,60.6-79.1
	c1.3-0.3,2.6-0.7,3.9-0.9c3.5-0.8,7-1.3,10.6-1.6c2.2-0.2,4.4-0.3,6.7-0.3h53.3c6,0,11.8,0.6,17.4,1.8c0.3,0.1,0.6,0.1,1,0.2
	c0.9,0.2,1.9,0.4,2.8,0.7c0,0,0,0,0.1,0c9.2,2.5,17.8,6.5,25.4,11.8C350.6,416.2,364.5,440.9,364.5,468.7z"/>
<path class="st2" d="M304.1,388.7l-0.2,0.9l-26.1,121.4c-1.4,0.1-2.7,0.2-4.1,0.3c-1.9,0.1-3.8,0.2-5.8,0.3
	c-3.9,0.2-7.9,0.3-11.9,0.3c-4.1,0-8.2-0.1-12.2-0.3c-1.8-0.1-3.7-0.2-5.5-0.3c-1.4-0.1-2.7-0.2-4.1-0.3l-26.1-121.4l-0.2-0.9H304.1
	z"/>
<path class="st9" d="M278,416.4l-22,35.2l-22-35.2"/>
<path class="st9" d="M273.7,511.4c-1.9,0.1-3.8,0.2-5.8,0.3c-3.9,0.2-7.9,0.3-11.9,0.3c-4.1,0-8.2-0.1-12.2-0.3
	c-1.8-0.1-3.7-0.2-5.5-0.3l17.7-68.9L273.7,511.4z"/>
<path class="st1" d="M256,420.4l-36.9,20.5l-11.2-52.1l22.9-13.5"/>
<path class="st1" d="M256,420.4l36.9,20.5l11.2-52.1l-22.9-13.5"/>
<path class="st16" d="M305.4,459.1h11.7l-20.4,49.7c-9.4,1.5-19.1,2.5-28.8,2.9l35.9-122.1l0.3-0.9l25.2,8.2L305.4,459.1z"/>
<path class="st16" d="M243.8,511.7c-9.8-0.4-19.4-1.5-28.8-3l-20.4-49.6h11.7L182.4,397l25.2-8.2l0.3,0.9L243.8,511.7z"/>
<path class="st7" d="M285.2,355.4v35.8c0,13.1-8.7,24.2-20.6,27.9c-2.7,0.8-5.6,1.3-8.6,1.3c-16.1,0-29.2-13.1-29.2-29.2v-35.8
	H285.2z"/>
<path class="st8" d="M285.2,388.9v2.3c0,13.1-8.7,24.2-20.6,27.9c-10.8-3.3-18.8-12.7-20.3-24.1c2,0.1,3.9,0.2,5.9,0.2
	c5.5,0,10.9-0.4,16.2-1.3C272.9,392.8,279.2,391.2,285.2,388.9z"/>
<path class="st8" d="M175.9,296.6c0,13.5-9.9,24.7-22.8,26.8c-1.4,0.2-2.9,0.3-4.3,0.3c-15,0-27.2-12.2-27.2-27.2
	s12.2-27.2,27.2-27.2c1.5,0,2.9,0.1,4.3,0.4C166,271.9,175.9,283.1,175.9,296.6z"/>
<path class="st7" d="M175.9,296.6c0,13.5-9.9,24.7-22.8,26.8c-2.3-8.5-3.6-17.5-3.6-26.8c0-9.3,1.3-18.3,3.6-26.8
	C166,271.9,175.9,283.1,175.9,296.6z"/>
<path class="st7" d="M158.4,296.6c0,5.4-4.3,9.7-9.7,9.7c-5.4,0-9.7-4.3-9.7-9.7c0-5.4,4.3-9.7,9.7-9.7
	C154.1,286.9,158.4,291.2,158.4,296.6z"/>
<path class="st8" d="M336.1,296.6c0,13.5,9.9,24.7,22.8,26.8c1.4,0.2,2.9,0.3,4.3,0.3c15,0,27.2-12.2,27.2-27.2
	s-12.2-27.2-27.2-27.2c-1.5,0-2.9,0.1-4.3,0.4C346,271.9,336.1,283.1,336.1,296.6z"/>
<path class="st7" d="M336.1,296.6c0,13.5,9.9,24.7,22.8,26.8c2.3-8.5,3.6-17.5,3.6-26.8c0-9.3-1.3-18.3-3.6-26.8
	C346,271.9,336.1,283.1,336.1,296.6z"/>
<path class="st7" d="M357,243.7v38.5c0,50.3-36.7,92-84.8,99.7c-0.2,0-0.3,0.1-0.5,0.1c-5.1,0.8-10.4,1.2-15.7,1.2
	c-55.8,0-101-45.2-101-101v-38.5c0-11.8,2-23,5.7-33.5c13.8-39.3,51.3-67.5,95.3-67.5h0c5.4,0,10.6,0.4,15.7,1.2
	C320.1,151.4,357,193.2,357,243.7z"/>
<path class="st7" d="M373,296.6c0,5.4-4.3,9.7-9.7,9.7c-5.4,0-9.7-4.3-9.7-9.7c0-5.4,4.3-9.7,9.7-9.7
	C368.6,286.9,373,291.2,373,296.6z"/>
<path class="st8" d="M357,243.7v38.5c0,50.3-36.7,92-84.8,99.7c-0.2,0-0.3,0.1-0.5,0.1c-48.3-7.6-85.3-49.4-85.3-99.8v-38.5
	c0-50.5,37-92.3,85.3-99.8C320.1,151.4,357,193.2,357,243.7z"/>
<path class="st9" d="M234.5,276.3c0,6.3-5.1,11.5-11.5,11.5c-6.3,0-11.5-5.1-11.5-11.5c0-6.3,5.1-11.5,11.5-11.5
	C229.3,264.8,234.5,270,234.5,276.3z"/>
<path class="st9" d="M300.4,276.3c0,6.3-5.1,11.5-11.5,11.5s-11.5-5.1-11.5-11.5c0-6.3,5.1-11.5,11.5-11.5S300.4,270,300.4,276.3z"
	/>
<path class="st10" d="M232.1,274.3c0,2.7-2.2,4.9-4.9,4.9c-2.7,0-4.9-2.2-4.9-4.9c0-2.7,2.2-4.9,4.9-4.9
	C229.9,269.4,232.1,271.6,232.1,274.3z"/>
<path class="st10" d="M298.7,274.3c0,2.7-2.2,4.9-4.9,4.9c-2.7,0-4.9-2.2-4.9-4.9c0-2.7,2.2-4.9,4.9-4.9
	C296.5,269.4,298.7,271.6,298.7,274.3z"/>
<path class="st7" d="M267.5,300.7h-22.9c-2.7,0-4.9-2.2-4.9-4.9c0-2.7,2.2-4.9,4.9-4.9h22.9c2.7,0,4.9,2.2,4.9,4.9
	C272.4,298.4,270.2,300.7,267.5,300.7z"/>
<path class="st7" d="M256,331.9c-8.5,0-16.9-2.1-24.6-6.4c-2.2-1.2-3-3.9-1.8-6.1c1.2-2.2,3.9-3,6.1-1.8c12.7,7,27.9,7,40.6,0
	c2.2-1.2,4.9-0.4,6.1,1.8c1.2,2.2,0.4,4.9-1.8,6.1C272.9,329.8,264.5,331.9,256,331.9z"/>
<path class="st16" d="M357,208.8v39.4h-18.8v-30.9l-135.8-25.2l-28.7-5.3v61.4h-18.8v-39.4c0-44.9,36.4-81.4,81.4-81.4h39.4
	c1.1,0,2.1,0,3.2,0.1C322.3,129.2,357,164.9,357,208.8z"/>
<path class="st9" d="M357,208.8v39.4h-18.8v-30.9l-135.8-25.2c7.5-35.9,38.7-63.2,76.4-64.6C322.3,129.2,357,164.9,357,208.8z"/>
</svg>
