<?xml version="1.0" encoding="utf-8"?>
<!-- Generator: Adobe Illustrator 23.0.5, SVG Export Plug-In . SVG Version: 6.00 Build 0)  -->
<svg version="1.1" id="bea0b812-ed10-4893-9e33-c0920ce95501"
	 xmlns="http://www.w3.org/2000/svg" xmlns:xlink="http://www.w3.org/1999/xlink" x="0px" y="0px" viewBox="0 0 944 768.2"
	 style="enable-background:new 0 0 944 768.2;" xml:space="preserve">
<style type="text/css">
	.st0{opacity:7.000000e-02;fill:#E25252;}
	.st1{fill:#AA3F3F;}
	.st2{fill:#2F2E41;}
	.st3{fill:#E25252;}
	.st4{fill:#F2F2F2;}
	.st5{fill:#FFB8B8;}
	.st6{opacity:0.1;enable-background:new    ;}
	.st7{fill:#3F3D56;}
	.st8{opacity:0.4;fill:#E25252;enable-background:new    ;}
</style>
<title>online_resume</title>
<path class="st0" d="M932,417.7L416,564l470.7-265.2c-21.5-39.3-48.4-75.4-80-107.1L350,443l382.4-312.2
	c-54.8-36.3-116.7-60.6-181.6-71.4L339,413L479.3,53.1c-2.1,0-4.2-0.1-6.3-0.1C212.9,53,2,263.9,2,524c-0.1,86,23.4,170.5,68.1,244
	H876C939.4,663,959.5,537.3,932,417.7z"/>
<rect x="132" y="396" class="st1" width="682" height="372"/>
<rect x="252" y="439" class="st2" width="427" height="2"/>
<rect x="211" y="538.7" class="st3" width="155.8" height="17.7"/>
<rect x="211" y="568.8" class="st4" width="262" height="10.6"/>
<rect x="211" y="591.8" class="st4" width="247.8" height="10.6"/>
<rect x="211" y="614.8" class="st4" width="180.6" height="10.6"/>
<path class="st3" d="M846,734c0-32.2-16.3-58.2-36.5-58.2c-12.7,0-23.8,10.3-30.3,25.9c-2.2-0.9-4.6-1.4-7-1.4
	c-6.1,0-11.7,3.1-16.3,8.4c-5.9-19.5-18.4-33-32.8-33c-13.5,0-25.3,11.8-31.6,29.2c-3.5-3-7.9-4.6-12.5-4.7c-15.5,0-28,20-28,44.7
	c-0.1,8.2,1.4,16.4,4.4,24.1h183.2C843.3,759.3,846,747.1,846,734z"/>
<circle class="st3" cx="200.8" cy="83.7" r="47"/>
<path class="st5" d="M171.1,172.8c3.7-1.6,8-0.5,10.5,2.7c4.2,5.2,9.9,16.6,7.7,39.1l-8.5,86.9l-1.3,87.6c0,0-12.7,40.4-31.4,40
	s15.5-38.7,15.5-38.7s-4.7-69.5-2.8-89.4C162.5,282.3,144.5,184.3,171.1,172.8z"/>
<path class="st5" d="M194.1,133l10.7,29l-15.3,4.7l-2.1,42.1l37.9-20.4l19.1-21l2.4-16.1c0,0-14.7-2.6-20.1-35.1L194.1,133z"/>
<path class="st5" d="M122.3,375.2c0,0-66.9,67.2-49.6,102.6S174,637.1,174,637.1l22.5-28.7c0,0-22.1-16.1-32.4-53.8
	s-33.6-63.7-40.5-73s64.6-74.1,58.3-90.6S122.3,375.2,122.3,375.2z"/>
<path class="st6" d="M122.3,375.2c0,0-66.9,67.2-49.6,102.6S174,637.1,174,637.1l22.5-28.7c0,0-22.1-16.1-32.4-53.8
	s-33.6-63.7-40.5-73s64.6-74.1,58.3-90.6S122.3,375.2,122.3,375.2z"/>
<path class="st2" d="M164.3,616.7c0,0-7,13.8-4.9,19.3s13.1,37.3,13.1,37.3s-11.8,46.1-3.2,45.1s39.4-32.1,38-43.5l-3.9-32.7
	l9.6,7.5l12.2-18.8l-16.9-21c0,0-18.2-19.4-23.9-18.8S164.3,616.7,164.3,616.7z"/>
<path class="st5" d="M177.6,391.6l-4.5,10.6l-18.8,83c0,0-7.5,9.6-5.2,41s-37.8,153-37.8,153l-1.4,24.7l24.2-2.9l16.5-30.8
	c0,0,6.2-32.5,24.3-62s18-101.6,18-101.6l48.6-111.1L203.2,377L177.6,391.6z"/>
<path class="st2" d="M119.5,663.8c0,0-7.3-0.6-8.4,2.4s-22.8,61.9-22.8,61.9s-41.4,39.6-21.1,40s54.2-5.1,59.9-17.3
	s12.4-28.9,12.4-28.9l2.1,17.1l16-10.6c0,0,9-57.3-1.5-60.4S119.5,663.8,119.5,663.8z"/>
<path class="st2" d="M143.9,339.4c0,0-16.9,15-15.3,16.3s-9.6,4-7.5,9.6s-9.5,17-3.8,16.3s27.7-9.1,52.1,13.9l4.3-0.5l-0.6,7.3
	c0,0,17.7-20.9,63.3,11.1c0,0,15.1-6.1,13-11.7s24.6-11.6,10.2-47.4s-59-34.7-59-34.7L143.9,339.4z"/>
<path class="st7" d="M235.7,155.4c0,0,7.3-11,11.8-10.1s28.7,0.4,32.5,8.5c3.9,8.2-14.6,93.1-11.6,105.7s18.7,107.3,5.2,114.7
	s-29.3-28.2-29.3-28.2s-42.5-17.9-78.6-6.4s-25-4.2-25-4.2s25.9-24.7,21.9-57.4s-5.7-35.4,1-52c0,0,1.2-26.1,0.3-33.2
	s-6.1-15.1-2.2-18.5s44.6-12.6,44.6-12.6s-20.6,8.2-11.3,14.3S235.7,155.4,235.7,155.4z"/>
<circle class="st5" cx="199.5" cy="106.4" r="34.3"/>
<path class="st5" d="M271.7,149.9c-3.7-1.5-8-0.3-10.4,2.9c-4.1,5.3-9.5,16.9-6.8,39.2l10.4,86.7l3.3,87.5c0,0-2.1,42.1,16.5,41.3
	s-0.5-40.3-0.5-40.3s3.2-69.6,0.8-89.5C282.8,259.2,298.5,160.9,271.7,149.9z"/>
<path class="st3" d="M225.3,0c-3.6,5.1-8.8,8.7-14.8,10.2c-10.4,2.8-0.1,18.4-0.1,18.4s-3.7-5.7,1.7-11.7S226.2,6.8,225.3,0z"/>
<circle class="st3" cx="208.6" cy="32.3" r="13.1"/>
<path class="st7" d="M225.3,43.3c-10.7-4-28.5-6.1-37.6-4.7l1.3-9.2c8.8,4.5,26.5,6.7,37.6,4.7L225.3,43.3z"/>
<path class="st3" d="M204.7,46.5c0,0-13.4,22.3-44.5,30.6s-0.3,55.1-0.3,55.1s-11.2-17,5-35S207.1,66.9,204.7,46.5z"/>
<path class="st3" d="M205.7,45.2c0,0,12.9,30.6,27,33.5s13,51.2-9,58.5c0,0,16.1-28.3,2.3-47.3S203.5,55.8,205.7,45.2z"/>
<rect x="748" y="408" class="st3" width="45" height="17"/>
<circle class="st8" cx="701" cy="572.4" r="57"/>
<circle class="st8" cx="595.5" cy="599.6" r="40"/>
</svg>
