<?xml version="1.0" encoding="utf-8"?>
<!-- Generator: Adobe Illustrator 24.0.2, SVG Export Plug-In . SVG Version: 6.00 Build 0)  -->
<svg version="1.1" id="Layer_1" xmlns="http://www.w3.org/2000/svg" xmlns:xlink="http://www.w3.org/1999/xlink" x="0px" y="0px"
	 viewBox="0 0 512 512" style="enable-background:new 0 0 512 512;" xml:space="preserve">
<style type="text/css">
	.st0{fill:#3FB777;}
	.st1{fill:#F74F4F;}
	.st2{fill:#F2F0EC;}
	.st3{fill:#3D4159;}
	.st4{fill:#DDE8ED;}
	.st5{fill:#BFD5DE;}
	.st6{fill:#2A2F4F;}
	.st7{fill:#EAB599;}
	.st8{fill:#F6CAAE;}
	.st9{fill:#FFE152;}
	.st10{fill:#FFFFFF;}
	.st11{fill:#DD3033;}
	.st12{fill:#D8D5D0;}
	.st13{fill:#E8C934;}
</style>
<path class="st0" d="M512,256c0,62.4-22.3,119.5-59.4,163.9c-18.5,22.1-40.6,41.1-65.4,55.9c-9.3,5.5-18.9,10.5-28.9,14.9
	c-2.6,1.1-5.2,2.2-7.8,3.2c-1.3,0.5-2.7,1.1-4.1,1.6c-4.6,1.8-9.4,3.4-14.1,4.9c-4.4,1.4-8.9,2.7-13.5,3.8c-2.1,0.5-4.3,1-6.4,1.5
	c-1.2,0.3-2.4,0.5-3.7,0.8c-0.4,0.1-0.7,0.2-1.1,0.2c-4.6,1-9.3,1.8-14,2.5c-4.8,0.7-9.7,1.3-14.6,1.7c-7.6,0.7-15.2,1-23,1
	c-17.4,0-34.4-1.7-50.9-5.1C88.1,483.3,0,380,0,256C0,114.6,114.6,0,256,0S512,114.6,512,256z"/>
<path class="st1" d="M512,159.9c0,82.4-66.8,149.2-149.2,149.2c-82.4,0-149.2-66.8-149.2-149.2c0-82.4,66.8-149.2,149.2-149.2
	C445.2,10.7,512,77.5,512,159.9z"/>
<path class="st2" d="M478.5,159.9c0,63.9-51.8,115.7-115.7,115.7c-63.9,0-115.7-51.8-115.7-115.7c0-63.9,51.8-115.7,115.7-115.7
	C426.7,44.1,478.5,95.9,478.5,159.9z"/>
<path class="st1" d="M444.6,159.9c0,45.2-36.6,81.8-81.8,81.8c-45.2,0-81.8-36.6-81.8-81.8c0-45.2,36.6-81.8,81.8-81.8
	C408,78,444.6,114.7,444.6,159.9z"/>
<path class="st2" d="M404.6,159.9c0,23.1-18.7,41.8-41.8,41.8c-23.1,0-41.8-18.7-41.8-41.8c0-23.1,18.7-41.8,41.8-41.8
	C385.9,118.1,404.6,136.8,404.6,159.9z"/>
<path class="st1" d="M378.6,159.9c0,8.7-7,15.7-15.7,15.7c-8.7,0-15.7-7.1-15.7-15.7s7-15.7,15.7-15.7
	C371.5,144.1,378.6,151.2,378.6,159.9z"/>
<path class="st3" d="M306.9,449.6v57.4c-16.5,3.3-33.5,5.1-50.9,5.1c-79,0-149.7-35.8-196.6-92.1c9.9-30.3,34.7-54,65.8-62.3
	c1.5-0.4,3-0.8,4.5-1.1c4-0.9,8.2-1.5,12.4-1.8c2.6-0.2,5.2-0.3,7.8-0.3h61.9c6.9,0,13.7,0.7,20.2,2.1c0.4,0.1,0.8,0.2,1.1,0.2
	c1.1,0.2,2.2,0.5,3.3,0.8c0,0,0.1,0,0.1,0c10.7,2.9,20.7,7.6,29.5,13.7C290.7,388.6,306.9,417.2,306.9,449.6z"/>
<path class="st4" d="M236.6,356.6l-0.2,1.1l-32.1,149.1c-0.4-0.1-0.7-0.2-1.1-0.2c-3.4-0.7-6.7-1.5-10.1-2.3
	c-9.4-2.4-18.6-5.3-27.6-8.7c-1.4-0.5-2.7-1-4.1-1.6c-2.6-1-5.2-2.1-7.8-3.2l-28.6-133.1l-0.2-1.1H236.6z"/>
<path class="st1" d="M206.3,388.8l-25.5,41l-25.5-41"/>
<path class="st1" d="M203.2,506.5c-3.4-0.7-6.7-1.5-10.1-2.3c-9.4-2.4-18.6-5.3-27.6-8.7c-1.4-0.5-2.7-1-4.1-1.6l19.2-74.9
	L203.2,506.5z"/>
<path class="st5" d="M180.8,393.4l-42.8,23.8l-13-60.6l26.6-15.7"/>
<path class="st5" d="M180.8,393.4l42.8,23.8l13-60.6L210,340.9"/>
<path class="st6" d="M238.3,438.4h13.6L223,508.5c-1.5,0.2-3.1,0.5-4.6,0.7c-8.6-1.2-16.9-2.9-25.2-5l43.5-152.9l29.3,14.8
	L238.3,438.4z"/>
<path class="st6" d="M165.6,495.6c-14.3-5.4-27.9-12-40.8-19.7l-15.4-37.5H123l-27.7-72.2l29.6-13.7L165.6,495.6z"/>
<path class="st7" d="M214.7,317.8v41.7c0,15.2-10.1,28.1-23.9,32.4c-3.2,1-6.6,1.5-10,1.5c-18.7,0-33.9-15.2-33.9-33.9v-41.7H214.7z
	"/>
<path class="st8" d="M214.7,356.8v2.6c0,15.2-10.1,28.1-23.9,32.4c-12.5-3.8-21.9-14.7-23.6-28c2.3,0.1,4.5,0.2,6.8,0.2
	c6.4,0,12.7-0.5,18.9-1.5C200.4,361.4,207.7,359.4,214.7,356.8z"/>
<path class="st8" d="M87.7,249.5c0,15.7-11.5,28.7-26.5,31.2c-1.6,0.3-3.3,0.4-5.1,0.4c-17.4,0-31.6-14.1-31.6-31.6
	S38.7,218,56.1,218c1.7,0,3.4,0.1,5.1,0.4C76.2,220.8,87.7,233.8,87.7,249.5z"/>
<path class="st7" d="M87.7,249.5c0,15.7-11.5,28.7-26.5,31.2c-2.7-9.9-4.2-20.4-4.2-31.2c0-10.8,1.5-21.2,4.2-31.2
	C76.2,220.8,87.7,233.8,87.7,249.5z"/>
<path class="st7" d="M67.4,249.5c0,6.2-5.1,11.3-11.3,11.3s-11.3-5.1-11.3-11.3s5.1-11.3,11.3-11.3S67.4,243.3,67.4,249.5z"/>
<path class="st8" d="M273.9,249.5c0,15.7,11.5,28.7,26.5,31.2c1.6,0.3,3.3,0.4,5.1,0.4c17.4,0,31.6-14.1,31.6-31.6
	S322.9,218,305.5,218c-1.7,0-3.4,0.1-5.1,0.4C285.4,220.8,273.9,233.8,273.9,249.5z"/>
<path class="st7" d="M273.9,249.5c0,15.7,11.5,28.7,26.5,31.2c2.7-9.9,4.2-20.4,4.2-31.2c0-10.8-1.5-21.2-4.2-31.2
	C285.4,220.8,273.9,233.8,273.9,249.5z"/>
<path class="st7" d="M298.2,188v44.7c0,58.4-42.7,106.9-98.6,115.9c-0.2,0-0.4,0.1-0.6,0.1c-5.9,0.9-12.1,1.4-18.3,1.4
	c-64.9,0-117.4-52.6-117.4-117.4v-44.9c0-13.6,2.4-26.6,6.6-38.8c16.1-45.7,59.6-78.5,110.8-78.5h0c6.2,0,12.3,0.5,18.3,1.4
	C255.2,80.8,298.2,129.4,298.2,188z"/>
<path class="st7" d="M316.7,249.5c0,6.2-5.1,11.3-11.3,11.3s-11.3-5.1-11.3-11.3s5.1-11.3,11.3-11.3S316.7,243.3,316.7,249.5z"/>
<path class="st8" d="M298.2,188v44.7c0,58.4-42.7,106.9-98.6,115.9c-0.2,0-0.4,0.1-0.6,0.1c-56.2-8.8-99.1-57.4-99.1-116V188
	c0-58.6,43-107.2,99.2-116C255.2,80.8,298.2,129.4,298.2,188z"/>
<path class="st7" d="M149.6,208h78.2v42.6h-78.2V208z"/>
<path class="st4" d="M102.1,222.4L102.1,222.4c0.3,17.9,14.8,32.2,32.6,32.5c0.8,0,1.6,0,2.4,0c18-0.2,32.5-15,32.5-33v0.5V212
	l-0.3-13c0-1.8-1.2-3.3-2.9-3.9c-19.9-6.9-41.5-6.9-61.4,0.1c-1.7,0.6-2.8,2.2-2.8,4V223"/>
<path class="st3" d="M107.3,223H96.8v-23.7c0-4,2.5-7.6,6.3-8.9c20.9-7.4,43.9-7.4,64.8-0.1c3.7,1.3,6.3,4.8,6.4,8.7l0.4,13.1v10.4
	h-10.4v-10.4l-0.3-12.2c-18.3-6.2-38.4-6.2-56.7,0.1V223z"/>
<path class="st9" d="M135.8,260.1c-0.4,0-0.8,0-1.2,0c-20.8-0.2-37.4-16.8-37.8-37.6l5.2-0.1h5.2c0.2,15.1,12.3,27.1,27.5,27.2
	c0.7,0,1.5,0,2.2,0c15.1-0.2,27.3-12.7,27.3-27.8h10.4c0,20.8-16.9,37.9-37.6,38.2C136.7,260.1,136.2,260.1,135.8,260.1z"/>
<path class="st4" d="M194.5,222.4L194.5,222.4c0.3,17.9,14.8,32.2,32.6,32.5c0.8,0,1.6,0,2.4,0c18-0.2,32.5-15,32.5-33v0.5V212
	l-0.3-13c0-1.8-1.2-3.3-2.9-3.9c-19.9-6.9-41.5-6.9-61.4,0.1c-1.7,0.6-2.8,2.2-2.8,4V223"/>
<path class="st3" d="M199.8,223h-10.4v-23.7c0-4,2.5-7.6,6.3-8.9c20.9-7.4,43.9-7.4,64.8-0.1c3.7,1.3,6.3,4.8,6.4,8.7l0.4,13.1v10.4
	h-10.4v-10.4l-0.3-12.2c-18.3-6.2-38.4-6.2-56.7,0.1L199.8,223L199.8,223z"/>
<path class="st9" d="M228.2,260.1c-0.4,0-0.8,0-1.2,0c-20.8-0.2-37.4-16.8-37.8-37.6l5.2-0.1h5.2c0.2,15.1,12.3,27.1,27.5,27.2
	c0.7,0,1.5,0,2.2,0c15.1-0.2,27.3-12.7,27.3-27.8h10.4c0,20.8-16.9,37.9-37.6,38.2C229.1,260.1,228.7,260.1,228.2,260.1z"/>
<g>
	<path class="st3" d="M169.1,199h25.4v10.4h-25.4V199z"/>
	<path class="st3" d="M298.2,189v11l-28.4,9l-0.1,0l-6.3,2.1l-3.3-9.9l8-2.7l0.1,0L298.2,189z"/>
	<path class="st3" d="M103.7,201.2l-3.3,9.9l-7.2-2.4l-29.9-9.9v-11l31.5,10.4L103.7,201.2z"/>
	<path class="st3" d="M155.8,220.7c0,7.4-6,13.3-13.3,13.3c-7.4,0-13.3-6-13.3-13.3c0-7.4,6-13.3,13.3-13.3
		C149.8,207.4,155.8,213.3,155.8,220.7z"/>
	<path class="st3" d="M232.4,220.7c0,7.4-6,13.3-13.3,13.3c-7.4,0-13.3-6-13.3-13.3c0-7.4,6-13.3,13.3-13.3
		C226.5,207.4,232.4,213.3,232.4,220.7z"/>
</g>
<path class="st10" d="M153.1,218.3c0,3.2-2.6,5.7-5.7,5.7s-5.7-2.6-5.7-5.7s2.6-5.7,5.7-5.7S153.1,215.2,153.1,218.3z"/>
<path class="st10" d="M230.4,218.3c0,3.2-2.6,5.7-5.7,5.7s-5.7-2.6-5.7-5.7s2.6-5.7,5.7-5.7S230.4,215.2,230.4,218.3z"/>
<path class="st7" d="M196.4,256.3h-29.1c-3.2,0-5.7-2.6-5.7-5.7c0-3.2,2.6-5.8,5.7-5.8h29.1c3.2,0,5.7,2.6,5.7,5.8
	C202.1,253.8,199.6,256.3,196.4,256.3z"/>
<path class="st7" d="M180.8,290.6c-9.8,0-19.7-2.5-28.6-7.4c-2.5-1.4-3.4-4.6-2.1-7.1c1.4-2.5,4.6-3.4,7.1-2.1
	c14.8,8.1,32.4,8.1,47.2,0c2.5-1.4,5.7-0.5,7.1,2.1c1.4,2.5,0.5,5.7-2.1,7.1C200.5,288.1,190.6,290.6,180.8,290.6z"/>
<path class="st6" d="M298.2,147.5v45.8h-21.9v-35.9l-157.8-29.3l-33.4-6.2v71.4H63.3v-45.8c0-52.2,42.3-94.6,94.5-94.6h45.8
	c1.2,0,2.5,0,3.7,0.1C257.9,54.9,298.2,96.5,298.2,147.5z"/>
<path class="st3" d="M298.2,147.5v45.8h-21.9v-35.9l-157.8-29.3c8.7-41.8,44.9-73.4,88.8-75.1C257.9,54.9,298.2,96.5,298.2,147.5z"
	/>
<path class="st11" d="M503.1,113.1l-27.6-19.1l-3.2-33.5L425.2,88l2.1,22l-69.8,40.8l10.6,18l69.8-40.8l18.1,12.6L503.1,113.1z"/>
<path class="st11" d="M503.1,113.1l-27.6-19.1l-3.2-33.5L425.2,88l2.1,22l-69.8,40.8l10.6,18l69.8-40.8l18.1,12.6L503.1,113.1z"/>
<path class="st12" d="M474.6,129.8L456,140.6l-17.6-12.2c-2.9-6.9-6.6-13.2-11.1-19v0l-2-21.4l18.6-10.9
	C458.3,91.4,469.1,109.5,474.6,129.8z"/>
<path class="st13" d="M397.6,67.2l38.6-38.6l11.5,31.6l-38.6,38.6L397.6,67.2z"/>
<path class="st3" d="M462.5,75l-90.1,90.1c-4.1,4.1-10.7,4.1-14.8,0c-4.1-4.1-4.1-10.7,0-14.8l90.1-90.1L462.5,75z"/>
<path class="st9" d="M448.1,117.7l38.6-38.6l-31.6-11.5l-38.6,38.6L448.1,117.7z"/>
</svg>
