<?xml version="1.0" encoding="utf-8"?>
<!-- Generator: Adobe Illustrator 24.0.2, SVG Export Plug-In . SVG Version: 6.00 Build 0)  -->
<svg version="1.1" id="Layer_1" xmlns="http://www.w3.org/2000/svg" xmlns:xlink="http://www.w3.org/1999/xlink" x="0px" y="0px"
	 viewBox="0 0 512 512" style="enable-background:new 0 0 512 512;" xml:space="preserve">
<style type="text/css">
	.st0{fill:#66BAED;}
	.st1{fill:#3D4159;}
	.st2{fill:#F2F0EC;}
	.st3{fill:#854F89;}
	.st4{fill:#DD3033;}
	.st5{fill:#F74F4F;}
	.st6{fill:#D3A489;}
	.st7{fill:#FFE152;}
	.st8{fill:#BF8E75;}
	.st9{fill:#FFFFFF;}
	.st10{fill:#2A2F4F;}
</style>
<path class="st0" d="M512,256c0,141.4-114.6,256-256,256S0,397.4,0,256S114.6,0,256,0S512,114.6,512,256z"/>
<path class="st1" d="M154.3,0h325.6C497.6,0,512,14.4,512,32.1v307.1c0,17.7-14.4,32.1-32.1,32.1H154.3c-17.7,0-32.1-14.4-32.1-32.1
	V32.1C122.3,14.4,136.6,0,154.3,0z"/>
<path class="st2" d="M154.3,350.3c-6.2,0-11.2-5-11.2-11.2V32.1c0-6.2,5-11.2,11.2-11.2h325.6c6.2,0,11.2,5,11.2,11.2v307.1
	c0,6.2-5,11.2-11.2,11.2H154.3z"/>
<g>
	<path class="st3" d="M407.2,278.8c2.6-3.1,7.2-3.4,10.3-0.8l12,10.3l10.3-9c3-2.6,7.7-2.3,10.3,0.7c2.6,3,2.3,7.7-0.7,10.3
		l-8.7,7.6l15.4,13.2c3.1,2.6,3.4,7.2,0.8,10.3c-1.4,1.7-3.5,2.5-5.5,2.5c-1.7,0-3.4-0.6-4.8-1.8l-17-14.6l-10.7,9.3
		c-1.4,1.2-3.1,1.8-4.8,1.8c-2,0-4.1-0.9-5.5-2.5c-2.6-3-2.3-7.7,0.7-10.3l9.1-7.9l-10.4-9C404.9,286.5,404.6,281.9,407.2,278.8z"/>
	<path class="st3" d="M375.8,92.1c2.8,2.9,2.7,7.5-0.2,10.3c-1.4,1.3-3.2,2-5,2c-1.9,0-3.9-0.8-5.3-2.3l-26.6-27.9
		c-1.5-1.6-2.2-3.7-2-5.8s1.4-4.1,3.2-5.3l31.9-21.3c3.4-2.2,7.9-1.3,10.1,2c2.2,3.4,1.3,7.9-2,10.1l-14,9.3
		c41.1,1.8,65.1,21.7,78,38.6c14.6,19.1,18.6,38.1,18.8,38.9c0.8,4-1.8,7.8-5.7,8.6c-0.5,0.1-1,0.1-1.5,0.1c-3.4,0-6.4-2.4-7.2-5.8
		c0-0.2-3.5-16.5-16.1-32.9c-16.4-21.3-39.9-32.4-70-33L375.8,92.1z"/>
	<path class="st3" d="M434.1,220.4c-5.8,5.2-9.6,12.8-9.6,21.3c0,4,3.3,7.3,7.3,7.3h42.5c4,0,7.3-3.3,7.3-7.3c0-8.4-3.7-16-9.6-21.3
		c5.8-5.2,9.6-12.8,9.6-21.3c0-15.7-12.8-28.6-28.6-28.6c-15.8,0-28.6,12.8-28.6,28.6C424.6,207.6,428.3,215.2,434.1,220.4z
		 M453.1,227.7c5,0,9.4,2.7,11.9,6.6h-23.8C443.7,230.4,448.1,227.7,453.1,227.7z M453.1,213.1c-7.7,0-13.9-6.3-13.9-13.9
		c0-7.7,6.3-13.9,13.9-13.9c7.7,0,13.9,6.3,13.9,13.9C467.1,206.8,460.8,213.1,453.1,213.1z"/>
	<path class="st3" d="M234.2,314.8l26.3-15.9c2.3-1.4,5.2-1.4,7.6,0l22.5,13.6l22.5-13.6c2.3-1.4,5.2-1.4,7.6,0l22.5,13.6l22.5-13.6
		c3.4-2.1,7.9-1,10,2.5c2.1,3.4,1,7.9-2.5,10L347,327.3c-2.3,1.4-5.2,1.4-7.6,0l-22.5-13.6l-22.5,13.6c-2.3,1.4-5.2,1.4-7.6,0
		l-22.5-13.6l-22.5,13.6c-1.2,0.7-2.5,1.1-3.8,1.1c-2.5,0-4.9-1.3-6.3-3.5C229.7,321.4,230.8,316.9,234.2,314.8z"/>
	<path class="st3" d="M336.1,186.9c0,7.6,3,14.8,8.4,20.2l15,15c1.4,1.4,3.2,2.1,5.2,2.1s3.8-0.8,5.2-2.1l15-15
		c5.4-5.4,8.4-12.6,8.4-20.2s-3-14.8-8.4-20.2c-5.4-5.4-12.6-8.4-20.2-8.4s-14.8,3-20.2,8.4C339.1,172.1,336.1,179.2,336.1,186.9z
		 M350.7,186.9c0-3.7,1.4-7.2,4.1-9.9c2.6-2.6,6.1-4.1,9.9-4.1c3.7,0,7.2,1.4,9.9,4.1c2.6,2.6,4.1,6.1,4.1,9.9
		c0,3.7-1.5,7.2-4.1,9.9l-9.9,9.9l-9.9-9.9C352.1,194.1,350.7,190.6,350.7,186.9z"/>
</g>
<path class="st4" d="M306.9,449.6v29.2c-26.9,15.2-56.8,25.8-88.5,30.4c-42.7-6.3-82-23.1-115.1-47.8c-16.2-12.1-30.9-26-43.9-41.5
	c11.7-35.7,43.9-62,82.6-65.2c2.6-0.2,5.2-0.3,7.8-0.3h62c7.3,0,14.4,0.8,21.3,2.4C275.3,366.5,306.9,404.4,306.9,449.6z"/>
<path class="st5" d="M306.9,449.6v57.4c-16.4,3.3-33.5,5.1-50.9,5.1c-9.1,0-18-0.5-26.9-1.4c-46.9-4.9-90-22.4-125.9-49.2v-11.9
	c0-52.5,42.6-95.1,95.1-95.1h13.4c23.2,0,44.5,8.3,61.1,22.2v0c9.7,8.1,17.8,18.2,23.6,29.5C303.1,419.2,306.9,433.9,306.9,449.6z"
	/>
<path class="st6" d="M87.7,249.5c0,15.7-11.5,28.7-26.5,31.2c-1.6,0.3-3.3,0.4-5.1,0.4c-17.4,0-31.6-14.1-31.6-31.6
	c0-17.4,14.1-31.6,31.6-31.6c1.7,0,3.4,0.1,5.1,0.4C76.2,220.8,87.7,233.8,87.7,249.5z"/>
<path class="st7" d="M206.3,388.8l-25.5,41l-25.5-41"/>
<path class="st7" d="M203.2,506.5c-14.4-3-28.3-7.2-41.7-12.5l19.2-74.9L203.2,506.5z"/>
<path class="st8" d="M87.7,249.5c0,15.7-11.5,28.7-26.5,31.2c-2.7-9.9-4.2-20.4-4.2-31.2c0-10.8,1.5-21.2,4.2-31.2
	C76.2,220.8,87.7,233.8,87.7,249.5z"/>
<path class="st8" d="M67.4,249.5c0,6.2-5.1,11.3-11.3,11.3s-11.3-5.1-11.3-11.3c0-6.2,5.1-11.3,11.3-11.3S67.4,243.3,67.4,249.5z"/>
<path class="st4" d="M180.8,393.4l-42.8,23.8l-13-60.6l26.6-15.7"/>
<path class="st4" d="M180.8,393.4l42.8,23.8l13-60.6L210,340.9"/>
<path class="st6" d="M273.9,249.5c0,15.7,11.5,28.7,26.5,31.2c1.6,0.3,3.3,0.4,5.1,0.4c17.4,0,31.6-14.1,31.6-31.6
	c0-17.4-14.1-31.6-31.6-31.6c-1.7,0-3.4,0.1-5.1,0.4C285.4,220.8,273.9,233.8,273.9,249.5z"/>
<path class="st8" d="M273.9,249.5c0,15.7,11.5,28.7,26.5,31.2c2.7-9.9,4.2-20.4,4.2-31.2c0-10.8-1.5-21.2-4.2-31.2
	C285.4,220.8,273.9,233.8,273.9,249.5z"/>
<path class="st8" d="M316.7,249.5c0,6.2-5.1,11.3-11.3,11.3s-11.3-5.1-11.3-11.3c0-6.2,5.1-11.3,11.3-11.3S316.7,243.3,316.7,249.5z
	"/>
<path class="st8" d="M298.2,232.8c0,58.4-42.7,106.9-98.6,115.9c-6.1,1-12.4,1.5-18.8,1.5c-64.9,0-117.4-52.6-117.4-117.4
	c0-30.7,22.4-76.8,41.7-97.7c21.5-23.3,41.6-19.8,75.8-19.8c6.4,0,12.7,0.5,18.8,1.5C255.5,125.8,298.2,174.3,298.2,232.8z"/>
<path class="st8" d="M214.7,317.8v41.7c0,15.2-10.1,28.1-23.9,32.4c-3.2,1-6.6,1.5-10,1.5c-18.7,0-33.9-15.2-33.9-33.9v-41.7H214.7z
	"/>
<path class="st6" d="M214.7,356.8v2.6c0,15.2-10.1,28.1-23.9,32.4c-12.5-3.8-21.9-14.7-23.6-28c2.3,0.1,4.5,0.2,6.8,0.2
	c6.4,0,12.7-0.5,18.8-1.5C200.4,361.4,207.7,359.4,214.7,356.8z"/>
<path class="st6" d="M298.2,232.8c0,58.4-42.7,106.9-98.6,115.9c-55.9-9-98.6-57.5-98.6-115.9c0-36,16.2-68.2,41.7-89.7
	c15.9-13.4,35.4-22.7,56.9-26.2c52.1,8.4,92.8,51.1,98,104.2C298,224.9,298.2,228.8,298.2,232.8z"/>
<path class="st8" d="M180.8,295.8c-9.8,0-19.7-2.5-28.6-7.4c-2.5-1.4-3.4-4.6-2.1-7.1c1.4-2.5,4.6-3.4,7.1-2.1
	c14.8,8.1,32.4,8.1,47.2,0c2.5-1.4,5.7-0.5,7.1,2.1c1.4,2.5,0.5,5.7-2.1,7.1C200.4,293.4,190.6,295.8,180.8,295.8z"/>
<path class="st1" d="M155.8,225.9c0,7.4-6,13.3-13.3,13.3c-7.4,0-13.3-6-13.3-13.3c0-7.4,6-13.3,13.3-13.3
	C149.8,212.6,155.8,218.6,155.8,225.9z"/>
<path class="st1" d="M232.4,225.9c0,7.4-6,13.3-13.3,13.3c-7.4,0-13.3-6-13.3-13.3c0-7.4,6-13.3,13.3-13.3
	C226.5,212.6,232.4,218.6,232.4,225.9z"/>
<path class="st9" d="M153,223.6c0,3.2-2.6,5.7-5.7,5.7s-5.7-2.6-5.7-5.7s2.6-5.7,5.7-5.7S153,220.4,153,223.6z"/>
<path class="st9" d="M230.4,223.6c0,3.2-2.6,5.7-5.7,5.7s-5.7-2.6-5.7-5.7s2.6-5.7,5.7-5.7S230.4,220.4,230.4,223.6z"/>
<path class="st8" d="M194.1,259.5h-26.6c-3.2,0-5.7-2.6-5.7-5.7c0-3.2,2.6-5.8,5.7-5.8h26.6c3.2,0,5.8,2.6,5.8,5.8
	C199.8,256.9,197.3,259.5,194.1,259.5z"/>
<path class="st4" d="M219.4,446.5h51.2v15.7h-51.2V446.5z"/>
<path class="st10" d="M173.9,81.8c35.6,2.5,64.1,31.3,66,67.5l0.3,6.8h20.5l11,73.3l26.7-8.3l-3.6-71.8c-1.9-38-33.3-67.8-71.4-67.6
	L173.9,81.8z"/>
<path class="st1" d="M292.5,53.4c28.3,28.3,28.3,74.3,0,102.6c-28.3,28.3-74.3,28.3-102.6,0L292.5,53.4z"/>
<path class="st1" d="M189.9,156h-89l-11,73.3L63.2,221l3.6-71.8c1.9-38,33.3-67.8,71.4-67.6l128.6,0.5l17,30.6"/>
<path class="st10" d="M187.6,81.8c-35.6,2.5-64.1,31.3-66,67.5l-0.3,6.8h-20.5l-11,73.3L63.2,221l3.6-71.8
	c1.9-38,33.3-67.8,71.4-67.6L187.6,81.8z"/>
<path class="st4" d="M229.1,510.6c15.2-29.3,52.8-107.7,43.7-134c9.7,8.1,17.8,18.2,23.6,29.5L229.1,510.6z"/>
<path class="st1" d="M380,248.4L251.5,512c-7.6-0.1-15-0.6-22.4-1.4l139.5-267.9c1.6-3.1,5.4-4.3,8.5-2.7
	C380.2,241.5,381.5,245.3,380,248.4z"/>
</svg>
