<?xml version="1.0" encoding="utf-8"?>
<!-- Generator: Adobe Illustrator 24.0.2, SVG Export Plug-In . SVG Version: 6.00 Build 0)  -->
<svg version="1.1" id="Layer_1" xmlns="http://www.w3.org/2000/svg" xmlns:xlink="http://www.w3.org/1999/xlink" x="0px" y="0px"
	 viewBox="0 0 1141.1 629.9" style="enable-background:new 0 0 1141.1 629.9;" xml:space="preserve">
<style type="text/css">
	.st0{fill:#E6E6E6;}
	.st1{fill:#FFFFFF;}
	.st2{fill:#2F2E41;}
	.st3{fill:#FFB8B8;}
	.st4{fill:#D1D1D1;}
	.st5{fill:#575A89;}
	.st6{opacity:0.3;enable-background:new    ;}
	.st7{fill:#E25252;}
	.st8{fill:#A0616A;}
</style>
<g id="Group_45" transform="translate(-191 -152.079)">
	<path id="Path_941" class="st0" d="M1033.7,759.7c0,0,7.3-24.6-20.5-38.6L1033.7,759.7z"/>
	<path id="Path_942" class="st0" d="M1034.6,759.8c0,0,2.9-24.2,35.2-25.8L1034.6,759.8z"/>
	<path id="Path_943" class="st0" d="M1286.7,766.8c-5.1,21.1-274.8,19.4-274.4,0C1017.5,745.7,1287.1,747.4,1286.7,766.8z"/>
	<ellipse id="Ellipse_182" class="st1" cx="527" cy="208" rx="4.4" ry="4.4"/>
	<ellipse id="Ellipse_183" class="st1" cx="543.5" cy="208" rx="4.4" ry="4.4"/>
	<ellipse id="Ellipse_184" class="st1" cx="560.1" cy="208" rx="4.4" ry="4.4"/>
	<rect id="Rectangle_266" x="516.4" y="218.3" class="st1" width="552.9" height="3.1"/>
	<path id="Path_953" class="st2" d="M1229.2,659.2c0,0-3.2-10.8,2-7.3s20.4,8.9,14.9,17.4s-38.2,55.5-43.5,46.2
		c-2.9-5.2,7.3-49.1,7.3-49.1s7.3-1.7,8.3,0S1229.2,659.2,1229.2,659.2z"/>
	<path id="Path_954" class="st3" d="M1182.2,382.4l-1,17.6l-12.7,25.4l42.1-2l-2.9-26.4l2-10.8L1182.2,382.4z"/>
	<path id="Path_955" class="st4" d="M1177.3,412.8c0,0,6.8,7.8,24.4-1l13.7,66.5l2,59.7l-58.7-2l1-60.6L1177.3,412.8z"/>
	<path id="Path_956" class="st3" d="M1144.5,539.4c0,0,6.3,31,18.1,23.5s-2.5-29.3-2.5-29.3L1144.5,539.4z"/>
	<path id="Path_957" class="st3" d="M1202.8,706.2l-1,16.6l15.6,4.9v-22.5L1202.8,706.2z"/>
	<path id="Path_958" class="st2" d="M1150.9,532.1v97.8l55.7,47.9l13.7-23.5l-39.1-32.3l9.8-24.5l41.1-26.4v-38.1L1150.9,532.1z"/>
	<path id="Path_959" class="st2" d="M1192,592.7l5.9,49.9l2,66.5h25.4c0,0,8.8-58.7-1-73.3l7.8-64.5l-7.8-25.4L1192,592.7z"/>
	<path id="Path_960" class="st2" d="M1214.5,721.8c0,0,1-3.9-5.9-3.9c-6.8,0-9.8,1-9.8,2c-0.2,1.6-0.6,3.3-1,4.9c0,0-17.6,44,0,42.1
		s20.5-10.8,20.5-10.8l2-28.4c0,0-2-2.4-2.9-2.2S1214.5,721.8,1214.5,721.8z"/>
	<circle id="Ellipse_187" class="st3" cx="1197.9" cy="370.7" r="21.5"/>
	<path id="Path_961" class="st5" d="M1201.8,418.6l-6.8-7.8l13.2-16.6l5.3,5.8l31.3,13.7l-8.8,86.1c0,0-1,25.4,4.9,43
		c0,0-12.7,15.6-32.3,11.7l-25.4,4.9C1183.2,559.5,1180.3,433.3,1201.8,418.6z"/>
	<path id="Path_962" class="st5" d="M1180.3,413.7l1.1-16.3l-5,6.5l-26.4,19.6l2.9,108.6l8.8,4.9l14.7-116.4L1180.3,413.7z"/>
	<path id="Path_963" class="st5" d="M1156.8,422.5l-6.8,1c0,0-4.9,8.8-4.9,9.8s-2,51.8-2,51.8s-3.4,51.3,2.4,61.1l17.3-18.6
		l-6.1-17.1V422.5z"/>
	<path id="Path_964" class="st6" d="M1197.3,638.2l1.3,32.7l-4.1-3.5L1197.3,638.2z"/>
	<path id="Path_965" class="st6" d="M1229.9,651.3l-1.4,0.7l-1.5,43.9l3.5-4.5L1229.9,651.3z"/>
	<path id="Path_967" class="st3" d="M1258.5,543.8c0,0-4.9,31.3,8.8,28.4c13.7-2.9,7.8-28.4,7.8-28.4H1258.5z"/>
	<path id="Path_968" class="st5" d="M1236,413.7h8.8c0,0,5.9,2.9,6.8,11.7s14.7,47.9,14.7,47.9s15.6,64.5,14.7,73.4h-24.4l2-17.6
		l-26.4-70.4L1236,413.7z"/>
	<path id="Path_978" class="st2" d="M1179.6,350l-4.1-1.6c0,0,8.6-9.4,20.5-8.6l-3.4-3.7c0,0,8.2-3.3,15.7,5.3
		c3.9,4.5,8.5,9.9,11.3,15.9h4.4l-1.8,4l6.4,4l-6.6-0.7c0.4,2.2,0.5,4.5,0.2,6.7c-0.3,2.2-1.4,4.3-3.2,5.7l0,0
		c0,0-5.1-10.5-5.1-12.2v4.1c0,0-4.1-3.7-4.1-6.2l-2.2,2.9l-1.1-4.5l-13.8,4.5l2.2-3.7l-8.6,1.2l3.4-4.5c0,0-9.7,5.3-10.1,9.9
		c-0.4,3.1-1.5,6.1-3.2,8.8C1176.4,377.3,1168.7,356.2,1179.6,350z"/>
	<rect id="Rectangle_246" x="434.2" y="152.4" class="st0" width="635.6" height="407.1"/>
	<rect id="Rectangle_264" x="433.9" y="152.1" class="st7" width="635.6" height="27"/>
	<rect id="Rectangle_247" x="452.9" y="200.9" class="st1" width="599.3" height="155.2"/>
	<rect id="Rectangle_259" x="453.2" y="381.5" class="st1" width="599.3" height="155.2"/>
	<g id="Group_31" transform="translate(412.34 235.194)">
		<rect id="Rectangle_250" x="242.9" y="0" class="st0" width="324.3" height="14.5"/>
		<rect id="Rectangle_251" x="242.9" y="36.1" class="st0" width="115.6" height="14.5"/>
		<rect id="Rectangle_252" x="242.9" y="72.3" class="st0" width="230.4" height="14.5"/>
	</g>
	<g id="Group_30" transform="translate(282.246 224.353)">
		<path id="Path_944" class="st0" d="M351.2,54.2c0,10.5-3,20.8-8.8,29.6c-1.2,1.9-2.5,3.6-4,5.3c-3.4,4-7.3,7.4-11.6,10.3
			c-1.2,0.8-2.4,1.5-3.6,2.2c-6.5,3.6-13.7,5.8-21,6.5c-1.7,0.2-3.4,0.2-5.1,0.2c-4.7,0-9.4-0.6-14-1.8c-2.6-0.7-5.1-1.6-7.6-2.6
			c-1.3-0.5-2.5-1.1-3.7-1.8c-2.9-1.5-5.6-3.3-8.2-5.3c-1.2-0.9-2.3-1.9-3.4-2.9c-21.9-20.3-23.3-54.6-2.9-76.5s54.6-23.3,76.5-2.9
			C344.9,24.7,351.2,39.1,351.2,54.2L351.2,54.2z"/>
		<path id="Path_945" class="st3" d="M283.9,59.1c0,0,4.9,13.7,1.1,21.4s6,16.4,6,16.4s25.8-13.1,22.5-19.7s-8.8-15.3-7.7-20.8
			L283.9,59.1z"/>
		<ellipse id="Ellipse_185" class="st3" cx="293.5" cy="46.7" rx="17.5" ry="17.5"/>
		<path id="Path_946" class="st5" d="M283.1,106.5c-2.6-0.7-5.1-1.6-7.6-2.6l0.5-13.3l4.9-11c1.1,0.9,2.3,1.6,3.5,2.3
			c0.3,0.2,0.6,0.3,0.9,0.5c4.6,2.2,12.2,4.2,19.5-1.3c2.7-2.1,5-4.7,6.7-7.6l13.7,7.7l0.7,8.4l0.8,9.8c-1.2,0.8-2.4,1.5-3.6,2.2
			c-6.5,3.6-13.7,5.8-21,6.5c-1.7,0.2-3.4,0.2-5.1,0.2C292.3,108.3,287.6,107.7,283.1,106.5z"/>
		<path id="Path_947" class="st5" d="M286.4,71.4L286.4,71.4l-0.7,7.2l-0.4,3.8l-0.5,5.6l-1.8,18.5c-2.6-0.7-5.1-1.6-7.6-2.6
			c-1.3-0.5-2.5-1.1-3.7-1.8c-2.9-1.5-5.6-3.3-8.2-5.3l-1.9-9l0.1-0.1L286.4,71.4z"/>
		<path id="Path_948" class="st5" d="M323.2,101.6c-6.5,3.6-13.7,5.8-21,6.5c0.4-6.7,1-13.1,1.6-18.8c0.3-2.9,0.7-5.7,1.1-8.2
			c1.2-8,2.5-13.5,3.4-14.2l6.1,4l24.7,8.8l-0.5,9.5c-3.4,4-7.3,7.4-11.6,10.3C325.7,100.2,324.5,100.9,323.2,101.6z"/>
		<path id="Path_949" class="st5" d="M263.7,96.8c-1.2-0.9-2.3-1.9-3.4-2.9l0.9-6.1l0.7-0.1l3.1-0.4l6.8,14.8
			C269,100.6,266.2,98.8,263.7,96.8L263.7,96.8z"/>
		<path id="Path_950" class="st5" d="M342.4,83.8c-1.2,1.9-2.5,3.6-4,5.3c-3.4,4-7.3,7.4-11.6,10.3c-1.2,0.8-2.4,1.5-3.6,2.2
			l-0.6-2.8l3.5-9.1l4.2-11.1l8.8,1.1C340.2,80.9,341.4,82.3,342.4,83.8z"/>
		<path id="Path_951" class="st2" d="M310.2,30.9c-2.7-4.3-6.8-7.5-11.6-8.9l-3.6,2.9l1.4-3.3c-1.2-0.2-2.3-0.2-3.5-0.2l-3.2,4.1
			l1.3-4c-5.6,0.7-10.7,3.7-14,8.3c-4.1,5.9-4.8,14.1-0.8,20c1.1-3.4,2.4-6.6,3.5-9.9c0.9,0.1,1.7,0.1,2.6,0l1.3-3.1l0.4,3
			c4.2-0.4,10.3-1.2,14.3-1.9l-0.4-2.3l2.3,1.9c1.2-0.3,1.9-0.5,1.9-0.7c2.9,4.7,5.8,7.7,8.8,12.5C312,42.5,314,37,310.2,30.9z"/>
		<ellipse id="Ellipse_186" class="st3" cx="309.3" cy="46.2" rx="1.2" ry="2.4"/>
	</g>
	<path id="Path_952" class="st7" d="M630.8,458.3c0,10.5-3,20.8-8.8,29.6c-1.2,1.9-2.5,3.6-4,5.3c-3.4,4-7.3,7.5-11.6,10.3
		c-1.2,0.8-2.4,1.5-3.6,2.2c-6.5,3.6-13.7,5.8-21.1,6.5c-1.7,0.2-3.4,0.2-5.1,0.2c-4.7,0-9.4-0.6-14-1.8c-2.6-0.7-5.1-1.6-7.6-2.6
		c-1.3-0.5-2.5-1.1-3.7-1.8c-2.9-1.5-5.6-3.3-8.2-5.3c-1.2-0.9-2.3-1.9-3.4-2.9c-22-20.3-23.3-54.6-2.9-76.6
		c20.3-22,54.6-23.3,76.6-2.9C624.5,428.9,630.8,443.3,630.8,458.3L630.8,458.3z"/>
	<g id="Group_32" transform="translate(308.446 433.045)">
		<rect id="Rectangle_273" x="264.9" y="0" class="st1" width="6.6" height="50.6"/>
		<rect id="Rectangle_274" x="242.9" y="22" class="st1" width="50.6" height="6.6"/>
	</g>
	<g id="Group_33" transform="translate(404.209 415.88)">
		<rect id="Rectangle_250-2" x="242.9" y="0" class="st0" width="324.3" height="14.5"/>
		<rect id="Rectangle_251-2" x="242.9" y="36.1" class="st0" width="115.6" height="14.5"/>
		<rect id="Rectangle_252-2" x="242.9" y="72.3" class="st0" width="230.4" height="14.5"/>
	</g>
	<g id="Group_29" transform="translate(977.818 567.536)">
		<path id="Path_966" class="st0" d="M354.3,55.7c0,17.4-8.1,33.8-22,44.4c-1,0.8-2,1.5-3,2.2c-0.3,0.2-0.5,0.3-0.8,0.5
			c-1,0.6-2,1.2-3,1.7c-0.4,0.2-0.8,0.4-1.2,0.6c-0.1,0-0.2,0.1-0.2,0.1c-0.5,0.3-1,0.5-1.5,0.8c-2.3,1.1-4.6,2-7,2.8
			c-3.8,1.2-7.7,2-11.7,2.4c-1.7,0.2-3.5,0.2-5.3,0.2c-4.9,0-9.7-0.6-14.4-1.9c-2.4-0.6-4.8-1.4-7.1-2.4c-0.2-0.1-0.5-0.2-0.7-0.3
			c-1.1-0.5-2.2-1-3.3-1.6l-0.5-0.2c-1.2-0.6-2.3-1.3-3.4-2c-1.7-1.1-3.4-2.2-4.9-3.5c-0.8-0.6-1.6-1.3-2.4-2
			c-0.4-0.3-0.8-0.7-1.2-1.1c-1.5-1.4-2.9-2.9-4.3-4.4c-0.5-0.6-1.1-1.2-1.6-1.9c-19.1-24.1-15.1-59.2,9.1-78.3
			c24.1-19.1,59.2-15.1,78.3,9.1C350.1,31,354.3,43.1,354.3,55.7L354.3,55.7z"/>
		<circle id="Ellipse_188" class="st2" cx="316" cy="72.3" r="8.3"/>
		<path id="Path_969" class="st2" d="M318.3,64.2c4.6,0,8.3,3.7,8.3,8.4c0,1.4-0.3,2.7-1,4c2.9-3.6,2.3-8.9-1.3-11.7
			c-3.6-2.9-8.9-2.3-11.7,1.3c-0.3,0.4-0.6,0.8-0.8,1.2C313.4,65.4,315.8,64.2,318.3,64.2L318.3,64.2z"/>
		<circle id="Ellipse_189" class="st2" cx="300.4" cy="47.8" r="24.5"/>
		<path id="Path_970" class="st2" d="M281.1,32.6c8.8-9.9,23.8-11,34-2.6c-0.2-0.2-0.4-0.4-0.6-0.6c-10.1-9-25.6-8.2-34.6,1.9
			c-9,10.1-8.2,25.6,1.9,34.6c0,0,0.1,0.1,0.1,0.1c0.2,0.2,0.4,0.4,0.6,0.5C273,57.5,272.4,42.4,281.1,32.6L281.1,32.6z"/>
		<circle id="Ellipse_190" class="st8" cx="300.2" cy="56.3" r="15.8"/>
		<path id="Path_971" class="st8" d="M289,61.3c0,0,2.1,19.1-1.2,21.2s19.1,5,19.1,5s-3.3-20.8,5-26.2L289,61.3z"/>
		<path id="Path_972" class="st7" d="M328.4,97.5v6c-1,0.6-2,1.2-3,1.7c-0.4,0.2-0.8,0.4-1.2,0.6v0.1h-0.2c-0.5,0.3-1,0.5-1.5,0.8
			c-2.3,1.1-4.6,2-7,2.8c-3.8,1.2-7.7,2-11.7,2.4c-1.7,0.2-3.5,0.2-5.3,0.2c-4.9,0-9.7-0.6-14.4-1.9c-2.4-0.6-4.8-1.4-7.1-2.4
			c-0.2-0.1-0.5-0.2-0.7-0.3c-1.1-0.5-2.2-1-3.3-1.6l-0.5-0.2c-1.2-0.6-2.3-1.3-3.4-2c-1.7-1.1-3.4-2.2-4.9-3.5
			c-0.8-0.6-1.6-1.3-2.4-2c-0.4-0.3-0.8-0.7-1.2-1.1c-1.5-1.4-2.9-2.9-4.3-4.4c0.2-1.3,0.5-2.5,0.9-3.7l0,0c0.1-0.3,0.2-0.6,0.4-0.9
			c1.8-3.4,5-4.2,9.1-4.4c2.3-0.1,4.8,0,7.4,0c1.4,0,2.8-0.1,4.3-0.2c9.1-0.8,7.5-6.2,7.9-9.1c0.4-2.8,2.9-0.4,3.1-0.2l0,0
			c5.2,2.4,10.9,3.4,16.6,2.9h0c1-0.1,2-0.2,2.9-0.2c2.6,0,2,0.7,1.1,1.3c-0.4,0.3-0.9,0.5-1.4,0.8c0,0-0.4,2.5-0.8,6.2
			c-0.4,3.6,6.5,5.3,7,5.4c0,0,0,0,0,0c2.5-0.7,5.1-0.6,7.6,0.2C325.6,92,327.8,94.5,328.4,97.5L328.4,97.5z"/>
		<path id="Path_973" class="st2" d="M277.3,106c0,0.7-0.1,1.3-0.1,1.9c-0.2-0.1-0.5-0.2-0.7-0.3c-1.1-0.5-2.2-1-3.3-1.6l-0.5-0.2
			c-1.2-0.6-2.3-1.3-3.4-2c0-0.6,0.1-1.2,0.2-1.8c0.9-6.2,0-12.4-2.6-18.1c-0.2-0.4-0.3-0.6-0.3-0.6s2.9-2.5,7.1,0
			c0.3,0.2,0.5,0.4,0.7,0.6C277,87.2,277.6,98.9,277.3,106z"/>
		<path id="Path_974" class="st2" d="M322.6,106c0,0.3,0,0.5,0,0.8c-2.3,1.1-4.6,2-7,2.8l-0.1-3.5l-0.5-14c0-0.4,0.1-0.8,0.3-1.2
			c0.4-0.8,1.2-1.2,2-1.2h5.1c0.3,0,0.4,0.5,0.5,1.4C323.1,93.6,322.9,99.3,322.6,106z"/>
		<path id="Path_975" class="st2" d="M286.7,36.6v15.8h3.7l4.7-5l-0.6,5h16.2l-1-5l2,5h2.6V36.6H286.7z"/>
		<ellipse id="Ellipse_191" class="st8" cx="284.2" cy="53" rx="1.2" ry="2.3"/>
		<ellipse id="Ellipse_192" class="st8" cx="316.2" cy="53" rx="1.2" ry="2.3"/>
		<path id="Path_976" class="st7" d="M332.3,100.8c-1,0.8-2,1.5-3,2.2c-0.3,0.2-0.5,0.3-0.8,0.5c-1,0.6-2,1.2-3,1.7
			c-0.4,0.2-0.8,0.4-1.2,0.6V94.1c0,0,1.6,1.3,4.2,3.4C329.6,98.5,330.9,99.6,332.3,100.8z"/>
	</g>
	<circle id="Ellipse_194" class="st1" cx="475.9" cy="165.5" r="4.5"/>
	<circle id="Ellipse_195" class="st1" cx="492.9" cy="165.5" r="4.5"/>
	<circle id="Ellipse_246" class="st1" cx="458.9" cy="165.5" r="4.5"/>
</g>
</svg>
