<svg id="Layer_1" data-name="Layer 1" xmlns="http://www.w3.org/2000/svg" viewBox="0 0 1000 194"><defs><style>.cls-1{fill:#fff;}</style></defs><title>teamslounge_all</title><g id="title"><g id="path167338"><polygon class="cls-1" points="115.4 58.14 115.45 132.07 108.86 132.08 108.81 58.15 83.97 58.16 83.98 72.91 97.84 72.9 97.83 68.51 88.37 68.51 88.37 62.55 104.42 62.54 104.47 136.47 119.84 136.46 119.79 62.53 135.79 62.52 135.79 68.48 126.38 68.49 126.39 72.88 140.19 72.87 140.18 58.12 115.4 58.14"/></g><g id="path167340"><polygon class="cls-1" points="172.96 121.68 172.94 92.35 199.71 92.33 199.72 98.29 179.53 98.3 179.54 102.7 204.11 102.68 204.1 87.93 168.55 87.96 168.57 126.08 201.67 126.05 201.68 132.01 161.99 132.04 161.94 62.5 200.89 62.47 200.9 68.43 168.53 68.46 168.54 82 172.94 82 172.93 72.84 205.29 72.82 205.28 58.08 157.54 58.11 157.6 136.44 206.07 136.4 206.06 121.66 172.96 121.68"/></g><g id="path167342"><polygon class="cls-1" points="263.26 58.03 247.89 58.05 230.31 106.53 269.63 106.5 255.59 67.97 245.36 96.17 250.01 96.16 255.59 80.84 263.35 102.11 236.58 102.13 250.98 62.44 260.18 62.43 285.54 131.95 278.85 131.96 271.77 112.46 228.11 112.49 219.45 136.39 235.45 136.38 240.36 122.83 235.7 122.84 232.36 131.99 225.72 132 231.2 116.88 268.69 116.85 275.76 136.35 291.82 136.34 263.26 58.03"/></g><g id="path167344"><polygon class="cls-1" points="368.83 57.96 339.9 108.7 318.75 71.95 318.79 131.93 312.2 131.93 312.15 62.39 320.78 62.38 339.94 95.89 342.5 91.49 323.34 57.99 307.76 58 307.81 136.33 323.19 136.32 323.15 88.42 339.9 117.53 371.39 62.35 380.02 62.34 380.07 131.88 373.48 131.89 373.44 71.92 347.22 117.58 352.3 117.58 369.06 88.39 369.09 136.28 384.46 136.27 384.41 57.95 368.83 57.96"/></g><g id="path167346"><path class="cls-1" d="M436,85.26l-1.46,4.13c12.55,5.16,18.15,13,18.16,24.82,0,5.91-2.14,10.62-6.32,13.81S436,132.94,428.53,133a48.45,48.45,0,0,1-21.81-5l2.24-6c7.17,3.34,13.76,5,19.56,5,15.32,0,17.57-8,17.56-12.77,0-12.45-8.32-16.31-15.59-20.23-5.71-3.08-10.78-5.69-10.78-13.74,0-5.54,4-8.74,11.81-8.74,6.11,0,11.76,1.77,18.14,5.06l5.22-14.23c-6.59-3.34-11.24-5.59-23.43-5.58-14.48,0-27.13,8-27.12,23.55,0,12.13,6.19,20.75,17.33,25.77l1.51-4.14c-8.11-3.7-14.44-10.23-14.44-21.63,0-12.71,10.23-19.15,22.73-19.16,9.62,0,13.28,1.3,17.93,3.39l-2.19,6a39.5,39.5,0,0,0-15.69-3.43c-11.61,0-16.2,6.39-16.2,13.13,0,10.25,6.44,14.06,13,17.56s13.39,6.32,13.4,16.41c0,5.85-4.7,8.37-13.17,8.37-7.11,0-14.8-2.91-22-6.67l-5.32,14.17c7.85,4.23,16.27,7.26,27.3,7.25,16.58,0,28.54-7.86,28.53-23.13,0-14.43-7.44-23.42-21.09-28.95Z"/></g><g id="path167348"><polygon class="cls-1" points="481.4 121.46 481.36 62.27 487.95 62.26 487.98 115.49 492.38 115.49 492.33 57.87 476.96 57.88 477.01 125.85 515.91 125.83 515.92 131.78 477.02 131.81 477.02 136.21 520.31 136.17 520.3 121.43 481.4 121.46"/></g><g id="path167350"><path class="cls-1" d="M574.08,57.76v4.55c14.59,4.33,21.24,19.54,21.25,34.59,0,17.89-9.28,35.93-30,35.95s-30-18-30-35.9c0-17.2,8.6-34.52,27.79-35.84V71.57a13.75,13.75,0,0,1,2.19-.16c13.91,0,19,14.52,19.05,25.5s-5.05,25.57-19,25.58-19-14.57-19.05-25.55c0-8.21,2.86-18.51,10.23-23.12v-5c-10,4.51-14.63,16.64-14.62,28.09,0,14.43,7.34,30,23.44,30s23.42-15.55,23.4-30c0-13.7-6.71-28.44-21.25-29.79V56.77c-.73-.05-1.47-.1-2.2-.1-22,0-34.39,18.32-34.37,40.28s12.47,40.31,34.43,40.29,34.39-18.38,34.38-40.34c0-18.82-9.18-34.92-25.65-39.14Z"/></g><g id="path167352"><path class="cls-1" d="M663.8,57.74l0,47.95c0,7-1.82,11.72-5.58,14.38v5c5.23-2.35,10-7.74,10-19.4l0-43.56h6.59l0,43.55c0,9.57-3.06,25.89-23.14,27v-10.4c-.73,0-1.41.1-2.19.1-9.78,0-14.44-5.63-14.45-16.72l0-47.94H619.62l0,47.94c0,15.22,6.77,27,21,30.52V131.7c-13.76-4.07-16.64-16.52-16.65-26l0-43.55h6.59l0,43.56c0,16.57,9.74,20.59,16.64,21v10.41c.73.05,1.46.05,2.2.05,20.34,0,29.74-13.51,29.73-31.5l0-48Z"/></g><g id="path167354"><polygon class="cls-1" points="750.09 108.92 719.88 57.7 714.76 57.71 754.49 125.08 754.45 62.07 761.03 62.07 761.09 131.61 750.99 131.62 707.33 57.71 702.99 57.72 703.05 136.04 718.42 136.03 718.39 97.76 714 90.28 714.03 131.64 707.44 131.65 707.39 66.44 748.49 136.01 765.48 136 765.42 57.67 750.05 57.68 750.09 108.92"/></g><g id="path167356"><path class="cls-1" d="M846.41,97.19V92.8l-28.92,0v14.75l24.52,0,0,18.77a40.66,40.66,0,0,1-22.27,6.34c-20.55,0-30-17.33-30-35.9V96c0-17.3,10.17-35.14,29.36-35.16,7.21,0,12.86,1.46,18.35,4.75l-3,5.44a26.09,26.09,0,0,0-15-4.23c-14.91,0-23.1,15-23.09,29.2v.73c0,15.11,7.34,29.95,23.29,29.94a32.63,32.63,0,0,0,13.59-2.62l2.25-1v-9.57h-4.39v6.74a28,28,0,0,1-11.45,2.1c-13.9,0-18.88-13.89-18.89-25.55V96c0-11.08,6-24.78,18.7-24.79,7.48,0,11.09,2.29,16.53,6.15l7.26-13.12c-6.86-5.12-14.08-7.79-24.11-7.78C797.54,56.5,785.32,76,785.34,96v.73c0,22,12,40.3,34.43,40.29a44.87,44.87,0,0,0,26.66-8.39l0-25.52-24.52,0v-6Z"/></g><g id="path167358"><polygon class="cls-1" points="882.92 121.17 882.9 91.83 909.67 91.81 909.67 97.78 889.49 97.79 889.49 102.18 914.07 102.16 914.06 87.42 878.5 87.44 878.53 125.56 911.63 125.54 911.63 131.5 871.95 131.53 871.9 61.99 910.85 61.96 910.86 67.92 878.49 67.94 878.5 81.48 882.89 81.48 882.88 72.33 915.25 72.31 915.24 57.56 867.5 57.6 867.56 135.92 916.03 135.89 916.02 121.14 882.92 121.17"/></g></g></svg>