<svg id="Layer_1" data-name="Layer 1" xmlns="http://www.w3.org/2000/svg" viewBox="0 0 1000 134"><defs><style>.cls-1{fill:#fcfcfc;}</style></defs><title>teamloungeslimeee</title><g id="title"><path id="path211559" class="cls-1" d="M128.91,36.34v66h5.14V36.34h25.42V31.71h-56v4.63Z"/><path id="path211561" class="cls-1" d="M217.8,64.18H172.12v4.53H217.8Zm0-32.47H172.12v4.63H217.8ZM172.12,97.66v4.63H217.8V97.66Z"/><path id="path211563" class="cls-1" d="M265.49,31.71h-5.14l-32.47,70.58h5.54l29.45-64.94,29.55,64.94H298Z"/><path id="path211565" class="cls-1" d="M377.53,102.29h5l-.1-70.58h-4.23L346.67,86.26,315.11,31.71h-4.33v70.58h5V42.09l29.54,50.83h2.52l29.55-51Z"/><path id="path211567" class="cls-1" d="M410.82,100.18a40.36,40.36,0,0,0,14.82,2.62,34.73,34.73,0,0,0,14.12-2.52,18.22,18.22,0,0,0,8.47-6.76,17.11,17.11,0,0,0,2.82-9.38c0-4.13-1.11-7.46-3.33-9.88a21.47,21.47,0,0,0-7.86-5.55A114.27,114.27,0,0,0,427.46,65a93.9,93.9,0,0,1-11-3.22,17.29,17.29,0,0,1-6.75-4.34A10.2,10.2,0,0,1,407,49.86a12.2,12.2,0,0,1,5-10.19q5-3.93,14.82-3.93a35.22,35.22,0,0,1,10,1.51,33.33,33.33,0,0,1,9.38,4.44l1.92-4.14a38.49,38.49,0,0,0-9.78-4.63,41.31,41.31,0,0,0-11.5-1.72,35.26,35.26,0,0,0-14,2.52,19,19,0,0,0-8.27,6.86A17,17,0,0,0,401.84,50c0,4.23,1,7.66,3.23,10.18a20,20,0,0,0,8,5.55,92.41,92.41,0,0,0,12.5,3.73,103.87,103.87,0,0,1,10.89,3.13,19.49,19.49,0,0,1,6.76,4.33,10.58,10.58,0,0,1,2.72,7.57,11.83,11.83,0,0,1-5.14,10c-3.43,2.62-8.58,3.83-15.23,3.83a37.12,37.12,0,0,1-13.31-2.42,25.88,25.88,0,0,1-10-6.45l-2.32,3.83A29.08,29.08,0,0,0,410.82,100.18Z"/><path id="path211569" class="cls-1" d="M468.53,31.71v70.58h45.79V97.66H473.68V31.71Z"/><path id="path211571" class="cls-1" d="M537.44,98.16a37.41,37.41,0,0,0,18.75,4.64A38,38,0,0,0,575,98.16a34.1,34.1,0,0,0,13.11-12.81A35.18,35.18,0,0,0,592.9,67a35.43,35.43,0,0,0-4.84-18.35A34.82,34.82,0,0,0,575,35.84a39.23,39.23,0,0,0-18.76-4.64,37.58,37.58,0,0,0-18.75,4.74,34.25,34.25,0,0,0-13.21,12.81A35.16,35.16,0,0,0,519.49,67a34.91,34.91,0,0,0,4.74,18.25A34.5,34.5,0,0,0,537.44,98.16ZM572.22,94a34.09,34.09,0,0,1-32.16,0,28.59,28.59,0,0,1-11.3-11.1A30.56,30.56,0,0,1,524.63,67a30.21,30.21,0,0,1,4.13-15.83A29.51,29.51,0,0,1,540.06,40a34.09,34.09,0,0,1,32.16,0,30.54,30.54,0,0,1,15.43,27,31.54,31.54,0,0,1-4.13,15.93A29.87,29.87,0,0,1,572.22,94Z"/><path id="path211573" class="cls-1" d="M617.49,95c4.94,5.25,11.9,7.77,20.87,7.77s15.84-2.52,20.88-7.77,7.46-12.7,7.46-22.69V31.71h-5.14V72.14c0,8.68-2,15.23-5.95,19.46s-9.68,6.46-17.14,6.46-13.32-2.12-17.25-6.46-6-10.78-6-19.46V31.71h-5.14V72.34C610.13,82.33,612.55,89.89,617.49,95Z"/><path id="path211575" class="cls-1" d="M748.18,31.71H743V93L695,31.71H690.7v70.58h5.14V41l48.1,61.31h4.24Z"/><path id="path211577" class="cls-1" d="M823.25,67.3V91.6c-5.35,4.34-12,6.46-20.07,6.46a32.75,32.75,0,0,1-16.34-4,30.65,30.65,0,0,1-11.49-11.2A30.12,30.12,0,0,1,771.21,67a30.12,30.12,0,0,1,4.14-15.83A29.68,29.68,0,0,1,786.74,40a34.23,34.23,0,0,1,16.44-4,35.41,35.41,0,0,1,12.1,2,28,28,0,0,1,10,6.35l3.23-3.43a31.15,31.15,0,0,0-11.19-7.16,40.6,40.6,0,0,0-14.22-2.52A39.84,39.84,0,0,0,784,35.84a34.32,34.32,0,0,0-13.21,12.81A35.27,35.27,0,0,0,766.07,67a35,35,0,0,0,4.74,18.35A33.62,33.62,0,0,0,784,98.16a38.24,38.24,0,0,0,19,4.64,40.35,40.35,0,0,0,13.91-2.32,29.59,29.59,0,0,0,11.3-6.76V67.3Z"/><path id="path211579" class="cls-1" d="M896.5,64.18H850.82v4.53H896.5Zm0-32.47H850.82v4.63H896.5ZM850.82,97.66v4.63H896.5V97.66Z"/></g></svg>