<?xml version="1.0" encoding="utf-8"?>
<!-- Generator: Adobe Illustrator 24.0.2, SVG Export Plug-In . SVG Version: 6.00 Build 0)  -->
<svg version="1.1" id="Layer_1" xmlns="http://www.w3.org/2000/svg" xmlns:xlink="http://www.w3.org/1999/xlink" x="0px" y="0px"
	 viewBox="0 0 1000 166" style="enable-background:new 0 0 1000 166;" xml:space="preserve">
<style type="text/css">
	.st0{fill:#EDEDED;}
	.st1{fill-rule:evenodd;clip-rule:evenodd;fill:#222222;}
	.st2{fill-rule:evenodd;clip-rule:evenodd;fill:#E25252;}
	.st3{fill:#222222;}
	.st4{fill:#B04141;}
	.st5{fill:#E25252;}
	.st6{fill:#FCFCFC;}
	.st7{display:none;}
	.st8{display:inline;fill:#FFFFFF;}
	.st9{display:inline;}
	.st10{fill:#F2F2F2;}
</style>
<g>
	<g id="title_6_" transform="translate(0 0)">
		
			<g id="path145543_2_" transform="translate(0 305.236) translate(240.67371749999995 55.832) scale(0.91) translate(-232.04094 50.4)">
			<path class="st3" d="M56.4-321.5c0,4.4-3.5,8-8,8c-4.5,0-8-3.6-8-8v-60.8H22.8c-4.4,0-8-3.6-8-8.1c0-4.4,3.6-8,8-8h25.6
				c4.9,0,8,3.6,8,8V-321.5z"/>
			<path class="st4" d="M82-390.4c0,4.5-3.6,8.1-8,8.1c-4.5,0-8.1-3.6-8.1-8.1c0-4.4,3.6-8,8.1-8C78.4-398.4,82-394.8,82-390.4z"/>
		</g>
		<g id="path145545_2_" transform="translate(0 305.236) translate(287.4903692 55.832) scale(0.91) translate(-279.48781 50.4)">
			<path class="st3" d="M105.5-313.5c-4.4,0-8-3.6-8-8v-68.9c0-4.4,3.6-8,8-8h16.7c4.4,0,8,3.6,8,8c0,4.5-3.6,8.1-8,8.1h-8.6v18.6
				h28.1c4.5,0,8,3.3,8,7.8c0,4.4-3.5,7.6-8,7.6h-28.1v18.7h33.1c4.5,0,8,3.6,8,8.1c0,4.4-3.5,8-8,8H105.5z"/>
			<path class="st4" d="M146.3-382.3c-4.5,0-8.1-3.6-8.1-8.1c0-4.4,3.6-8,8.1-8c4.4,0,8,3.6,8,8
				C154.3-385.9,150.7-382.3,146.3-382.3z"/>
		</g>
		
			<g id="path145547_2_" transform="translate(0 305.236) translate(327.7178655999999 55.832) scale(0.91) translate(-319.69385 50.4)">
			<path class="st3" d="M237.5-348.2L216-393.8c-1.3-2.8-4.2-4.6-7.3-4.6c-3.2,0-5.9,1.8-7.3,4.6L168.7-325c-1.8,4-0.1,8.9,3.9,10.8
				c4,1.8,8.7,0.1,10.7-3.9l7.6-16h40.8c2.8,0,5.2-1.5,6.7-3.6C241.1-341.9,238.9-345.4,237.5-348.2z M197.4-348l11.3-23.8
				l11.4,23.8H197.4z"/>
			<path class="st4" d="M249.4-321.5c0,4.4-3.6,8-8.1,8c-4.4,0-8-3.6-8-8c0-4.5,3.6-8.1,8-8.1C245.8-329.7,249.4-326,249.4-321.5z"
				/>
		</g>
		
			<g id="path145549_2_" transform="translate(0 305.236) translate(383.8519799999999 55.84006896999999) scale(0.91) translate(-377.37969 50.391133)">
			<path class="st3" d="M344.2-363.4l-23.6,45.7c-1.5,2.5-4.1,4.1-7,4.1c-2.9,0-5.6-1.6-7-4.2L284-362.6v41.1c0,4.4-3.6,8-8.1,8
				c-4.4,0-8-3.6-8-8v-68.9c0-3.6,2.4-6.8,6.1-7.8c3.5-0.8,7.3,0.7,9,4l30.8,58.5l31.7-58.6c1.7-3.2,5.5-4.7,9-3.9
				c3.5,1,6.1,4.1,6.1,7.8v44.8c0,4.4-3.6,8-8.1,8c-4.4,0-8-3.6-8-8L344.2-363.4L344.2-363.4z"/>
			<path class="st4" d="M352.2-313.5c-4.4,0-8-3.6-8-8c0-4.5,3.6-8.1,8-8.1c4.5,0,8.1,3.6,8.1,8.1
				C360.4-317.2,356.7-313.5,352.2-313.5z"/>
		</g>
		
			<g id="path145551_2_" transform="translate(0 305.236) translate(447.6321691999999 54.65264) scale(0.91) translate(-443.46781 51.696)">
			<path class="st4" d="M398-330.6c0,4.5-3.6,8-8.1,8c-4.4,0-8-3.5-8-8s3.6-8,8-8C394.4-338.6,398-335.1,398-330.6z"/>
			<path class="st3" d="M417.9-311.3c-6.3,0-14.8-2.4-14.8-8.6c0-5.1,3.4-7.9,7.4-7.6c4.1,0.2,8.6,1.7,13-0.4
				c3.4-1.6,5.9-4.6,5.9-8.9c0-5.1-5.7-8.4-18.1-12.9c-11.2-4-27.9-9-28-25.6c0-6.3,2.4-12.2,6.9-16.9c3.9-3.9,11-8.5,23.5-8.5
				c14.2,0,23.6,7.5,26.8,12c2.2,2.9,1.8,6.8-0.4,9.6c-2.9,3.6-7.3,3.3-10.3,0.6c-2.2-1.9-7.3-7-16.6-7c-8.1,0-13.8,4.2-13.8,10.2
				c0,3.9,4.2,7.2,16.9,12c15.5,5.9,29.2,12.5,29.2,27.4C445.5-323.8,437.2-311.3,417.9-311.3z"/>
		</g>
		
			<g id="path145553_2_" transform="translate(0 305.236) translate(496.43490499999996 55.832) scale(0.91) translate(-493.09719 50.4)">
			<path class="st3" d="M493.3-313.5h-17.1c-4.4,0-8-3.6-8-8v-68.9c0-4.4,3.6-8,8-8c4.5,0,8.1,3.6,8.1,8v60.8h9c4.5,0,8,3.6,8,8.1
				C501.3-317.2,497.8-313.5,493.3-313.5z"/>
			<path class="st4" d="M509.4-321.5c0-4.5,3.5-8.1,8-8.1s8,3.6,8,8.1c0,4.4-3.5,8-8,8S509.4-317.2,509.4-321.5z"/>
		</g>
		
			<g id="path145555_2_" transform="translate(0 305.236) translate(529.6868691999999 54.65264) scale(0.91) translate(-525.63781 51.696)">
			<path class="st3" d="M570.4-311.3c-24.6,0-44.6-20-44.6-44.8c0-13.8,6.3-26.4,17.2-35c3.4-2.7,8.5-2.1,11.3,1.5
				c2.7,3.4,2.1,8.5-1.5,11.3c-6.9,5.5-10.9,13.5-10.9,22.3c0,15.8,12.7,28.6,28.5,28.6c15.8,0,28.6-12.9,28.6-28.6
				c0-8.9-4-16.9-11-22.3c-3.5-2.8-4.1-7.9-1.3-11.3c2.7-3.5,7.8-4.1,11.3-1.5c10.9,8.6,17.2,21.2,17.2,35
				C615.1-331.3,595-311.3,570.4-311.3z"/>
			<path class="st4" d="M570.4-400.6c4.5,0,8.1,3.6,8.1,8.1c0,4.4-3.6,8-8.1,8c-4.4,0-8-3.6-8-8C562.4-397,566-400.6,570.4-400.6z"
				/>
		</g>
		
			<g id="path145557_2_" transform="translate(0 305.236) translate(589.1110067000001 55.832) scale(0.91) translate(-586.93906 50.4)">
			<path class="st3" d="M705.7-349.3c0,18.3-11.5,38-37,38c-22.1,0-37-15.3-37-38v-41.1c0-4.4,3.6-8,8-8c4.5,0,8.1,3.6,8.1,8v41.1
				c0,6.7,1.9,21.8,20.9,21.8c15.4,0,20.9-11.3,20.9-21.8v-17c0-4.4,3.6-8,8.1-8c4.4,0,8,3.6,8,8L705.7-349.3L705.7-349.3z"/>
			<path class="st4" d="M689.6-390.4c0-4.4,3.6-8,8.1-8c4.4,0,8,3.6,8,8c0,4.5-3.6,8.1-8,8.1C693.2-382.3,689.6-385.9,689.6-390.4z"
				/>
		</g>
		
			<g id="path145559_2_" transform="translate(0 305.236) translate(643.5136550000001 55.82806152) scale(0.91) translate(-642.72219 50.404328)">
			<path class="st3" d="M786-342.3v-24c0-4.5,3.6-8.1,8-8.1c4.5,0,8.1,3.6,8.1,8v43.9c0,2.8-0.6,5.2-3,7.3c-1.9,1.5-5,2.5-8.4,0.9
				c-1.8-1-2.8-2.1-4.1-3.6l-42.1-51.5v48c0,4.4-3.6,8-8.1,8c-4.4,0-8-3.6-8-8v-67.2c0-3,0.4-6.7,4.2-8.7c3-1.7,7-1.5,10.8,2.9
				L786-342.3z"/>
			<path class="st4" d="M802.2-390.4c0,4.5-3.6,8-8,8c-4.5,0-8.1-3.5-8.1-8s3.6-8,8.1-8C798.5-398.4,802.2-394.9,802.2-390.4z"/>
		</g>
		
			<g id="path145561_2_" transform="translate(0 305.236) translate(695.1931192000001 54.65264) scale(0.91) translate(-695.51281 51.696)">
			<path class="st3" d="M864.7-400.6c8.1,0,19.5,1.6,28.7,9.1c3.4,2.8,3.6,7.6,1.1,11.3c-2.4,3.4-7.3,2.9-11.2,0.8
				c-5.1-2.5-11-5.1-18.7-5.1c-15.8,0-28.5,12.7-28.5,28.5c0,15.8,12.7,28.5,28.5,28.5c6.3,0,13.7-1.9,19-5v-16.7c0-4.4,3.5-8,8-8
				c4.5,0,8,3.6,8,8v19c0,2.2,0,3.9-0.8,5.7c-0.7,1.5-1.9,2.5-3.5,3.6c-8,5.7-20.1,9.5-30.7,9.5c-24.6,0-44.6-20-44.6-44.6
				C820.1-380.7,840.1-400.6,864.7-400.6z"/>
			<path class="st4" d="M867.7-357.2c4.4,0,8,3.6,8,8c0,4.5-3.6,8.1-8,8.1c-4.5,0-8.1-3.6-8.1-8.1
				C859.6-353.5,863.3-357.2,867.7-357.2z"/>
		</g>
		
			<g id="path145563_2_" transform="translate(0 305.236) translate(752.4008425000002 55.832) scale(0.91) translate(-754.37844 50.4)">
			<path class="st3" d="M930-313.5c-4.4,0-8-3.6-8-8v-68.9c0-4.4,3.6-8,8-8h16.7c4.4,0,8,3.6,8,8c0,4.5-3.6,8.1-8,8.1h-8.6v18.6
				h28.1c4.5,0,8,3.3,8,7.8c0,4.4-3.5,7.6-8,7.6h-28.1v18.7h33.1c4.5,0,8,3.6,8,8.1c0,4.4-3.5,8-8,8H930z"/>
			<path class="st4" d="M970.8-382.3c-4.5,0-8.1-3.6-8.1-8.1c0-4.4,3.6-8,8.1-8c4.4,0,8,3.6,8,8
				C978.8-385.9,975.2-382.3,970.8-382.3z"/>
		</g>
	</g>
</g>
</svg>
