<?xml version="1.0" encoding="utf-8"?>
<!-- Generator: Adobe Illustrator 24.0.2, SVG Export Plug-In . SVG Version: 6.00 Build 0)  -->
<svg version="1.1" id="Layer_1" xmlns="http://www.w3.org/2000/svg" xmlns:xlink="http://www.w3.org/1999/xlink" x="0px" y="0px"
	 viewBox="0 0 1000 284" style="enable-background:new 0 0 1000 284;" xml:space="preserve">
<style type="text/css">
	.st0{fill-rule:evenodd;clip-rule:evenodd;fill:#222222;}
	.st1{fill-rule:evenodd;clip-rule:evenodd;fill:#E25252;}
	.st2{fill:#EDEDED;}
	.st3{fill:#222222;}
	.st4{fill:#B04141;}
	.st5{fill:#E25252;}
	.st6{fill:#FCFCFC;}
	.st7{display:none;}
	.st8{display:inline;fill:#FFFFFF;}
	.st9{display:inline;}
	.st10{fill:#F2F2F2;}
</style>
<g>
	<g>
		<g>
			<g>
				<g>
					<path class="st0" d="M113,102.8h57.7v-17H113V102.8z M150.4,141c0-2.4-0.9-4.2-2.6-6.1c-1.7-1.7-3.7-2.6-6.1-2.6
						c-2.4,0-4.2,0.9-6.1,2.6c-1.7,1.7-2.6,3.7-2.6,6.1v57.1h17.1V141H150.4z"/>
					<path class="st1" d="M141.7,126.2c-2.4,0-4.2-0.9-6.1-2.6c-1.7-1.7-2.6-3.7-2.6-6.1c0-2.4,0.9-4.2,2.6-6.1
						c1.7-1.7,3.7-2.6,6.1-2.6c2.4,0,4.4,0.9,6.1,2.6s2.6,3.7,2.6,6.1c0,2.4-0.9,4.4-2.6,6.1C146.1,125.5,144.1,126.2,141.7,126.2z"
						/>
				</g>
				<g>
					<path class="st0" d="M222.8,102.8c2.4,0,4.2-0.9,6.1-2.6c1.7-1.7,2.6-3.7,2.6-6.1s-0.9-4.4-2.6-6.1c-1.7-1.7-3.7-2.4-6.1-2.4
						h-33.2c-2.4,0-4.4,0.7-6.1,2.4c-1.7,1.7-2.4,3.7-2.4,6.1s0.7,4.2,2.4,6.1c1.7,1.8,3.7,2.6,6.1,2.6H222.8z M181.1,198.1h41.6
						c2.4,0,4.2-0.9,6.1-2.6c1.7-1.7,2.6-3.7,2.6-6.1c0-2.4-0.9-4.4-2.6-6.1s-3.7-2.4-6.1-2.4h-24.7v-30.4h17.5
						c2.4,0,4.2-0.7,6.1-2.4c1.7-1.7,2.6-3.7,2.6-6.1c0-2.4-0.9-4.2-2.6-6.1c-1.7-1.7-3.7-2.6-6.1-2.6h-26c-2.4,0-4.4,0.9-6.1,2.6
						s-2.4,3.7-2.4,6.1L181.1,198.1z"/>
					<path class="st1" d="M189.6,126.8c-2.4,0-4.4-0.9-6.1-2.6s-2.4-3.7-2.4-6.1c0-2.4,0.7-4.2,2.4-6.1c1.7-1.7,3.7-2.6,6.1-2.6
						s4.2,0.9,6.1,2.6c1.7,1.7,2.6,3.7,2.6,6.1c0,2.4-0.9,4.4-2.6,6.1C194,125.9,192,126.8,189.6,126.8z"/>
				</g>
				<g>
					<path class="st0" d="M283.4,196.1c1.7,1.3,3.5,2,5.5,2c2.9,0,5.2-1.1,6.6-3.3c1.1-1.7,1.8-3.5,1.8-5.7
						c0-0.7-5.9-35.2-17.9-103.4H255c-11.8,68.4-17.9,103-17.9,103.6c0,2,0.6,3.9,1.8,5.5c1.5,2.2,3.7,3.3,6.6,3.3
						c2,0,3.9-0.7,5.5-2c1.7-1.3,2.6-3.1,2.9-5.2l13.3-76.1l13.3,76.1C280.8,193.1,281.9,194.8,283.4,196.1L283.4,196.1z"/>
					<path class="st1" d="M267.2,198.1c-2.4,0-4.4-0.9-6.1-2.6s-2.4-3.7-2.4-5.9c0-2.4,0.7-4.4,2.4-6.1s3.7-2.6,6.1-2.6
						c2.4,0.2,4.4,0.9,6.1,2.6s2.4,3.7,2.4,6.1s-0.7,4.2-2.4,5.9S269.8,198.1,267.2,198.1z"/>
				</g>
				<g>
					<path class="st0" d="M325.2,148.4l13.8,49.8h17.7l13.6-49.8v26.5h17.1v-79c0-2.8-0.9-5.2-2.9-7c-2-1.8-4.2-2.9-7-2.9
						c-2.2,0-4.2,0.7-6.1,2c-1.8,1.3-2.9,3.1-3.5,5.5l-20.1,72.8l-20.1-72.8c-0.6-2.2-1.7-4.1-3.5-5.5c-1.8-1.5-3.9-2.2-6.1-2.2
						c-2.8,0-5.2,0.9-7,2.9c-1.8,1.8-2.9,4.2-2.9,7v79.2h17V148.4z M372.8,195.7c1.7,1.7,3.7,2.6,6.1,2.6c2.4,0,4.2-0.9,6.1-2.6
						c1.7-1.7,2.6-3.7,2.6-6.1s-0.9-4.4-2.6-6.1s-3.7-2.4-6.1-2.4c-2.4,0-4.4,0.7-6.1,2.4c-1.7,1.7-2.6,3.7-2.6,6.1
						S371.1,194.1,372.8,195.7z"/>
					<path class="st1" d="M316.6,198.1c-2.4,0-4.2-0.9-6.1-2.6s-2.6-3.7-2.6-6.1c0-2.4,0.9-4.4,2.6-6.1s3.7-2.4,6.1-2.4
						c2.4,0,4.4,0.7,6.1,2.4s2.4,3.7,2.4,6.1c0,2.4-0.7,4.2-2.4,6.1C321,197.4,319,198.1,316.6,198.1z"/>
				</g>
				<g>
					<path class="st0" d="M417.9,194.1c4.6,2.8,9.8,4.1,15.3,4.1c5.7,0,10.7-1.3,15.3-4.1c4.6-2.8,8.3-6.4,11.1-11.1
						s4.1-9.8,4.1-15.3c0-9.2-3.9-17-11.4-23.2c-3.3-2.8-6.8-5.2-10.5-7.4c-5.9-3.3-10.3-6.1-12.9-7.7c-2.8-1.8-5-3.7-6.4-5.7
						c-1.7-2-2.4-4.4-2.4-7.2c0-3.7,1.3-6.8,3.9-9.6c2.6-2.6,5.7-3.9,9.4-3.9c5,0,8.8,2.2,11.6,6.8c0.2,0.4,0.4,0.7,0.6,1.1
						c0.2,0.4,0.4,0.7,0.6,1.1c1.8,2.9,4.4,4.4,7.6,4.4c1.8,0,3.5-0.6,5.2-1.5c2.4-1.5,3.7-3.3,3.7-5.9c0-1.5-0.6-3.5-1.8-5.9
						c-2.6-5.2-6.3-9.2-11.1-12.3c-4.8-3.1-10.3-4.8-16.2-4.8c-5.5,0-10.7,1.3-15.3,4.1c-4.6,2.8-8.3,6.4-11.1,11.1
						c-2.8,4.6-4.1,9.8-4.1,15.3c0,9.2,3.9,17,11.4,23.2c3.7,3.1,8.7,6.3,14.9,10c3.1,1.8,6.1,3.5,8.7,5.3c2.6,1.8,4.8,3.7,6.4,5.7
						s2.4,4.4,2.4,7.2c0,3.7-1.3,6.8-3.9,9.4c-2.6,2.6-5.7,3.9-9.6,3.9c-3.7,0-6.8-1.3-9.4-3.9c-2.6-2.6-3.9-5.7-3.9-9.4h-17
						c0,5.5,1.3,10.7,4.1,15.3C409.6,187.6,413.3,191.3,417.9,194.1L417.9,194.1z"/>
					<path class="st1" d="M433.4,176.4c-2.4,0-4.4-0.9-6.1-2.6c-1.7-1.7-2.6-3.7-2.6-6.1s0.9-4.2,2.6-6.1c1.7-1.8,3.7-2.6,6.1-2.6
						c2.4,0,4.2,0.9,6.1,2.6c1.7,1.7,2.6,3.7,2.6,6.1s-0.9,4.4-2.6,6.1C437.6,175.4,435.6,176.4,433.4,176.4z"/>
				</g>
				<g>
					<path class="st0" d="M496.2,94.4c0-2.4-0.9-4.4-2.6-6.1c-1.7-1.7-3.7-2.4-6.1-2.4s-4.4,0.7-6.1,2.4c-1.7,1.7-2.6,3.7-2.6,6.1
						v103.7h23.4V181h-6.1V94.4z"/>
					<path class="st1" d="M517.4,198.1c-2.4,0-4.4-0.9-6.1-2.6s-2.6-3.7-2.6-6.1c0-2.4,0.9-4.4,2.6-6.1s3.7-2.4,6.1-2.4
						c2.4,0,4.2,0.7,6.1,2.4c1.7,1.7,2.6,3.7,2.6,6.1c0,2.4-0.9,4.2-2.6,6.1C521.7,197.4,519.6,198.1,517.4,198.1z"/>
				</g>
				<g>
					<path class="st0" d="M549.3,194.1c4.6,2.8,9.8,4.1,15.5,4.1c5.5,0,10.7-1.3,15.3-4.1c4.6-2.8,8.3-6.4,11.1-11.1
						s4.1-9.8,4.1-15.3v-51.4c0-5.7-1.3-10.7-4.1-15.3s-6.4-8.3-11.1-11.1c-4.6-2.8-9.8-4.1-15.3-4.1s-10.7,1.3-15.3,4.1
						c-4.6,2.8-8.3,6.4-11.1,11.1c-2.8,4.6-4.1,9.8-4.1,15.3v51.4c0,5.7,1.3,10.7,4.1,15.3C541,187.8,544.7,191.5,549.3,194.1
						L549.3,194.1z M574.2,177.3c-2.6,2.6-5.7,3.9-9.4,3.9s-6.8-1.3-9.4-3.9c-2.6-2.6-3.9-5.7-3.9-9.4v-51.6c0-3.7,1.3-6.8,3.9-9.6
						c2.6-2.6,5.7-3.9,9.4-3.9s6.8,1.3,9.4,3.9c2.6,2.6,3.9,5.7,3.9,9.6v51.4C578.2,171.4,576.9,174.5,574.2,177.3L574.2,177.3z"/>
					<path class="st1" d="M564.8,150.6c-2.4,0-4.4-0.9-6.1-2.6s-2.4-3.7-2.4-6.1c0-2.4,0.7-4.4,2.4-6.1c1.7-1.7,3.7-2.6,6.1-2.6
						c2.4,0,4.2,0.9,6.1,2.6c1.7,1.7,2.6,3.7,2.6,6.1c0,2.4-0.9,4.2-2.6,6.1C569.2,149.8,567.2,150.6,564.8,150.6z"/>
				</g>
				<g>
					<path class="st0" d="M625.8,194.1c4.6,2.8,9.8,4.1,15.3,4.1c5.5,0,10.7-1.3,15.3-4.1c4.6-2.8,8.3-6.4,11.1-11.1
						s4.1-9.8,4.1-15.3V85.9h-17v81.8c0,3.7-1.3,6.8-3.9,9.4s-5.9,3.9-9.6,3.9c-3.7,0-6.8-1.3-9.4-3.9c-2.6-2.6-3.9-5.7-3.9-9.4
						v-49.9c0-2.4-0.9-4.2-2.6-6.1c-1.7-1.7-3.7-2.6-6.1-2.6c-2.4,0-4.4,0.9-6.1,2.6s-2.4,3.7-2.4,6.1v50.1c0,5.5,1.3,10.7,4.1,15.3
						C617.5,187.6,621.2,191.3,625.8,194.1L625.8,194.1z"/>
					<path class="st1" d="M619.1,102.8c-2.4,0-4.4-0.7-6.1-2.4c-1.7-1.7-2.4-3.7-2.4-6.1c0-2.4,0.7-4.2,2.4-6.1
						c1.7-1.8,3.7-2.6,6.1-2.6c2.4,0,4.2,0.9,6.1,2.6c1.7,1.7,2.6,3.7,2.6,6.1c0,2.4-0.9,4.4-2.6,6.1S621.5,102.8,619.1,102.8z"/>
				</g>
				<g>
					<path class="st0" d="M727.8,153l-16-57.5c-0.7-2.8-2.2-5.2-4.4-6.8c-2.2-1.8-4.8-2.6-7.7-2.6c-3.5,0-6.4,1.3-8.8,3.7
						c-2.4,2.4-3.7,5.3-3.7,8.8v68c0,2.4,0.9,4.2,2.6,6.1c1.7,1.7,3.7,2.6,6.1,2.6c2.4,0,4.4-0.9,6.1-2.6s2.6-3.7,2.6-6.1v-35
						l18.4,66.7h22.3V85.9H728L727.8,153z"/>
					<path class="st1" d="M695.6,198.1c-2.4,0-4.2-0.7-6.1-2.4c-1.7-1.7-2.6-3.7-2.6-6.1s0.9-4.2,2.6-6.1c1.7-1.7,3.7-2.6,6.1-2.6
						c2.4,0,4.4,0.9,6.1,2.6c1.7,1.7,2.6,3.7,2.6,6.1s-0.9,4.4-2.6,6.1S698,198.1,695.6,198.1z"/>
				</g>
				<g>
					<path class="st0" d="M762.8,132c1.7,1.7,3.7,2.6,6.1,2.6c2.4,0,4.2-0.9,6.1-2.6s2.6-3.7,2.6-6.1v-9.6c0-3.7,1.3-6.8,3.9-9.4
						s5.7-3.9,9.4-3.9c4.1,0,7.2,1.5,9.8,4.2c2.4,2.8,3.7,6.1,3.7,10.1c0,2.4,0.9,4.2,2.6,6.1c1.7,1.8,3.7,2.6,6.1,2.6
						c2.4,0,4.4-0.9,6.1-2.6s2.6-3.7,2.6-6.1c0-5.7-1.3-10.9-4.1-15.7c-2.6-4.8-6.3-8.5-10.9-11.4c-4.6-2.8-9.8-4.2-15.7-4.2
						c-5.5,0-10.7,1.3-15.3,4.1c-4.6,2.8-8.3,6.4-11.1,11.1s-4.1,9.8-4.1,15.3v9.6C760.3,128.3,761,130.3,762.8,132L762.8,132z
						 M771.9,191.5c5.5,4.4,11.8,6.6,19,6.6c5.5,0,10.7-1.3,15.3-4.1c4.6-2.8,8.3-6.4,11.1-11.1c2.8-4.6,4.1-9.8,4.1-15.3v-27.3
						h-30.4v17h13.5v10.1c0,3.7-1.3,6.8-3.9,9.4c-2.6,2.6-5.7,3.9-9.4,3.9c-3.3,0-6.3-0.9-8.5-2.9c-2.2-2-3.9-4.6-4.6-7.7
						c-0.6-2-1.5-3.7-2.9-5c-1.5-1.3-3.3-1.8-5.3-1.8c-2.4,0-4.4,0.9-6.3,2.8c-1.7,1.7-2.4,3.5-2.4,5.7v0.6
						C762.3,180.4,766,186.7,771.9,191.5L771.9,191.5z"/>
					<path class="st1" d="M768.9,157.6c-2.4,0-4.4-0.9-6.1-2.6s-2.6-3.7-2.6-6.1s0.9-4.2,2.6-6.1c1.7-1.7,3.7-2.6,6.1-2.6
						c2.4,0,4.2,0.9,6.1,2.6c1.7,1.7,2.6,3.7,2.6,6.1s-0.9,4.2-2.6,6.1C773.3,156.8,771.1,157.6,768.9,157.6z"/>
				</g>
				<g>
					<path class="st0" d="M878.4,102.8c2.4,0,4.2-0.9,6.1-2.6s2.6-3.7,2.6-6.1s-0.9-4.4-2.6-6.1c-1.7-1.7-3.7-2.4-6.1-2.4h-33.2
						c-2.4,0-4.4,0.7-6.1,2.4s-2.4,3.7-2.4,6.1s0.7,4.2,2.4,6.1c1.7,1.8,3.7,2.6,6.1,2.6H878.4z M836.7,198.1h41.6
						c2.4,0,4.2-0.9,6.1-2.6s2.6-3.7,2.6-6.1c0-2.4-0.9-4.4-2.6-6.1s-3.7-2.4-6.1-2.4h-24.7v-30.4h17.5c2.4,0,4.2-0.7,6.1-2.4
						c1.7-1.7,2.6-3.7,2.6-6.1c0-2.4-0.9-4.2-2.6-6.1c-1.7-1.7-3.7-2.6-6.1-2.6h-26c-2.4,0-4.4,0.9-6.1,2.6s-2.4,3.7-2.4,6.1
						L836.7,198.1L836.7,198.1z"/>
					<path class="st1" d="M845.2,126.8c-2.4,0-4.4-0.9-6.1-2.6s-2.4-3.7-2.4-6.1c0-2.4,0.7-4.2,2.4-6.1c1.7-1.7,3.7-2.6,6.1-2.6
						c2.4,0,4.2,0.9,6.1,2.6c1.7,1.7,2.6,3.7,2.6,6.1c0,2.4-0.9,4.4-2.6,6.1S847.6,126.8,845.2,126.8z"/>
				</g>
			</g>
		</g>
	</g>
</g>
</svg>
