<?xml version="1.0" encoding="utf-8"?>
<!-- Generator: Adobe Illustrator 23.0.5, SVG Export Plug-In . SVG Version: 6.00 Build 0)  -->
<svg version="1.1" id="a74b504d-8f27-42fa-9c2d-377300434abb"
	 xmlns="http://www.w3.org/2000/svg" xmlns:xlink="http://www.w3.org/1999/xlink" x="0px" y="0px" viewBox="0 0 891.2 632.2"
	 style="enable-background:new 0 0 891.2 632.2;" xml:space="preserve">
<style type="text/css">
	.st0{opacity:0.24;fill:#E25252;}
	.st1{opacity:0.79;fill:#E25252;}
	.st2{opacity:0.47;fill:#8C3434;}
	.st3{fill:#E25252;}
	.st4{fill:#8C3434;}
	.st5{opacity:0.1;enable-background:new    ;}
	.st6{fill:#FF6584;}
</style>
<title>city girl</title>
<g>
	<path class="st0" d="M650.8,111.2c-129-99.5-308.6-103.5-439.5-6.6C142,155.9,88.4,234.2,98.1,353.6c3.5,42.2,13.1,76.8,27.1,105.2
		C182,573.7,415.1,569.3,428.1,569.3c8.4,0,16.8,0.2,25.2,0.6c29.4,1.3,58.6,5,87.4,11.1c41.1,8.6,93.3,12.9,140-3.4
		c7.9-2.7,15.6-6.1,23.1-10c25.7-13.6,54.4-26.7,71.2-59c12.6-24.3,21.8-54.7,26.2-92.6C817.2,277.8,736.8,177.5,650.8,111.2z"/>
	<ellipse class="st1" cx="453.8" cy="571.5" rx="369" ry="34.6"/>
	<ellipse class="st2" cx="435.8" cy="571.5" rx="343.2" ry="16.3"/>
	<polygon class="st3" points="625.6,107.6 625.6,146.4 575,146.4 575,570.2 680.6,570.2 680.6,162.6 680.6,146.4 680.6,107.6 	"/>
	<polygon class="st3" points="347,368.6 347,301.9 282.5,301.9 282.5,368.6 258.3,368.6 258.3,571 370.5,571 370.5,368.6 	"/>
	<rect x="270.8" y="477.1" class="st4" width="87.3" height="94.6"/>
	<rect x="270.8" y="477.1" class="st5" width="13.9" height="94.6"/>
	<polygon class="st4" points="537.6,86.3 537.6,109.1 408.6,109.1 408.6,86.3 370.5,86.3 370.5,571.7 575,571.7 575,86.3 	"/>
	<rect x="537.6" y="86.3" class="st5" width="28.6" height="22.7"/>
	<rect x="370.5" y="86.3" class="st5" width="28.6" height="485.4"/>
	<polygon class="st4" points="224.6,224.9 224.6,206.6 205.5,206.6 205.5,224.9 171,224.9 171,571.7 258.3,571.7 258.3,224.9 	"/>
	<rect x="205.5" y="206.6" class="st5" width="10.3" height="18.3"/>
	<rect x="171" y="224.9" class="st5" width="10.3" height="346.8"/>
	<rect x="537.6" y="273.3" class="st5" width="28.6" height="298.4"/>
	<rect x="231.9" y="224.9" class="st5" width="26.4" height="63.8"/>
	<rect x="402" y="147.9" class="st3" width="41.1" height="17.6"/>
	<rect x="489.3" y="329" class="st3" width="41.1" height="17.6"/>
	<rect x="402" y="455.9" class="st3" width="41.1" height="17.6"/>
	<rect x="194.5" y="304.1" class="st3" width="41.1" height="17.6"/>
	<rect x="294.2" y="487.4" class="st3" width="41.1" height="17.6"/>
	<rect x="279.6" y="384" class="st5" width="70.4" height="29.3"/>
	<rect x="587.5" y="180.2" class="st5" width="70.4" height="29.3"/>
	<rect x="587.5" y="242.5" class="st5" width="70.4" height="29.3"/>
	<rect x="587.5" y="304.8" class="st5" width="70.4" height="29.3"/>
	<rect x="587.5" y="367.1" class="st5" width="70.4" height="29.3"/>
	<rect x="587.5" y="429.5" class="st5" width="70.4" height="29.3"/>
	<rect x="587.5" y="491.8" class="st5" width="70.4" height="29.3"/>
	<polygon class="st4" points="704.8,312.9 704.8,233 653.5,233 653.5,312.9 635.2,312.9 635.2,571.7 722.4,571.7 722.4,312.9 	"/>
	<rect x="653.5" y="233" class="st5" width="16.1" height="79.9"/>
	<rect x="635.2" y="312.9" class="st5" width="16.1" height="258.8"/>
	<rect x="679.2" y="442.7" class="st5" width="43.3" height="25.7"/>
	<rect x="680.6" y="404.5" class="st6" width="41.1" height="17.6"/>
	<path class="st3" d="M850.2,422.3c0,65.3-38.8,88.1-86.7,88.1s-86.7-22.8-86.7-88.1s86.7-148.4,86.7-148.4S850.2,357,850.2,422.3z"
		/>
	<polygon class="st4" points="760.3,500.4 761.2,445.8 798.2,378.1 761.3,437.2 761.7,412.6 787.2,363.7 761.8,406.1 761.8,406.1 
		762.5,361.9 789.8,322.9 762.7,354.9 763.1,273.9 760.3,381.2 760.5,376.8 732.8,334.3 760.1,385.3 757.5,434.6 757.4,433.3 
		725.4,388.6 757.3,438 757,444.1 756.9,444.2 757,444.7 750.4,570 759.2,570 760.2,505.3 792,456.1 	"/>
	<path class="st3" d="M214.5,423c0,65.3-38.8,88.1-86.7,88.1S41,488.3,41,423s86.7-148.4,86.7-148.4S214.5,357.7,214.5,423z"/>
	<polygon class="st4" points="124.6,501.1 125.5,446.5 162.5,378.8 125.7,437.9 126.1,413.3 151.5,364.4 126.2,406.8 126.2,406.8 
		126.9,362.6 154.2,323.6 127,355.6 127.4,274.6 124.6,381.9 124.8,377.5 97.1,335 124.4,386 121.8,435.3 121.7,434 89.8,389.4 
		121.6,438.7 121.3,444.8 121.3,444.9 121.3,445.4 114.7,570.7 123.5,570.7 124.5,506 156.3,456.8 	"/>
</g>
</svg>
