<?xml version="1.0" encoding="utf-8"?>
<!-- Generator: Adobe Illustrator 23.0.5, SVG Export Plug-In . SVG Version: 6.00 Build 0)  -->
<svg version="1.1" id="bb2a0322-f60c-49c8-997e-d7c4b3c4ffc5"
	 xmlns="http://www.w3.org/2000/svg" xmlns:xlink="http://www.w3.org/1999/xlink" x="0px" y="0px" viewBox="0 0 837 677"
	 style="enable-background:new 0 0 837 677;" xml:space="preserve">
<style type="text/css">
	.st0{opacity:8.000000e-02;fill:#E25252;}
	.st1{opacity:0.4;fill:#E25252;enable-background:new    ;}
	.st2{fill:#3F3D56;}
	.st3{fill:#2F2E41;}
	.st4{fill:#9F616A;}
	.st5{fill:#E25252;}
</style>
<title>taking selfie</title>
<polygon class="st0" points="326.2,671.9 837,414.3 628,0 98.8,242.2 "/>
<circle class="st1" cx="684.5" cy="495.2" r="31.2"/>
<circle class="st1" cx="626.7" cy="510.1" r="21.9"/>
<rect x="58" y="471" transform="matrix(0.5 -0.866 0.866 0.5 -396.8364 352.6665)" class="st0" width="98" height="98"/>
<path class="st2" d="M591,318c-12.2,0-22-9.8-22-22s9.8-22,22-22s22,9.8,22,22l0,0C613,308.1,603.1,318,591,318z M591,276
	c-11,0-20,9-20,20c0,11,9,20,20,20s20-9,20-20C611,285,602,276,591,276z"/>
<path class="st2" d="M214,255c-12.2,0-22-9.8-22-22s9.8-22,22-22s22,9.8,22,22l0,0C236,245.1,226.1,255,214,255z M214,213
	c-11,0-20,9-20,20s9,20,20,20s20-9,20-20C234,222,225,213,214,213z"/>
<path class="st2" d="M127,604c-12.2,0-22-9.8-22-22s9.8-22,22-22s22,9.8,22,22l0,0C149,594.1,139.1,604,127,604z M127,562
	c-11,0-20,9-20,20s9,20,20,20s20-9,20-20C147,571,138,562,127,562z"/>
<ellipse transform="matrix(0.6651 -0.7468 0.7468 0.6651 -68.4792 312.366)" class="st3" cx="314" cy="232.5" rx="34" ry="20.5"/>
<circle class="st3" cx="378.5" cy="295.5" r="89"/>
<path class="st3" d="M118.4,256.3l-82.7,6.8c-6.7,0.6-12,5.9-12.5,12.7l-3.1,42.6c-0.5,7.5,5.1,14.1,12.7,14.6c0.3,0,0.7,0,1,0H71v2
	h15v-2h8v2h15v-2h8c7.3,0,13.3-5.7,13.7-13l2.5-49.4c0.4-7.5-5.4-14-13-14.4C119.6,256.2,119,256.3,118.4,256.3z"/>
<path class="st4" d="M171,391L54,336l-21,33c0,0,60.8,38.8,64,42c4.5,4.5,53,36,72,31S179,396,171,391z"/>
<polygon class="st3" points="251,643 236,677 391.3,677 380,641 "/>
<path class="st4" d="M346,367c0,0,6,33,0,37s40,53,40,53l19-17l6-39c0,0-18-25-10-47S346,367,346,367z"/>
<circle class="st4" cx="364" cy="313" r="64"/>
<path class="st5" d="M381,434c0,0-25-38-39-41s-27-1-35,0s-35-9-51-2s0,89,0,89s-18,105-10,132s2,32-2,35s91,30,91,30h90
	c0,0,0-29,9-36s8-155,8-155l30-58c0,0-5-22-26-23s-39.7-12-39.7-12L392,434H381z"/>
<path class="st5" d="M265,396l-9-5c0,0-17,1-20,0s-41-13-56-6s-25-2-25-2s49,42-11,55c0,0,1,5,16,8s18,6,24,11s18,10,26,12
	s34,19,38,15s11-18,11-18L265,396z"/>
<path class="st5" d="M453,417l19,11c0,0,25,74,21,92s-8,15-2,27s12,13,8,24s-2,38-8,49s-35,46-60-13S453,417,453,417z"/>
<path class="st4" d="M489,570c0,0-14-28-17-30s-17-71-17-71s22-36,2-52c0,0,37-52,25-51s-36,39-36,39s-5.5-1.5-3.5-9.5
	S452,359,446,358s-18,42-18,42s-24.5,44.5-17,60c4.4,8.7,9.4,17.1,15,25l17,124C443,609,476,649,489,570z"/>
<ellipse class="st5" cx="112" cy="270" rx="11" ry="5"/>
<path class="st4" d="M45,369H31c0,0-31-10-31-33s9-70,37-69s2,63,2,63l17,6.9l0,21.1L45,369z"/>
<ellipse class="st3" cx="353.5" cy="270.5" rx="57" ry="29"/>
<ellipse class="st4" cx="430.5" cy="306.5" rx="5" ry="11"/>
<ellipse transform="matrix(0.8995 -0.4368 0.4368 0.8995 -62.3543 225.9103)" class="st3" cx="460" cy="248.5" rx="20.5" ry="34"/>
</svg>
